<mxfile host="app.diagrams.net" agent="Mozilla/5.0 (Windows NT 10.0; Win64; x64) AppleWebKit/537.36 (KHTML, like Gecko) Chrome/141.0.0.0 Safari/537.36" version="28.2.7">
  <diagram name="Page-1" id="XQ3kmMmyYhvDp9lW_7Ii">
    <mxGraphModel grid="1" page="1" gridSize="10" guides="1" tooltips="1" connect="1" arrows="1" fold="1" pageScale="1" pageWidth="827" pageHeight="1169" math="0" shadow="0">
      <root>
        <mxCell id="0" />
        <mxCell id="1" parent="0" />
        <mxCell id="86MRq97xUpjLnIEMSiG0-11" value="" style="edgeStyle=orthogonalEdgeStyle;rounded=0;orthogonalLoop=1;jettySize=auto;html=1;fontFamily=Helvetica;flowAnimation=1;" edge="1" parent="1" source="8CXxMaMyH3LYBatncUky-4" target="86MRq97xUpjLnIEMSiG0-10">
          <mxGeometry relative="1" as="geometry" />
        </mxCell>
        <mxCell id="86MRq97xUpjLnIEMSiG0-2" value="" style="image;html=1;image=img/lib/clip_art/people/Suit_Man_128x128.png" vertex="1" parent="1">
          <mxGeometry x="70" y="480" width="40" height="40" as="geometry" />
        </mxCell>
        <mxCell id="86MRq97xUpjLnIEMSiG0-14" value="" style="edgeStyle=orthogonalEdgeStyle;rounded=0;orthogonalLoop=1;jettySize=auto;html=1;entryX=0.5;entryY=0;entryDx=0;entryDy=0;flowAnimation=1;" edge="1" parent="1" source="86MRq97xUpjLnIEMSiG0-5" target="8CXxMaMyH3LYBatncUky-18">
          <mxGeometry relative="1" as="geometry">
            <mxPoint x="87.5" y="387.5999999999999" as="targetPoint" />
          </mxGeometry>
        </mxCell>
        <mxCell id="86MRq97xUpjLnIEMSiG0-4" value="" style="verticalLabelPosition=bottom;aspect=fixed;html=1;shape=mxgraph.salesforce.employees2;fillColorStyles=fillColor2,fillColor3;fillColor2=#d83a00;fillColor3=#ffffff;fillColor=none;strokeColor=none;" vertex="1" parent="1">
          <mxGeometry x="60" y="240" width="60" height="60" as="geometry" />
        </mxCell>
        <mxCell id="86MRq97xUpjLnIEMSiG0-6" value="" style="dashed=0;outlineConnect=0;html=1;align=center;labelPosition=center;verticalLabelPosition=bottom;verticalAlign=top;shape=mxgraph.webicons.json;gradientColor=#DFDEDE" vertex="1" parent="1">
          <mxGeometry x="361" y="520" width="52.3" height="51.2" as="geometry" />
        </mxCell>
        <mxCell id="8CXxMaMyH3LYBatncUky-9" value="" style="edgeStyle=orthogonalEdgeStyle;rounded=0;orthogonalLoop=1;jettySize=auto;html=1;flowAnimation=1;" edge="1" parent="1" source="86MRq97xUpjLnIEMSiG0-8">
          <mxGeometry relative="1" as="geometry">
            <mxPoint x="313.79999999999995" y="290" as="targetPoint" />
          </mxGeometry>
        </mxCell>
        <mxCell id="86MRq97xUpjLnIEMSiG0-8" value="" style="dashed=0;outlineConnect=0;html=1;align=center;labelPosition=center;verticalLabelPosition=bottom;verticalAlign=top;shape=mxgraph.weblogos.fotolog;fillColor=#f5f5f5;strokeColor=#666666;fontColor=#333333;" vertex="1" parent="1">
          <mxGeometry x="290" y="388.8" width="47.6" height="47.6" as="geometry" />
        </mxCell>
        <mxCell id="86MRq97xUpjLnIEMSiG0-17" value="" style="edgeStyle=orthogonalEdgeStyle;rounded=0;orthogonalLoop=1;jettySize=auto;html=1;flowAnimation=1;" edge="1" parent="1" source="8CXxMaMyH3LYBatncUky-40" target="86MRq97xUpjLnIEMSiG0-16">
          <mxGeometry relative="1" as="geometry" />
        </mxCell>
        <mxCell id="86MRq97xUpjLnIEMSiG0-10" value="" style="verticalLabelPosition=bottom;sketch=0;html=1;verticalAlign=top;pointerEvents=1;align=center;shape=mxgraph.cisco_safe.iot_things_icons.icon11;fillColor=#647687;strokeColor=#314354;fontColor=#ffffff;" vertex="1" parent="1">
          <mxGeometry x="190" y="426.3" width="60" height="50" as="geometry" />
        </mxCell>
        <mxCell id="86MRq97xUpjLnIEMSiG0-5" value="" style="verticalLabelPosition=bottom;aspect=fixed;html=1;shape=mxgraph.salesforce.inbox2;fillColorStyles=fillColor2,fillColor3;fillColor2=#00857d;fillColor3=#ffffff;fillColor=none;strokeColor=none;" vertex="1" parent="1">
          <mxGeometry x="70" y="291.2" width="40" height="40" as="geometry" />
        </mxCell>
        <mxCell id="8CXxMaMyH3LYBatncUky-10" style="edgeStyle=orthogonalEdgeStyle;rounded=0;orthogonalLoop=1;jettySize=auto;html=1;flowAnimation=1;" edge="1" parent="1" source="86MRq97xUpjLnIEMSiG0-16" target="86MRq97xUpjLnIEMSiG0-6">
          <mxGeometry relative="1" as="geometry">
            <Array as="points">
              <mxPoint x="387" y="414" />
            </Array>
          </mxGeometry>
        </mxCell>
        <mxCell id="86MRq97xUpjLnIEMSiG0-16" value="" style="dashed=0;outlineConnect=0;html=1;align=center;labelPosition=center;verticalLabelPosition=bottom;verticalAlign=top;shape=mxgraph.webicons.linkedin;fillColor=#0095DB;gradientColor=#006391" vertex="1" parent="1">
          <mxGeometry x="300.1" y="400.1" width="27.4" height="25" as="geometry" />
        </mxCell>
        <mxCell id="8CXxMaMyH3LYBatncUky-26" style="edgeStyle=orthogonalEdgeStyle;rounded=0;orthogonalLoop=1;jettySize=auto;html=1;startArrow=classic;startFill=1;curved=1;flowAnimation=1;" edge="1" parent="1" source="8CXxMaMyH3LYBatncUky-3" target="8CXxMaMyH3LYBatncUky-27">
          <mxGeometry relative="1" as="geometry">
            <mxPoint x="550" y="399.9999999999999" as="targetPoint" />
          </mxGeometry>
        </mxCell>
        <mxCell id="8CXxMaMyH3LYBatncUky-32" style="edgeStyle=orthogonalEdgeStyle;rounded=0;orthogonalLoop=1;jettySize=auto;html=1;entryX=0;entryY=0.5;entryDx=0;entryDy=0;flowAnimation=1;" edge="1" parent="1" source="8CXxMaMyH3LYBatncUky-3" target="8CXxMaMyH3LYBatncUky-19">
          <mxGeometry relative="1" as="geometry" />
        </mxCell>
        <mxCell id="8CXxMaMyH3LYBatncUky-33" style="edgeStyle=orthogonalEdgeStyle;rounded=0;orthogonalLoop=1;jettySize=auto;html=1;flowAnimation=1;" edge="1" parent="1" source="8CXxMaMyH3LYBatncUky-3" target="8CXxMaMyH3LYBatncUky-17">
          <mxGeometry relative="1" as="geometry" />
        </mxCell>
        <mxCell id="8CXxMaMyH3LYBatncUky-3" value="" style="verticalLabelPosition=bottom;sketch=0;html=1;fillColor=#A153A0;strokeColor=#ffffff;verticalAlign=top;align=center;points=[[0,0.5,0],[0.125,0.25,0],[0.25,0,0],[0.5,0,0],[0.75,0,0],[0.875,0.25,0],[1,0.5,0],[0.875,0.75,0],[0.75,1,0],[0.5,1,0],[0.125,0.75,0]];pointerEvents=1;shape=mxgraph.cisco_safe.compositeIcon;bgIcon=mxgraph.cisco_safe.design.blank_device;resIcon=mxgraph.cisco_safe.design.ddos_protection;" vertex="1" parent="1">
          <mxGeometry x="450" y="387.6" width="50" height="45" as="geometry" />
        </mxCell>
        <mxCell id="8CXxMaMyH3LYBatncUky-11" value="" style="edgeStyle=orthogonalEdgeStyle;rounded=0;orthogonalLoop=1;jettySize=auto;html=1;fontFamily=Helvetica;flowAnimation=1;" edge="1" parent="1" target="8CXxMaMyH3LYBatncUky-4">
          <mxGeometry relative="1" as="geometry">
            <mxPoint x="120" y="412.5" as="sourcePoint" />
            <mxPoint x="190" y="451" as="targetPoint" />
          </mxGeometry>
        </mxCell>
        <mxCell id="8CXxMaMyH3LYBatncUky-4" value="" style="verticalLabelPosition=bottom;aspect=fixed;html=1;shape=mxgraph.salesforce.work_com2;fillColorStyles=fillColor2,fillColor3;fillColor2=#032e61;fillColor3=#ffffff;fillColor=none;strokeColor=none;" vertex="1" parent="1">
          <mxGeometry x="130" y="470" width="30" height="30" as="geometry" />
        </mxCell>
        <mxCell id="8CXxMaMyH3LYBatncUky-51" value="" style="edgeStyle=orthogonalEdgeStyle;rounded=0;orthogonalLoop=1;jettySize=auto;html=1;flowAnimation=1;" edge="1" parent="1" source="8CXxMaMyH3LYBatncUky-68" target="8CXxMaMyH3LYBatncUky-25">
          <mxGeometry relative="1" as="geometry">
            <Array as="points">
              <mxPoint x="612" y="588" />
              <mxPoint x="700" y="588" />
            </Array>
          </mxGeometry>
        </mxCell>
        <mxCell id="8CXxMaMyH3LYBatncUky-52" style="edgeStyle=orthogonalEdgeStyle;rounded=0;orthogonalLoop=1;jettySize=auto;html=1;flowAnimation=1;" edge="1" parent="1" source="8CXxMaMyH3LYBatncUky-17" target="8CXxMaMyH3LYBatncUky-24">
          <mxGeometry relative="1" as="geometry">
            <Array as="points">
              <mxPoint x="700" y="512" />
              <mxPoint x="700" y="470" />
            </Array>
          </mxGeometry>
        </mxCell>
        <mxCell id="8CXxMaMyH3LYBatncUky-17" value="" style="shape=image;verticalLabelPosition=bottom;labelBackgroundColor=default;verticalAlign=top;aspect=fixed;imageAspect=0;image=data:image/png,iVBORw0KGgoAAAANSUhEUgAABLAAAASwCAYAAADrIbPPAAAQAElEQVR4AezdCZxlV1kv7LVOVXdXJ4GEpDtJ19gZmBIGMSiTekGQQYRP5RIUFZEhCFfDJZh0dRKuxZSuTiAgiDIoiBcHgt4rIJdBIWFGSRCQhCkkXWMTIoRAhh6qzvp2JWSu6q7hDGvv/Zzf3jWcs/da7/u8Fe38qT5pBA8CBAgQIECAAAECBAgQIECg6gL6I1BqAQFWqceneAIECBAgQIAAAQIEOidgJwIECBDoloAAq1vy9iVAgAABAgQI1FFAzwQIECBAgACBVQgIsFaB5hYCBAgQINBNAXsTIECAAAECBAgQqJuAAKtuE9cvAQILAk4CBAgQIECAAAECBAgQKJGAAKtEw8qrVNUQIECAAAECBAgQIECAAAEC1RfIo0MBVh5zUAUBAgQIECBAgAABAgQIVFVAXwQIrFlAgLVmQgsQIECAAAECBAgQINBuAesTIECAQL0FBFj1nr/uCRAgQIAAgfoI6JQAAQIECBAgUFoBAVZpR6dwAgQIEOi8gB0JECBAgAABAgQIEOiGgACrG+r2JFBnAb0TIECAAAECBAgQIECAAIEVCgiwVgiWw+VqIECAAAECBAgQIECAAAECBKovoMM7BARYd1j4igABAgQIECBAgAABAgSqJaAbAgQqIiDAqsggtUGAAAECBAgQIECgPQJWJUCAAAEC3RcQYHV/BiogQIAAAQIEqi6gPwIECBAgQIAAgTUJCLDWxOdmAgQIEOiUgH0IECBAgAABAgQIEKivgACrvrPXef0EdEyAAAECBAgQIECAAAECBEopIMBa0dhcTIAAAQIECBAgQIAAAQIECFRfQIe5CQiwcpuIeggQIECAAAECBAgQIFAFAT0QIECghQICrBZiWooAAQIECBAgQIBAKwWsRYAAAQIECNwqIMC61cFHAgQIECBAoJoCuiJAgAABAgQIEKiAgACrAkPUAgECBNorYHUCBAgQIECAAAECBAh0V0CA1V1/u9dFQJ8ECBAgQIAAAQIECBAgQIDAqgVKE2CtukM3EiBAgAABAgQIECBAgAABAqURUCiBxQQEWIupeI4AAQIECBAgQIAAAQLlFVA5AQIEKicgwKrcSDVEgAABAgQIECCwdgErECBAgAABAjkJCLBymoZaCBAgQIBAlQT0QoAAAQIECBAgQKBFAgKsFkFahgABAu0QsCYBAgQIECBAgAABAgQIhCDA8lNQdQH9ESBAgAABAgQIECBAgAABAiUXWEaAVfIOlU+AAAECBAgQIECAAAECBAgsQ8AlBPIVEGDlOxuVESBAgAABAgQIECBQNgH1EiBAgEBbBARYbWG1KAECBAgQIECAwGoF3EeAAAECBAgQuLuAAOvuIr4nQIAAAQLlF9ABAQIECBAgQIAAgUoJCLAqNU7NECDQOgErESBAgAABAgQIECBAgEAuAgKsXCZRxTr0RIAAAQIECBAgQIAAAQIECFRfoAMdCrA6gGwLAgQIECBAgAABAgQIECBwIAGvESBwYAEB1oF9vEqAAAECBAgQIECAQDkEVEmAAAECFRYQYFV4uFojQIAAAQIECKxMwNUECBAgQIAAgTwFBFh5zkVVBAgQIFBWAXUTIECAAAECBAgQINByAQFWy0ktSIDAWgXcT4AAAQIECBAgQIAAAQIE7iwgwLqzRnW+1gkBAgQIECBAgAABAgQIECBQfYHadCjAqs2oNUqAAAECBAgQIECAAAEC9xTwDAECZRAQYJVhSmokQIAAAQIECBAgkLOA2ggQIECAQJsFBFhtBrY8AQIECBAgQGA5Aq4hQIAAAQIECBBYWkCAtbSNVwgQIECgXAKqJUCAAAECBAgQIECgogICrIoOVlsEVifgLgIECBAgQIAAAQIECBAgkJ+AAKvVM7EeAQIECBAgQIAAAQIECBAgUH0BHXZUQIDVUW6bESBAgAABAgQIECBAgMBtAj4TIEBguQICrOVKuY4AAQIECBAgQIBAfgIqIkCAAAECtRAQYNVizJokQIAAAQIElhbwCgECBAgQIECAQO4CAqzcJ6Q+AgQIlEFAjQQIECBAgAABAgQIEGijgACrjbiWJrASAdcSIECAAAECBAgQIECAAAECiwtUKcBavEPPEiBAgAABAgQIECBAgAABAlUS0EsNBQRYNRy6lgkQIECAAAECBAgQqLuA/gkQIFAuAQFWuealWgIECBAgQIAAgVwE1EGAAAECBAh0TECA1TFqGxEgQIAAAQJ3F/A9AQIECBAgQIAAgeUICLCWo+QaAgQI5CugMgIECBAgQIAAAQIECFReQIBV+RFr8OACriBAgAABAgQIECBAgAABAgRyFmhNgJVzh2ojQIAAAQIECBAgQIAAAQIEWiNgFQJdEhBgdQnetgQIECBAgAABAgQI1FNA1wQIECCwcgEB1srN3EGAAAECBAgQINBdAbsTIECAAAECNRMQYNVs4NolQIAAAQK3CvhIgAABAgQIECBAoDwCAqzyzEqlBAjkJqAeAgQIECBAgAABAgQIEOiIgACrI8w2WUrA8wQIECBAgAABAgQIECBAgED1BdbaoQBrrYLuJ0CAAAECBAgQIECAAAEC7RewA4FaCwiwaj1+zRMgQIAAAQIECBCok4BeCRAgQKCsAgKssk5O3QQIECBAgACBbgjYkwABAgQIECDQBQEBVhfQbUmAAAEC9RbQPQECBAgQIECAAAECKxMQYK3My9UECOQhoAoCBAgQIECAAAECBAgQqJGAAKtGw75rq74jQIAAAQIECBAgQIAAAQIEqi9QjQ4FWNWYoy4IECBAgAABAgQIECBAoF0C1iVAoOsCAqyuj0ABBAgQIECAAAECBKovoEMCBAgQILAWAQHWWvTcS4AAAQIECBDonICdCBAgQIAAAQK1FRBg1Xb0GidAgEAdBfRMgAABAgQIECBAgEAZBQRYZZyamgl0U8DeBAgQIECAAAECBAgQIECgwwICrA6DL2znJECAAAECBAgQIECAAAECBKovoMPWCQiwWmdpJQIECBAgQIAAAQIECBBorYDVCBAgcIuAAOsWBh8IECBAgAABAgQIVFVAXwQIECBAoPwCAqzyz1AHBAgQIECAQLsFrE+AAAECBAgQINBVAQFWV/ltToAAgfoI6JQAAQIECBAgQIAAAQKrFRBgrVbOfQQ6L2BHAgQIECBAgAABAgQIECBQS4GaBVi1nLGmCRAgQIAAAQIECBAgQIBAzQS0WzUBAVbVJqofAgQIECBAgAABAgQItELAGgQIEMhIQICV0TCUQoAAAQIECBAgUC0B3RAgQIAAAQKtERBgtcbRKgQIECBAgEB7BKxKgAABAgQIECBAIAiw/BAQIECg8gIaJECAAAECBAgQIECAQLkFBFjlnp/qOyVgHwIECBAgQIAAAQIECBAgQKBrAh0LsLrWoY0JECBAgAABAgQIECBAgACBjgnYiEA7BARY7VC1JgECBAgQIECAAAECBFYv4E4CBAgQuJuAAOtuIL4lQIAAAQIECBCogoAeCBAgQIAAgSoJCLCqNE29ECBAgACBVgpYiwABAgQIECBAgEAmAgKsTAahDAIEqimgKwIECBAgQIAAAQIECBBYu4AAa+2GVmivgNUJECBAgAABAgQIECBAgACB6gscsEMB1gF5vEiAAAECBAgQIECAAAECBMoioE4C1RUQYFV3tjojQIAAAQIECBAgQGClAq4nQIAAgSwFBFhZjkVRBAgQIECAAIHyCqicAAECBAgQINBqAQFWq0WtR4AAAQIE1i5gBQIECBAgQIAAAQIE7iQgwLoThi8JEKiSgF4IECBAgAABAgQIECBAoCoCAqyqTLIdfViTAAECBAgQIECAAAECBAgQqL5ACToUYJVgSEokQIAAAQIECBAgQIAAgbwFVEeAQHsFBFjt9bU6AQIECBAgQIAAAQLLE3AVAQIECBBYUkCAtSSNFwgQIECAAAECZRNQLwECBAgQIECgmgICrGrOVVcECBAgsFoB9xEgQIAAAQIECBAgkJ2AACu7kSiIQPkFdECAAAECBAgQIECAAAECBFopIMBqpWbr1rISAQIECBAgQIAAAQIECBAgUH0BHS5TQIC1TCiXESBAgAABAgQIECBAgECOAmoiQKAOAgKsOkxZjwQIECBAgAABAgQOJOA1AgQIECCQuYAAK/MBKY8AAQIECBAoh4AqCRAgQIAAAQIE2icgwGqfrZUJECBAYGUCriZAgAABAgQIECBAgMCiAgKsRVk8SaCsAuomQIAAAQIECBAgQIAAAQLVExBg3X2mvidAgAABAgQIECBAgAABAgSqL6DDUgkIsEo1LsUSIECAAAECBAgQIEAgHwGVECBAoFMCAqxOSduHAAECBAgQIECAwD0FPEOAAAECBAgsQ0CAtQwklxAgQIAAAQI5C6iNAAECBAgQIECg6gICrKpPWH8ECBBYjoBrCBAgQIAAAQIECBAgkLGAACvj4SitXAKqJUCAAAECBAgQIECAAAECBNojkFOA1Z4OrUqAAAECBAgQIECAAAECBAjkJKAWAisWEGCtmMwNBAgQIECAAAECBAgQ6LaA/QkQIFAvAQFWveatWwIECBAgQIAAgdsEfCZAgAABAgRKIyDAKs2oFEqAAAECBPITUBEBAgQIECBAgACBTggIsDqhbA8CBAgsLeAVAgQIECBAgAABAgQIEDiIgADrIEBeLoOAGgkQIECAAAECBAgQIECAAIEqC9waYFW5Q70RIECAAAECBAgQIECAAAECtwr4SKCkAgKskg5O2QQIECBAgAABAgQIdEfArgQIECDQeQEBVufN7UiAAAECBAgQqLuA/gkQIECAAAECKxIQYK2Iy8UECBAgQCAXAXUQIECAAAECBAgQqI+AAKs+s9YpAQJ3F/A9AQIECBAgQIAAAQIECJRCQIBVijHlW6TKCBAgQIAAAQIECBAgQIAAgeoLdLtDAVa3J2B/AgQIECBAgAABAgQIEKiDgB4JEFiDgABrDXhuJUCAAAECBAgQIECgkwL2IkCAAIG6Cgiw6jp5fRMgQIAAAQL1FNA1AQIECBAgQKCEAgKsEg5NyQQIECDQXQG7EyBAgAABAgQIECDQWQEBVme97UaAwK0CPhIgQIAAAQIECBAgQIAAgWULCLCWTZXbheohQIAAAQIECBAgQIAAAQIEqi+gwwUBAdaCgpMAAQIECBAgQIAAAQIEqiugMwIESi8gwCr9CDVAgAABAgQIECBAoP0CdiBAgAABAt0UEGB1U9/eBAgQIECAQJ0E9EqAAAECBAgQILBKAQHWKuHcRoAAAQLdELAnAQIECBAgQIAAAQJ1FBBg1XHqeq63gO4JECBAgAABAgQIECBAgEDJBARYqxiYWwgQIECAAAECBAgQIECAAIHqC+gwHwEBVj6zUAkBAgQIECBAgAABAgSqJqAfAgQItERAgNUSRosQIECAAAECBAgQaJeAdQkQIECAAAEBlp8BAgQIECBAoPoCOiRAw/yPxwAAEABJREFUgAABAgQIECi1gACr1ONTPAECBDonYCcCBAgQIECAAAECBAh0S0CA1S15+9ZRQM8ECBAgQIAAAQIECBAgQIDAKgRKFmCtokO3ECBAgAABAgQIECBAgAABAiUTUC6BuwoIsO7q4TsCBAgQIECAAAECBAhUQ0AXBAgQqJCAAKtCw9QKAQIECBAgQIBAawWsRoAAAQIECOQhIMDKYw6qIECAAAECVRXQFwECBAgQIECAAIE1Cwiw1kxoAQIECLRbwPoECBAgQIAAAQIECBCot4AAq97zr0/3OiVAgAABAgQIECBAgAABAgRKK7DsAKu0HSqcAAECBAgQIECAAAECBAgQWLaACwnkKCDAynEqaiJAgAABAgQIECBAoMwCaidAgACBFgsIsFoMajkCBAgQIECAAIFWCFiDAAECBAgQIHCHgADrDgtfESBAgACBagnohgABAgQIECBAgEBFBARYFRmkNggQaI+AVQkQIECAAAECBAgQIECg+wICrO7PoOoV6I8AAQIECBAgQIAAAQIECBCovkBbOxRgtZXX4gQIECBAgAABAgQIECBAYLkCriNAYCkBAdZSMp4nQIAAAQIECBAgQKB8AiomQIAAgUoKCLAqOVZNESBAgAABAgRWL+BOAgQIECBAgEBuAgKs3CaiHgIECBCogoAeCBAgQIAAAQIECBBooYAAq4WYliJAoJUC1iJAgAABAgQIECBAgAABArcKCLBudajmR10RIECAAAECBAgQIECAAAEC1ReoQYcCrBoMWYsECBAgQIAAAQIECBAgcGABrxIgkLeAACvv+aiOAAECBAgQIECAQFkE1EmAAAECBNomIMBqG62FCRAgQIAAAQIrFXA9AQIECBAgQIDAYgICrMVUPEeAAAEC5RVQOQECBAgQIECAAAEClRMQYFVupBoisHYBKxAgQIAAAQIECBAgQIAAgZwEBFjtmYZVCRAgQIAAAQIECBAgQIAAgeoL6LBDAgKsDkHbhgABAgQIECBAgAABAgQWE/AcAQIEDi4gwDq4kSsIECBAgAABAgQI5C2gOgIECBAgUHEBAVbFB6w9AgQIECBAYHkCriJAgAABAgQIEMhXQICV72xURoAAgbIJqJcAAQIECBAgQIAAAQJtERBgtYXVogRWK+A+AgQIECBAgAABAgQIECBA4O4C1Quw7t6h7wkQIECAAAECBAgQIECAAIHqCeioVgICrFqNW7MECBAgQIAAAQIECBC4Q8BXBAgQKIuAAKssk1InAQIECBAgQIBAjgJqIkCAAAECBDogIMDqALItCBAgQIAAgQMJeI0AAQIECBAgQIDAgQUEWAf28SoBAgTKIaBKAgQIECBAgAABAgQIVFhAgFXh4WptZQKuJkCAAAECBAgQIECAAAECBPIUaGWAlWeHqiJAgAABAgQIECBAgAABAgRaKWAtAh0XEGB1nNyGBAgQIECAAAECBAgQIECAAAECKxEQYK1Ey7UECBAgQIAAAQL5CKiEAAECBAgQqI2AAKs2o9YoAQIECBC4p4BnCBAgQIAAAQIECJRBQIBVhimpkQCBnAXURoAAAQIECBAgQIAAAQJtFhBgtRnY8ssRcA0BAgQIECBAgAABAgQIECBQfYHVdyjAWr2dOwkQIECAAAECBAgQIECAQGcF7EagpgICrJoOXtsECBAgQIAAAQIE6iqgbwIECBAon4AAq3wzUzEBAgQIECBAoNsC9idAgAABAgQIdFRAgNVRbpsRIECAAIHbBHwmQIAAAQIECBAgQGC5AgKs5Uq5jgCB/ARURIAAAQIECBAgQIAAAQK1EBBg1WLMSzfpFQIECBAgQIAAAQIECBAgQKD6AmXvUIBV9gmqnwABAgQIECBAgAABAgQ6IWAPAgS6KCDA6iK+rQkQIECAAAECBAjUS0C3BAgQIEBgdQICrNW5uYsAAQIECBAg0B0BuxIgQIAAAQIEaiggwKrh0LVMgACBugvonwABAgQIECBAgACBcgkIsMo1L9USyEVAHQQIECBAgAABAgQIECBAoGMCAqyOUd99I98TIECAAAECBAgQIECAAAEC1RfQYSsEBFitULQGAQIECBAgQIAAAQIECLRPwMoECNReQIBV+x8BAAQIECBAgAABAnUQ0CMBAgQIECizgACrzNNTOwECBAgQINBJAXsRIECAAAECBAh0SUCA1SV42xIgQKCeAromQIAAAQIECBAgQIDAygUEWCs3cweB7grYnQABAgQIECBAgAABAgQI1EyglgFWzWasXQIECBAgQIAAAQIECBAgUEsBTVdHQIBVnVnqhAABAgQIECBAgAABAq0WsB4BAgSyEBBgZTEGRRAgQIAAAQIECFRXQGcECBAgQIDAWgUEWGsVdD8BAgQIECDQfgE7ECBAgAABAgQI1FpAgFXr8WueAIE6CeiVAAECBAgQIECAAAECZRUQYJV1curuhoA9CRAgQIAAAQIECBAgQIAAgS4IdDjA6kKHtiRAgAABAgQIECBAgAABAgQ6LGA7Aq0VEGC11tNqBAgQIECAAAECBAgQaI2AVQgQIEDgdgEB1u0UviBAgAABAgQIEKiagH4IECBAgACBaggIsKoxR10QIECAAIF2CViXAAECBAgQIECAQNcFBFhdH4ECCBCovoAOCRAgQIAAAQIECBAgQGAtAgKstei5t3MCdiJAgAABAgQIECBAgAABAgSqL7BEhwKsJWA8TYAAAQIECBAgQIAAAQIEyiigZgJVFBBgVXGqeiJAgAABAgQIECBAYC0C7iVAgACBzAQEWJkNRDkECBAgQIAAgWoI6IIAAQIECBAg0DoBAVbrLK1EgAABAgRaK2A1AgQIECBAgAABAgRuERBg3cLgAwECVRXQFwECBAgQIECAAAECBAiUX0CAVf4ZtrsD6xMgQIAAAQIECBAgQIAAAQLVF8i6QwFW1uNRHAECBAgQIECAAAECBAiUR0ClBAi0S0CA1S5Z6xIgQIAAAQIECBAgsHIBdxAgQIAAgUUEBFiLoHiKAAECBAgQIFBmAbUTIECAAAECBKomIMCq2kT1Q4AAAQKtELAGAQIECBAgQIAAAQIZCQiwMhqGUghUS0A3BAgQIECAAAECBAgQIECgNQICrNY4tmcVqxIgQIAAAQIECBAgQIAAAQLVF9DhQQUEWAclcgEBAgQIECBAgAABAgQI5C6gPgIEqi0gwKr2fHVHgAABAgQIECBAYLkCriNAgAABAtkKCLCyHY3CCBAgQIAAgfIJqJgAAQIECBAgQKAdAgKsdqhakwABAgRWL+BOAgQIECBAgAABAgQI3E1AgHU3EN8SqIKAHggQIECAAAECBAgQIECAQJUEBFiLT9OzBAgQIECAAAECBAgQIECAQPUFdFgSAQFWSQalTAIECBAgQIAAAQIECOQpoCoCBAi0X0CA1X5jOxAgQIAAAQIECBA4sIBXCRAgQIAAgQMKCLAOyONFAgQIECBAoCwC6iRAgAABAgQIEKiugACrurPVGQECBFYq4HoCBAgQIECAAAECBAhkKSDAynIsiiqvgMrXInDca685ZnjHxCnD503/yvD49KlDO6afW5y/P7Rz90ucDPwM+BnwM+BnwM9AdX4GBs75xu8f/cJLXuLMyeDi39/8woufu/lFFz9r0/MvedqmF1388E2nfWpLGBvz74xr+QOuewkQaJlAfv/HqGWtWYgAgdwE+sdmDxken/i5kR0zLygCqjcM75x5//D4zBeLc7r4em6+Z+67IfZeGhrxgyHE98YY31Wcfx5T8y1OBn4G/Az4GfAz4GegOj8DIaQ/SSG8xZmTQfzz4s9f7wrN+PexET4Qm/GLxT9zs5tnHrd/8wsvmd182iVf2vzCT/7z5tMu/tMi6HrpUc//xOPvc9qlhwcPAmsRcC+BFQgIsFaA5VICBFYikOLAedNHFWHVw4bGp88Y3jH98d6+dEMIvZ9OMbwjhPg/QwpPDyE8vDgHiq97is8OAgQIECBAgACBFQi0/9LUKPbYUvxZ7WFF8PjUkOL/CCG+sdFo/GtvuuGHC8HW0S/45B8f84KLH7npeZ/pD2O3XB88CBAg0GqBhf9j1Oo1rUeAQK0FUhw6b/Lnh3fMfrqnEaZTI34xhvj6EOMvFiyxOB0ECBAgQCAnAbUQILAWgRQelmIaa4b4udgzd9XRM5d8ddMLLvnN8MyL/I+Ta3F1LwEC9xAQYN2DxBMECKxGYHjn9OOHx2feWwRXE7HR88kQw2NCiH0hJX94CR4Eqi6gPwIECBCovUAs/vQXwoYU4skxhr/ddMTR39t82iUfPvqFF/9W8efBWHsfAAQIrFlAgLVmQgsQqK/AyBuu3TK8Y+q0Irz6z5DivxYSpxZ/dBkqPvtDSoGwosPFBAgQIECAAIEKCRR/GDwypPDkItB6z+bTPrl78wsv2b75RZ+8b4Va1AoBAh0WEGB1GNx27ROwcqcEUjx+/AeHD+2YfU3au+/qEBtvCyk+qFO724cAAQIECBAgQKB0AscUFZ8Xmumbm174yfcc8/sfPdp/3bAQcRAgsCKBOwdYK7rRxQQI1E/glv+K4I7ZN86Fm78VYzqnENhQnA4CBAgQIECAAAECyxGIMaTfas5v+Pbmmce+d9Npn9qynJtc0xYBixIonYAAq3QjUzCBzgtsHvveYcPjUy/t7WteGWI4vajg6OJ0ECBAgAABAgRqLKD1NQjcu7j3v8fU/PrmF1zy2lt+I6t4wkGAAIEDCQiwDqTjNQK1F0hxYOf0Iw/p239pCI03hhD9r2TBgwABAgRaJmAhAgTqLnB48T+Ont2c7/vaptM+8VT/5cK6/zjon8CBBRoHftmrBAjUVWDwwqmNw+Mz7+tJ8ZMphPvX1UHfBHIXUB8BAgQIECi/QNocU+OfNh1x9OeOeO7FR5S/Hx0QINAOAQFWO1StSaDkAiPjU0/p2df4jxDiM0II64uzyofeCBAgQIAAAQIEui/QG0P42XXr4n8e9YKLf7v75aiAAIHcBARYuU2klPUouioCJ74pbRjeOfPHKTQ+4LeuqjJVfRAgQIAAAQIESiUw2IjxrzeddsmfbX7JxYeVqnLFEqiFQPeaFGB1z97OBLIS2Dp29RH7b5z5SkhhLITQW5wOAgQIECBAgAABAt0QiDGFF4f98TtFiHVsNwpo654WJ0BgVQKNVd3lJgIEKiUwfP7MY5ob1v9HitF7XVVqspohQIAAAQLVFNBVbQSOLkKsy45+4SeeVJuONUqAwJICAqwlabxAoAYCY2ONrTtnfzU0w/tDDFuDBwECBAjURUCfBAgQKItAfwqN9256/ief7b9SWJaRqZNAewQEWO1xtSqB/AXGUmNowwue00zp/xTFHlWcDgIEViTgYgIECBAgQKBDAofHRnrPMfc59veEWB0Stw2BDAUEWBkORUkEOiEwsnFme4zxHcVesTi7c9iVAAECBAgQIECAwPIEYjM133r04ZtfsbzLXWjW50YAABAASURBVEWAQNUEBFgln6jyCaxY4KLUM7Rj+lUpNf64uNebtRcIDgIECBAgQIAAgVII9KQYz9l02sVjfhOrFPNSZIsF6r6cAKvuPwH6r5fAQnh11cxpMcazQ0jr6tW8bgkQIECAAAECBCog0BtDPGeVf52wAu1rgUB9BQRY9Z29zmsoMHzl9POK/4f/lqL1nuJ0ECBAgAABAgRWKOByAhkIpNDbTM23H3OfY56VQTVKIECgQwICrA5B24ZAtwWGd07/99BovKGoIxangwABAgS6JWBfAgQIEGiFQGym9GdHnvbJJ7ZiMWsQIJC/gAAr/xmpkMCaBY7bOXP/kOKfFwsdWpwOAqUX0AABAgQIECBAoBA4vCeld2067SNbiq8dBAhUXECAVfEBa4/Aieft3jyfwpdDCJuK87bDZwIECBAgQIAAAQJVEOiPqe+yzS+5+LAqNKMHAgSWFhBgLW1zkFe8TKAMAinui/N/VVTaV5wOAgQIECBAgAABAlUU2BL2x51VbExPuQioIwcBAVYOU1ADgTYJjOycOTfE+MttWt6yBAgQIECAAAECBJYn0P6rXrzptE8+u/3b2IEAgW4JCLC6JW9fAm0WWHjfq5TitjZvY3kCBAgQIECgQwK2IUDggAIxpub5Rzz34iMOeJUXCRAorYAAq7SjUziBpQVOfNP37z2fwieKK7xpe4HgIECAwE8EfCJAgACBSgvEgXXrwofDMy/qqXSbmiNQUwEBVk0Hr+1qC+y74aaXFx36r7EUCI5WC1iPAAECBAgQIJCzQHz45sM3PSnnCtVGgMDqBARYq3NzF4HVC7T5zq07v/vI0Gi8otgmFqeDAAECBAgQIECAQJ0EekNs/FX/aRdvqlPTeiVQB4FSBlh1GIweCaxOIMVmc+7Vxb3CqwLBQYAAAQIECBAgUEuBzXMhnl7LzivYtJYI3CYgwLpNwmcCFRAYPn/md0KMv1iBVrRAgAABAgQIECDQGoFarpJSOn3TaZ/ylhq1nL6mqyogwKrqZPVVO4GtY1f3hWbjj4vG/XNdIDgIECBAgEDrBKxEgED5BOLhsTn/hjA25s/G5RueigksKuAf5kVZPEmgfAJpQ+8zQkjHl69yFRMgUAsBTRIgQIAAgU4LxPjkYyd+8ahOb2s/AgTaIyDAao+rVQl0VKB/bHZTio13dHRTm3VcwIYECBAgQIAAAQIrEjh8bl3zwhXd4WICBLIVEGBlOxqFtUGgskv2bpj/9aK5jcXpIECAAAECBAgQIEDgJwIxhd/a/PyLT/zJtz4RIFBigRUGWCXuVOkEKipwytvSuhAbL61oe9oiQIAAAQIECBAgsBaBGBrhGcFjFQJuIZCXgAArr3mohsCKBf7rh7tPLW46qTgdBAgQIECAAAECOQmoJReBl4WUYi7FqIMAgdUJCLBW5+YuAtkIpJSem00xCiFAgAABAi0WsBwBAgTWLhCPOeaFn1r4H33XvpQVCBDomoAAq2v0NiawdoHjx79zeLHKI4rTQYAAgaUEPE+AAAECBGov0Izpd2uPAIBAyQUEWCUfoPLrLbA/9J1bCNyrOB1tFbA4AQIECBAgQIBAyQV+Jowl//5b8iEqv94C/gGu9/w7172dWi6weezyw2JIL2z5whYkQIAAAQIECBAgUD2BTZunP73wX+6uXmc6IpCbQJvqEWC1CdayBNotsL7v8BNCiIcFDwIECBAgQIAAAQIEDioQG80/DiX5LayDNuMCAjUUEGDVcOharoZAT0pPLjrpKU4HAQIECBAgQIDAXQV8R+AeAimF+26a/fQx93jBEwQIlEJAgFWKMSmSwGICjecs9qznCBAgQIBAawSsQoAAgaoJxHWpEYaq1pV+CNRFQIBVl0nrs1ICg6+eum9oxAdWqinNEKiigJ4IECBAgACBjARSo2e+ufC3GDKqSSkECCxXQIC1XCnXEchIoGd94xdCSjGjktpWioUJECBAgAABAgQItEoghfArrVrLOgQIdFZAgNVZ727sZs8KCqRmfHgF29ISAQIECBAgQIAAgXYL/Mx9Trv08HZvYn0CXRKo9LYCrEqPV3OVFYjpIZXtTWMECBAgQIAAAQIE2ijQaF5/ytLLe4UAgVwFBFi5TkZdBJYUWPirg+mkJV/2AgECBAgQIECgmwL2JpC5QCP0ei/Z4EGgfAICrPLNTMU1Fxg8f/rEEOIRwYMAAQIEKiugMQIECBBoo0BsPqCNq1uaAIE2CQiw2gRrWQLtEmjMh8e1a23rEqiQgFYIECBAgAABAksIxK1LvOBpAgQyFhBgZTwcpRFYXKDxqMWfb/Wz1iNAgAABAgQIECBQSYH+SnalKQIVFxBgtXPA1ibQeoEYYjy59ctakQABAgQIECBAgEBtBLbUplONdk7ATm0XEGC1ndgGBFoncNLY5euK1Y4sTgcBAgQIECBAgACBSgl0sJljQlr4DyN1cEdbESCwZgEB1poJLUCgcwLXhs3rQ0h9ndvRTgQIECBAgECJBJRKgMDyBBqb/8clxyzvUlcRIJCLgAArl0mog8AyBA49/MbeGEIRYi3jYpcQIECAwCoE3EKAAAECdRBI+3oH6tCnHglUSUCAVaVp6qXyAvvmN/SmGBb+GmHle9VgiQWUToAAAQIECBDIXSDOeR+s3GekPgJ3ExBg3Q3EtwRyEFiqhg17e3pCEmAt5eN5AgQIECBAgAABAssRiKFxSPAgQKBUAlUNsEo1BMUSWK5AM9y88M/swrncW1xHgAABAgQIECBAgMDdBZph492f8n1pBRReEwH/IlyTQWuzGgLN3kNjCMk/t9UYpy4IECBAgAABApkI1K+M2GgKsOo3dh2XXMC/CJd8gMqvl0BaF4sAa+GsV9+6JUCAAAEC2QsokACBkgn4H4VLNjDlEggCLD8EBAgQIECAQBYCiiBAgAABAgQIECCwlIAAaykZzxMgQKB8AiomQIAAAQIECBAgQIBAJQUEWJUcq6ZWL+BOAgQIECBAgAABAgQIECBAIDeB1gdYuXWoHgIECBAgQIAAAQIECBAgQKD1AlYk0EEBAVYHsW1FgAABAgQIECBAgACBOwv4mgABAgSWJyDAWp6TqwgQIECAAAECBPIUUBUBAgQIECBQAwEBVg2GrEUCBAgQIHBgAa8SIECAAAECBAgQyFtAgJX3fFRHgEBZBNRJgAABAgQIECBAgAABAm0TEGC1jdbCKxVwPQECBAgQIECAAAECBAgQIFB9gdV0KMBajZp7CBAgQIAAAQIECBAgQIBA9wTsTKB2AgKs2o1cwwQIECBAgAABAgQIhMCAAAECBMokIMAq07TUSoAAAQIECBDISUAtBAgQIECAAIEOCQiwOgRtGwIECBAgsJiA5wgQIECAAAECBAgQOLiAAOvgRq4gQCBvAdURIECAAAECBAgQIECAQMUFBFgVH/Dy2nMVAQIECBAgQIAAAQIECBAgUH2B8nYowCrv7FROgAABAgQIECBAgAABAp0WsB8BAl0REGB1hd2mBAgQIECAAAECBOoroHMCBAgQILBSAQHWSsVcT4AAAQIECBDovoAKCBAgQIAAAQK1EhBg1WrcmiVAgACBOwR8RYAAAQIECBAgQIBAWQQEWGWZlDoJ5CigJgIECBAgQIAAAQIECBAg0AEBAVYHkA+0hdcIECBAgAABAgQIECBAgACB6gvocG0CAqy1+bmbAAECBAgQIECAAAECBDojYBcCBGosIMCq8fC1ToAAAQIECBAgUDcB/RIgQIAAgXIKCLDKOTdVEyBAgAABAt0SsC8BAgQIECBAgEDHBQRYHSe3IQECBAgQIECAAAECBAgQIECAwEoEBFgr0XItgXwEVEKAAAECBAgQIECAAAECBGojUOMAqzYz1igBAgQIECBAgAABAgQIEKixgNarICDAqsIU9UCAAAECBAgQIECAAIF2ClibAAECXRYQYHV5ALYnQIAAAQIECBCoh4AuCRAgQIAAgdULCLBWb+dOAgQIECBAoLMCdiNAgAABAgQIEKipgACrpoPXNgECdRXQNwECBAgQIECAAAECBMonIMAq38xU3G0B+xMgQIAAAQIECBAgQIAAAQIdFehKgNXRDm1GgAABAgQIECBAgAABAgQIdEXApgRaJSDAapWkdQgQIECAAAECBAgQINB6ASsSIECAQCEgwCoQHAQIECBAgAABAlUW0BsBAgQIECBQdgEBVtknqH4CBAgQINAJAXsQIECAAAECBAgQ6KKAAKuL+LYmQKBeArolQIAAAQIECBAgQIAAgdUJCLBW5+au7gjYlQABAgQIECBAgAABAgQIEKi+wD06FGDdg8QTBAgQIECAAAECBAgQIECg7ALqJ1AtAQFWteapGwIECBAgQIAAAQIEWiVgHQIECBDIRkCAlc0oFEKAAAECBAgQqJ6AjggQIECAAAECrRAQYLVC0RoECBAgQKB9AlYmQIAAAQIECBAgUHsBAVbtfwQAEKiDgB4JECBAgAABAgQIECBAoMwCAqwyT6+TtduLAAECBAgQIECAAAECBAgQqL5Aph0KsDIdjLIIECBAgAABAgQIECBAoJwCqiZAoPUCAqzWm1qRAAECBAgQIECAAIG1CbibAAECBAjcRUCAdRcO3xAgQIAAAQIEqiKgDwIECBAgQIBAdQQEWNWZpU4IECBAoNUC1iNAgAABAgQIECBAIAsBAVYWY1AEgeoK6IwAAQIECBAgQIAAAQIECKxVQIC1VsH2328HAgQIECBAgAABAgQIECBAoPoCOjyAgADrADheIkCAAAECBAgQIECAAIEyCaiVAIGqCgiwqjpZfREgQIAAAQIECBBYjYB7CBAgQIBAhgICrAyHoiQCBAgQIECg3AKqJ0CAAAECBAgQaK2AAKu1nlYjQIAAgdYIWIUAAQIECBAgQIAAAQK3CwiwbqfwBYGqCeiHAAECBAgQIECAAAECBAhUQ0CAdaA5eo0AAQIECBAgQIAAAQIECBCovoAOsxcQYGU/IgUSIECAAAECBAgQIEAgfwEVEiBAoJ0CAqx26lqbAAECBAgQIECAwPIFXEmAAAECBAgsISDAWgLG0wQIECBAgEAZBdRMgAABAgQIECBQRQEBVhWnqicCBAisRcC9BAgQIECAAAECBAgQyExAgJXZQJRTDQFdECBAgAABAgQIECBAgAABAq0TyDXAal2HViJAgAABAgQIECBAgAABAgRyFVAXgWUJCLCWxeQiAgQIECBAgAABAgQI5CqgLgIECFRfQIBV/RnrkAABAgQIECBA4GACXidAgAABAgSyFhBgZT0exREgQIAAgfIIqJQAAQIECBAgQIBAuwQEWO2StS4BAgRWLuAOAgQIECBAgAABAgQIEFhEQIC1CIqnyiygdgIECBAgQIAAAQIECBAgQKBqAvcMsKrWoX4IECBAgAABAgQIECBAgACBewp4hkCJBARYJRqWUgkQIECAAAECBAgQyEtANQQIECDQGQFbhNydAAAQAElEQVQBVmec7UKAAAECBAgQILC4gGcJECBAgAABAgcVEGAdlMgFBAgQIEAgdwH1ESBAgAABAgQIEKi2gACr2vPVHQECyxVwHQECBAgQIECAAAECBAhkKyDAynY05StMxQQIECBAgAABAgQIECBAgED1BbrRoQCrG+r2JECAAAECBAgQIECAAIE6C+idAIEVCgiwVgjmcgIECBAgQIAAAQIEchBQAwECBAjUSUCAVadp65UAAQIECBAgcGcBXxMgQIAAAQIESiIgwCrJoJRJgAABAnkKqIoAAQIECBAgQIAAgfYLCLDab2wHAgQOLOBVAgQIECBAgAABAgQIECBwQAEB1gF5yvKiOgkQIECAAAECBAgQIECAAIHqC9S3QwFWfWevcwIECBAgQIAAAQIECNRPQMcECJRSQIBVyrEpmgABAgQIECBAgED3BOxMgAABAgQ6LSDA6rS4/QgQIECAAAECITAgQIAAAQIECBBYgYAAawVYLiVAgACBnATUQoAAAQIECBAgQIBAXQQEWHWZtD4JLCbgOQIECBAgQIAAAQIECBAgUAIBAdYah+R2AgQIECBAgAABAgQIECBAoPoCOuyugACru/52J0CAAAECBAgQIECAQF0E9EmAAIFVCwiwVk3nRgIECBAgQIAAAQKdFrAfAQIECBCop4AAq55z1zUBAgQIEKivgM4JECBAgAABAgRKJyDAKt3IFEyAAIHuC6iAAAECBAgQIECAAAECnRQQYHVS214E7hDwFQECBAgQIECAAAECBAgQILBMgRIHWMvs0GUECBAgQIAAAQIECBAgQIBAiQWUTiAEAZafAgIECBAgQIAAAQIECFRdQH8ECBAouYAAq+QDVD4BAgQIECBAgEBnBOxCgAABAgQIdE9AgNU9ezsTIECAAIG6CeiXAAECBAgQIECAwKoEBFirYnMTAQIEuiVgXwIECBAgQIAAAQIECNRPQIBVv5nrmAABAgQIECBAgAABAgQIECBQKoFVBVil6lCxBAgQIECAAAECBAgQIECAwKoE3EQgFwEBVi6TUAcBAgQIECBAgAABAlUU0BMBAgQItEBAgNUCREsQIECAAAECBAi0U8DaBAgQIECAQN0FBFh1/wnQPwECBFYkED8VQvpdZwkNzM3PrZ8BPwMZ/Qwctfmyvzj+IR/b52TQrZ+BrQ/+l/kV/RHIxQQIdF1AgNX1ESiAAIGyCKiziK1CunJydPCvnQz8DPgZ8DPgZ2AtPwPDW//x3zYPXrHeyaBbPwPHDFzR4892BAiUS0CAVa55lb1a9RMgQIAAAQIECBAgQIAAAQLVF2h5hwKslpNakAABAgQIECBAgAABAgQIrFXA/QQI3FlAgHVnDV8TIECAAAECBAgQIFAdAZ0QIECAQGUEBFiVGaVGCBAgQIAAAQKtF7AiAQIECBAgQCAHAQFWDlNQAwECBAhUWUBvBAgQIECAAAECBAisUUCAtUZAtxMg0AkBexAgQIAAAQIECBAgQIBAnQUEWHWZvj4JECBAgAABAgQIECBAgACB6gtUtEMBVkUHqy0CBAgQIECAAAECBAgQWJ2AuwgQyE9AgJXfTFREgAABAgQIECBAoOwC6idAgAABAi0VEGC1lNNiBAgQIECAAIFWCViHAAECBAgQIEDgNgEB1m0SPhMgQIBA9QR0RIAAAQIECBAgQIBAJQQEWJUYoyYItE/AygQIECBAgAABAgQIECBAoNsCAqz2T8AOBAgQIECAAAECBAgQIECAQPUFdNhGAQFWG3EtTYAAAQIECBAgQIAAAQIrEXAtAQIEFhcQYC3u4lkCBAgQIECAAAEC5RRQNQECBAgQqKCAAKuCQ9USAQIECBAgsDYBdxMgQIAAAQIECOQlIMDKax6qIUCAQFUE9EGAAAECBAgQIECAAIGWCQiwWkZpIQKtFrAeAQIECBAgQIAAAQIECBAgsCBQ7QBroUMnAQIECBAgQIAAAQIECBAgUG0B3VVeQIBV+RFrkAABAgQIECBAgAABAgcXcAUBAgRyFhBg5TwdtREgQIAAAQIECJRJQK0ECBAgQIBAmwQEWG2CtSwBAgQIECCwGgH3ECBAgAABAgQIELingADrniaeIUCAQLkFVE+AAAECBAgQIECAAIGKCQiwKjZQ7bRGwCoECBAgQIAAAQIECBAgQIBAPgLtCrDy6VAlBAgQIECAAAECBAgQIECAQLsErEugIwICrI4w24QAAQIECBAgQIAAAQJLCXieAAECBA4mIMA6mJDXCRAgQIAAAQIE8hdQIQECBAgQIFBpAQFWpcerOQIECBAgsHwBVxIgQIAAAQIECBDIVUCAletk1EWAQBkF1EyAAAECBAgQIECAAAECbRAQYLUB1ZJrEXAvAQIECBAgQIAAAQIECBAgUH2BlXUowFqZl6sJECBAgAABAgQIECBAgEAeAqogUCMBAVaNhq1VAgQIECBAgAABAgTuKuA7AgQIECiHgACrHHNSJQECBAgQIEAgVwF1ESBAgAABAgTaLiDAajuxDQgQIECAwMEEvE6AAAECBAgQIECAwIEEBFgH0vEaAQLlEVApAQIECBAgQIAAAQIECFRWQIBV2dGuvDF3ECBAgAABAgQIECBAgAABAtUXKGOHAqwyTk3NBAgQIECAAAECBAgQINBNAXsTINBhAQFWh8FtR4AAAQIECBAgQIDAgoCTAAECBAgsX0CAtXwrVxIgQIAAAQIE8hJQDQECBAgQIECgJgICrJoMWpsECBAgsLiAZwkQIECAAAECBAgQyF9AgJX/jFRIIHcB9REgQIAAAQIECBAgQIAAgbYKCLDayrvcxV1HgAABAgQIECBAgAABAgQIVF9Ah6sVEGCtVs59BAgQIECAAAECBAgQINB5ATsSIFBLAQFWLceuaQIECBAgQIAAgToL6J0AAQIECJRNQIBVtomplwABAgQIEMhBQA0ECBAgQIAAAQIdFBBgdRDbVgQIECBwZwFfEyBAgAABAgQIECBAYHkCAqzlObmKQJ4CqiJAgAABAgQIECBAgAABAjUQqH2AVYMZa5EAAQIECBAgQIAAAQIECNReAEC5BQRY5Z6f6gkQIECAAAECBAgQINApAfsQIECgawICrK7R25gAAQIECBAgQKB+AjomQIAAAQIEViMgwFqNmnsIECBAgACB7gnYmQABAgQIECBAoHYCAqzajVzDBAgQCIEBAQIECBAgQIAAAQIEyiQgwCrTtNSak4BaCBAgQIAAAQIECBAgQIAAgQ4JdDHA6lCHtiFAgAABAgQIECBAgAABAgS6KGBrAmsXEGCt3dAKBAgQIECAAAECBAgQaK+A1QkQIFBzAQFWzX8AtE+AAAECBAgQqIuAPgkQIECAAIHyCgiwyjs7lRMgQIAAgU4L2I8AAQIECBAgQIBAVwQEWF1htykBAvUV0DkBAgQIECBAgAABAgQIrFRAgLVSMdd3X0AFBAgQIECAAAECBAgQIECAQPUF7tShAOtOGL4kQIAAAQIECBAgQIAAAQJVEtALgaoICLCqMkl9ECBAgAABAgQIECDQDgFrEiBAgEAGAgKsDIagBAIECBAgQIBAtQV0R4AAAQIECBBYm4AAa21+7iZAgAABAp0RsAsBAgQIECBAgACBGgsIsGo8fK0TqJuAfgkQIECAAAECBAgQIECgnAICrHLOrVtV25cAAQIECBAgQIAAAQIECBCovkB2HQqwshuJgggQIECAAAECBAgQIECg/AI6IECglQICrFZqWosAAQIECBAgQIAAgdYJWIkAAQIECPxEQID1EwifCBAgQIAAAQJVFNATAQIECBAgQKAKAgKsKkxRDwQIECDQTgFrEyBAgAABAgQIECDQZQEBVpcHYHsC9RDQJQECBAgQIECAAAECBAgQWL2AAGv1dp29024ECBAgQIAAAQIECBAgQIBA9QV0uKiAAGtRFk8SIECAAAECBAgQIECAQFkF1E2AQPUEBFjVm6mOCBAgQIAAAQIECKxVwP0ECBAgQCArAQFWVuNQDAECBAgQIFAdAZ0QIECAAAECBAi0SkCA1SpJ6xAgQIBA6wWsSIAAAQIECBAgQIAAgUJAgFUgOAhUWUBvBAgQIECAAAECBAgQIECg7AICrINP0BUECBAgQIAAAQIECBAgQIBA9QV0mLGAACvj4SiNAAECBAgQIECAAAEC5RJQLQECBNojIMBqj6tVCRAgQIAAAQIECKxOwF0ECBAgQIDAPQQEWPcg8QQBAgQIECBQdgH1EyBAgAABAgQIVEtAgFWteeqGAAECrRKwDgECBAgQIECAAAECBLIREGBlMwqFVE9ARwQIECBAgAABAgQIECBAgEArBPIOsFrRoTUIECBAgAABAgQIECBAgACBvAVUR+AgAgKsgwB5mQABAgQIECBAgAABAmUQUCMBAgSqLCDAqvJ09UaAAAECBAgQILASAdcSIECAAAECmQoIsDIdjLIIECBAgEBXBZ55Uc/Wsav7No9dftjx4z84fOC86aOOPW/35qHzJ0/YesF3H7F1x9Rjh8ZnnzQ8PvO04Z0TvzR8/sxjRnbMPOyE188M9b9udtPwjon7nPim79+7f2z2kFPeltaFkGJX+7E5AQIECBAgQIBAqQUEWKUen+IJEKikgKYIdEFgIawa2bn7ccPnTb1yeMf0B0dOecxlzY0bvrax7/BvzYWbdvU04vT6nrQ7NnuubM7Pf6EZGxfHkD5SlPqBkHo/FprhMymGL+3fHyZ755qzIfZO7btpz1W9G9I3rr1u9qvDO2a/ODI+85cjO2eePzy+++RQBGTFvQ4CBAgQIECAAAECyxIQYC2LyUVlE1AvAQIECCwtMDg2deTWHbNPHjl/+tzhnbMXDY/PfKvZt/6mlJqfCI3G/wox/koK4aEhpRNCiFuK84gQQl/xfU/xeRlHXFdcdGhxHhViGCo+P6D4fEqx5vNSCn8RQvNrw6c85trhHTOfGto58+ahHTPPGx6fOLlYPxbXOggQIECAAAECBAjcQ2CpAOseF3qCAAECBAgQKKfAwl/jG9wxdeLwzunfGdkxfUmjr/G9ZkwfTs346iI0embR1X2Ls9Ph0X2KUOvnYwp/EGP4yxB6vzY8PjtRhGk7hnbOPnzwwuuPLGpyECBAgAABAu0XsAOBUgg0SlGlIgkQIECAAIEVCxw//p3Dh3fOjPf2he80YvxaSPGvU4z/rVhomb9JVVzZyePW39YajSl9obH3hquHd8z8y9DOyYd3sgR7ESBAYHUC7iJAgACBdgsIsNotbH0CBAgQINBBgRPHvn3voZ3TLx8en/n0XOi7JqSwLYR0bAhxQyjPoyfEcO/ifEJMPV8sevn60M6ZNw9eMPWQ8rSg0hULuIEAAQIECBAgcAABAdYBcLxEgAABAgRKIZBSHDl/5qeHd0y/cV/fxv+KKb6uqPvnirNMoVVR7pLHA2IKf9CYb3xleHz6n0fOm/rlhb8WueTVXqiVgoebNwAAEABJREFUwPD41AuHd8xc2tFzfOYDp7zt0oX3equVtWYJECBAgEA3BQRY3dS3NwECuQmoh0C5BMZS4/jzpu83PD77rdQMl4UYXxrCLW+gHqr7iE9NjcaHevvSNSPn7/7lMJZ6q9urzg4kcNLY5euHd07/fQiNt4cYTunoGcKDb969MR6oPq8RIECAAAECrRUQYLXW02oBAQECBAi0XyDF4l/cHz+8YeYzc434n8W/uJ/Y/j2z2+Gw1Gx+aLhv9orB8ak/DBelnuwqVFDbBI573ezIj/sO/0wIjVPbtomFCRAgQIAAgYMIdPZlAVZnve1GgAABAgTWJDB83sxjhsZn/iGk+NEQ46OKxdYXZ52P+zZC403DV81eOjw+fepj/UZWxX8WivB2xzVPmJ8LF8cQfyakFCvesPYIEKi6gP4IEFi2gABr2VQuJECAAAEC3RM49rzdm4d3Tr8tNMJnYoi/XlTSU5yOOwR+KoT43qv6Zj/ZPz47HMaSP+OEaj1OeVtaN7Jj97NDnPtQCOm4anWnm7UIuJcAAQIE6iHgD3f1mLMuCRAgQKDEAsPjsy9c32h+M6R4Wonb6FTpj+4N6RsjG2ffvPAeSZ3atOT75F9+EUh+77rZv0ox/HVRbN1/67AgcBAgQIAAgfoJCLDqN3MdEyBAgEDLBdqz4MjO2QcW4dVHQkhvL3a4T3E6liewMaXwkhs2HH7ZyPjUU/w1s+Wh5XrV4IX/NTDUN/vZGMKzi38W/Nk110GpiwABAgQItFnAHwLaDGx5AgSWKeAyAgRuF9g6dnXf8HnTv5NS88vFv7A/6fYXfLEygRgflELjg0M7d79qeMeEAHBlehlcnW75jxU09u39ThFePTKDgpRAgAABAgQIdFFAgNVF/FZvbT0CBAgQqIDAWGrM963/p9AT3x1CXB881irQE0M6N8beLxTB4LFrXcz9nRPYumNmNKTGx4odNxSngwABAgQIELiTQB2/FGDVcep6JkCAAIEsBQZeP/3Qob7Zr8cQnhRSKD5lWWYpi0oh3K/Zt/5rwzunf7eUDdSo6M1j3ztsaHz6H5ux8apQJFg1al2rBAh0VsBuBAiUTECAVbKBKZcAAQIEKiiQUhwen35OY3/j0iK1ul8FO8ylpaNCin81snP2Nf1js4fkUpQ67hAYHt998sa+uY/HW/5Lm6n3jld8laeAqggQIECAQOcEBFids7YTAQIECBC4p8BYagyPz+4MIb47Bv/CHjrwSCmd07shvG/wwqmNHdjuwFt49ScCKQ6NT/5CCM0vhJB+9idP+kSAAAECBAgQuF1AgHU7hS8IECBAoIwCZa5568KbtffN/lOI4Ywy91HK2mP65cbenn/vH/vmplLWX6WiixB3ZMfMq2Po+WgI4bDidBAgQIAAAQIE7iEgwLoHiScI1E5AwwQIdEFg8MKpI5t96/++2PppxdlTnI5OC8T0oN6+wz419NrJB3V6a/vdKnDC2JVHj2yYfU+K8Zzimb7idBAgQIAAAQIEFhUQYC3KstInXU+AAAECBJYvcP+d196rsS/8XXHH/1ecju4KPDD29HxweMc1x3e3jNrtHod3TBy/v++Qi1MMv1m77jVMgAABAiUWUHq3BARY3ZK3LwECBAjUUmDwwqmNNzX3fSaExhNrCZBn01tDnPvcwHlfPyrP8qpX1ciO6ceF2PufIaSTqtedjggQOKiACwgQILAKAQHWKtDcQoAAAQIEViPwk9+8+qfYCA9ezf3uaavAMT2Ne3/luJ0z92/rLnVfPKU4Mj792hTjhwsK/yXIAmG1h/sIECBAgEDdBARYdZu4fgkQIECgKwKnvC2tu7m59y23/OZVCrErRdj0zgKLfT3QDOGi/tfMDC32oufWJtD/utlNwztn31/8+J9drLS+OB0ECBAgQIAAgWULCLCWTeVCAgQIELirgO9WIvC9H86+McT4Oyu5x7WdF0gpPKS3N/1jeOZF3li/hfyD50/dt3d/+k6x5NOK00GAAAECBAgQWLGAAGvFZG4g0EIBSxEgUAuB4R2zp8UUXlCLZqvQZIwPHz7l5z500ljyW0ItmOfWnTO/12g2Ph9iuHcLlrMEAQIECBAgUFOB0gdYNZ2btgkQIECgJALD47M/F2J6a1Hu+uJ0lEEgFVFLSE+8cePMtjKUm2uNx1zwlUNHxqdf20y3/Px7g/xcB6UuAgQIlEhAqfUWEGDVe/66J0CAAIE2Chz32quOKZa/qDi951WBULIjphRfNbJj6tdKVncW5fa/bnbThvnN7y2ywLNDiMLb4EEgGwGFECBAoLQCAqzSjk7hBAgQIJC7wHzPhneEkLbkXqf6lhZoxsbbBsemjlz6Cq/cXWDo/GtO6J0PlxY/+0+9+2vV+F4XBAgQIECAQDcEBFjdULcnAQIECFReYGTH9MuLJv0LfIFwj6NET8QQNse++KGtY1f3lajs7pSaUhy65f2u5v4jpDTSnSLsSoAAAQIECFRVQIBV1cnqiwCBSgtoLm+B/p0z908xvqqo0v+fLRDKfsQQH5H61j+/6CMWp2MRgWMu+O6hw+fP7ogpvDOFcK9FLvEUAQIECBAgQGBNAv5gvSY+N5dYQOkECBBok0CKvSn9XbH4IcXpqIZAkcuEPx3asfvh1WintV08diz1rp+f+2xIwZvet5bWagQIECBAgMCdBNYQYN1pFV8SIECAAAECtwiMjM++JIT4sOBROYFGmD+/ck2tsaGR86YfdVXf7m/HEB+6xqXcToAAAQJZCyiOQPcFBFjdn4EKCBAgQKAiAoMXTh2Z/BZKRaZ5zzZSjI8dHp966T1fqeczgztnnp8a8WMhpK31FNA1gRUKuJwAAQIE1iQgwFoTn5sJECBAgMBtAin27Gu8JcQwdNszPldRoHHmSWOXr69iZ8vtqQhqNw7vnHlHI4W/KO45rDg7dtiIAAECBAgQqK+AAKu+s9c5AQIECLRQoP91u49KIfxKC5dsx1KtWrNoNV1XhHVTIaSrikVnQgo/Kj7X4Rj4Ud8Rf1qHRhfrceS1125p7Gt8pnht4U3ti08OAgQIECBAgEBnBARYnXG2CwEClRHQCIFFBJ55Uc+6/c13F69U6bdRbi76WQgq3pxifHEK808OYe5Bc71x8+Txn103OTp45OS2geHi8wmTowODk9sHDp/c079ub8/Nx6Se+Qc3G/EpKaUXF8HWm0KInyrCroX1QhUexR+eXjh83u6TqtDLSnoY2jH7xNSz91PFPT9dzDUWnx0ECBAgQIAAgY4JFH8G69heNiJwq4CPBAgQqJjA4MMe9fAi5Pnl8reVpkNK/1wEVc9af8hN95kcHfj54jx9alv/W6dGhz86OTpy+ewf9f9XOPXU+UV7HYtz15x54vemzhz+2vRZ/R+Z2j741iLYeunkaP9/m7y5/7AU538thPQPxb27inPxNYoXSnE00umlqLMFRS78lcnh8dnfjrH5gRDiicGDAAECBAgQILBcgRZeJ8BqIaalCBAgQKCeArHROK3knV/WM998aGPP/vsWgdPTi6DqoitPv+/elvY0FptT24b/aXJ04NQiHHtAmp//qWL9fy3Okh7phcPnTdTit7B+3Hf424rg8a9DiBuCBwECBAh0XMCGBAjcKiDAutXBRwIECBAgsCqBrefNPiCG8Fururm7N+1NIV44H9JPTW7r/5mrzxn66q6x4/aEEFNo6yOmhXBs6pzhrxX7PrHRjA8s/jDyqhDDD0O5Ho3Y6P2jcpW8smpPuOC7Rw+Pz3w2hvjc4s5YnA4CZRVQNwECBAhUQKD4M2MFutACAQIECBDokkAzhpcWW5foN1PS3hjD38WengdOjfa/fGZ08Cshtju0KoQWO4p9d53d/41dowN/PB/Sg4vs7O3FZTcVZymOIul72kljl1fpfc9udx/eMfOE/fPzVxZPPLo4Qwg+EiBAgAABAgS6KyDA6q6/3QkQIECgzAIpxdAITwnLeXT/mqLY8L25GB86sW3g2RNnHnt190u6o4KZbYPTk9sGX9Qb9vQXz15enEU+VHzM+9h0Y9/h2/MucYXVjaXG8PjUS0MM/1Lcea/idBAgQIAAAQIEshAQYGUxBkUQILAcAdcQyE1g5ILdvx5CGs6trnvUE8NCGDS2p6fn+NltA9+8x+sZPXHV6AnXz+2JP1sU/IeFbUaVLV5KCo3nHz/+ncMXf7Vczw5eOLVxqG/2H4ueXleuylVLgAABAgQI1EFAgFWHKd/Ro68IECBAoEUCp7zt0nWhmc4roqG83xsopd0pxadMjg686pozj72xRe23dZnZsf6bpkYH3jIfw6OKEOuqtm625sXTpvlmT+nfzH34vN0nNfY3Pl78MP9qcfaumcUCBAgQIECAQLcFKre/AKtyI9UQAQIECHRC4Jrrj9maQjyuE3uteo8Yv9YbD1l4r6uPrnqNLt44s23wC8316UFFSPj5LpZxsK17UmPd/zzYRRm/HofOn/350Gh+unAuAsOMK1UaAQIEOi5gQwIEchIQYOU0DbUQIECAQGkE4nx8TAhpXcYFf+Lmm6971FWjR16fcY0HLW36jKGb5/bGJ4QYP3TQi7t1QYzPGLxwaqBb269635TiyM7d58b55r8WaxxZnA4CrRewIgECBAgQaJGAAKtFkJYhQIAAgXoJxBBPy7bjFD62vtn4jWvHTr4h2xpXUNjCXylcv3HDs4tbFt5YvPiU2ZFST2NfeFy7qmrHusM7Ju4zPD7zdyk1XxViXN+OPaxJgAABAgQIEGilgACrlZrWIkCAAIEcBVpe09Ydu7eGW96fqeVLt2LBK0KY+40rz95ybSsWy2WNK08/6keT2/qfFFLK9K8TNh6fi9XB6jju1TP3D7HnEyHGZx3sWq8TIECAAAECBHIREGDlMgl1EMhaQHEECNxZYD7MP/bO3+fzdfzuYcf/8GGT20euy6emFlYSY+qNe58SQvp+C1dt1VJPbNVC7Vxn+LyZx8yvS/8ZQvyp4EGAAAECBAgQKJGAAKtTw7IPAQIECFRGIDYW3v8qs3aKcCeG+eddcerJ+zKrrKXlXDV6wvUhxd9o6aKtWax/eMfsKa1Zqj2rjIxPvzo0wsdDiDm/d1vwIECAAAECpRfQQFsEBFhtYbUoAQIECFRZoNFs/k0M8Q0hhU+HEHN5k/TxidGhD4caPCa3D/xrYb+zaDUVZ07HM3Iq5rZabnm/q52zF6UQzy2e21CcDgIECGQvoEACBAjcXUCAdXcR3xMgQIAAgYMI7No+dMnEaP8ZRZDyC484fstRKcw/OcTw3uK22SJYuan43OEj3Tg/33x9hzft6nbNDc1XhpCu7moR99i8+YQwlrL6s9VxO2fuHxq93wopPfMe5Xqi6gL6I0CAAAEClRLI6g9ZlZLVDAECBAjUQuB9p8b5qdHhj05uG/iNuT3xvnPz4QEx9Tw+xsa7Qog/Cu1/NGPPul+aOXswx/eFalv302cM3Rxiz7a2be+bP0kAABAASURBVHDLwiv8EBubTzzyymz+et7IBdOPmk/pCyGFTSvsxOUECBAgQIAAgewEBFjZjURBBAgQqJBAzVqZHeu/afbcgamJ7cd+YmLbluc19uw9pic2HhFj+B8hxPekECZD6x9fmrjxz/+t9cvmv+Lkti3/UFT5meLM5Eibrv/B4dkEWJvuPXBpjPELmeAogwABAgQIECCwJgEB1pr43Eyg/QJ2IECgvAK7xo7bc/W2Lf8+sW3gzyZH+39nalv/1kYjPSzG9NqQ0ueLzmaKs8i1io+rPBqNcGEYG2uu8vYK3JbekVEThx3Wt++EXOq57EVxfwjxjOK8MXgQIECAAAECBEouUIcAq+QjUj4BAgQIVEagSK52nTX45Yltg+dO7h34ufWH3HRC3LB/IKTwyhDDxIr7jOHbu87s//sV31ehG5rr0/uKdm4uziyOZoxPzKKQnxQxsa3/6yGmXwsh1jjkDB4ECBAgUB8BnVZYQIBV4eFqjQABAgQyFhiLzStPv+/eiZdt3T25fWBs8rj+ExqpcVwK809OKb62qPzS4kzFueSRmvHvQxGKLXlBDV645b2wUnpjLq2mZvi5XGq5rY7iZ+sTMaT33/a9zwQIEDiwgFcJECCQp0Ajz7JURYAAAQIEaiZwapzftX3LroU3hJ/a3n/u5OjAz8T5/QMphefHEP42hviVQmRPcd5+9PTEj9/+TY2/6Im3/Bcg57MgiOHhWdRx5yKKn611h/Q9N4bwrTs/7es2CliaAAECBAgQaLmAAKvlpBYkQIAAAQKtEZg4Z+vuqe0D75wYHfitidH+nzpszw8PjzH+dojhsyGFHx1y0w8ua81O+a2ykor29jZmQoi5vM9T/9axq/tCZo8rTz/qRyGkM4qyyv5XCfMIKgtIBwECBAgQINBZAQFWZ73tRoAAgU4J2KeCAleMnbxvYlv/30xu6//53rhnuPj+hgq2ueKWZm/Y8oMi0PvBim9s0w1xXTq8TUuvadmJPX/x4cLp1WtapJs3p/A3MYSF9zzrZhX2JkCAAAECBLokIMDqErxtyyCgRgIECOQqENNVoydcn2t1Ha9rLDZTmP9Ex/ddYsP5xqGHLvFSd58eG2uuP7TvwqKIbxZneY4Ubgopvmhyb/9zYow/Kk/hKiVAgAABAgRaKdDeAKuVlVqLAAECBAgQILCUQKPxmaVe6vTzqbn3kE7vudz9Fv4q4bq58EvF9fkHQTGkENKX9/b2HDe5vf/toQgqgwcBAgQI5CugMgJtFhBgtRnY8gQIECBAgED7BRrz6Rvt32V5OzTW9axf3pXdueo75w5MhRTHu7P7inY9v7k+PfqaM4/93orucjGBEgsonQABAgSWFhBgLW3jFQIECBAgQKAkAnHf/t25lDqfGr251LJUHYftve71IYYPLPV6N5+PKVxT7P/0yZv7z54+Y+jm4uuVHK4lQIAAAQIEKiogwKroYLVFgAABAgRWJ1DOu3rX9+XyXyEMvSFm/+erK8ZO3tdsNl9eTDsbt6KWEGP8yN7UePDk6MAHg78yGDwIECBAgACBOwSy/wPWHaX6igABAiURUCYBAp0XOGz9hs5vuviOc/P70+Kv5PXs9PahK1Nz/ilFVc3i7PYx34zhDye29T/lu2dvubbbxdifAAECBAgQyE9AgJXfTFQUQoBAgAABAgRWIrDvxr3HrOT6dl7biD1z7Vy/lWtPbR/6TAzholauudK1irTvW3Np/89Mn9X/lpXe63oCBAgQIECg/ALL7UCAtVwp1xEgQIAAAQLZCqSQ7pdLcc04vy+XWg5aR4ypJ+z5/RDiFaELjxTDu5rN9OjZ7Vv/IxS1dKEEWxIgQKAKAnogUAsBAVYtxqxJAgQIECBQbYEY4yOy6TCFUr3x+FWjJ1wfYvP0wm++ODt1/DDMN541tW3geTNnD36/U5vah8DSAl4hQIAAgdwFBFi5T0h9BAgQIECAwDIE0hOXcVFHLulpzmf1xujLaXryrIFPhGbz3OVcu+Q1y34h/fv6eNODJ8/Z0tW/urjscl1IgAABAgQIZCEgwMpiDIogQIAAAQIhMFidwNY3XH1ECKl/dXe3/q79+9df3/pV27xijGnvunVvjjF8tX07xf0pxNesP2TjL1257b7T7dvHygQIECBAgEAVBQRYVZyqngjUV0DnBAjUUCDt27ClaPuQ4uz+EcMPZsf6b+p+ISuv4Jozj72xJ8WnFXdeV5wtPVIIk400//Sp0f5XXHn6UT9q6eIWI0CAAAECBGohIMCqxZhX0qRrCRAgQIBAuQRSaD4phLgu5PBI8dIcylhtDVeN9k+mFF+92vuXuO9f9vX0nLRr+9BHlnjd0wQIECBAgEBXBMq1qQCrXPNSLQECBAgQIHAngVPeltaFZjzjTk919cuYmp/pagEt2Pxee697SwjpH1uw1I0hxNMae/Y9feG3u4IHAQIEqiigJwIEOiYgwOoYtY0IECBAgACBVgtc+/3JJ4UYhlq97mrXSz3xE6u9N5f7rhg7eV9vaJwRQ/jxGmr6cuxJvzQ52v+OXWPH7VnDOm6tgYAWCRAgQIDAcgQEWMtRcg0BAgQIECCQpUBsrHteRoXt2ZjWt/FN0JfstOUvLPxVwmLRJ4cQ58LKHvNFoHjR+kNueuTEmYOfX9mtriZAgAABAgQILC0gwFraxisECBAgUBsBjZZRYGDn9CNTaP5KNrWn9P29N9+wP5t61ljIxOjA50Jq/u3yl0k/jI3G0ycv/eyzrzz9vnuXf58rCRAgQIAAAQIHFxBgHdzIFQQILEfANQQIEOigwEljl6/vSfHNIWTy5u2heMR4za7Lv1iZAKvoKPTGQ06PMRz8t8pS+Fjo7XnMxFlb/l9436nzC/c6CRAgQIAAAQKtFBBgtVJzjWu5nQABAgQIEFiewI8POeLXiitPKc5sjhSan69aeHPV6JHXN2P8gwJ5qVDqphDDmzYf2f8rk3+05YriOgcBAgQIECCwDAGXrFxAgLVyM3cQIECAAAECXRQYHt99ckzxfxclxOLM5kiN3vdlU0wLC5k6c8tnUkpnLrLk90OKvzC5beCll70oVuo3zxbp1VMECOQnoCICBGomIMCq2cC1S4AAAQIEyizQ/7Z0SArNvwgprcusjx8cc+XM5zKrqTXlxJg2HHrznxWLXVqcC0czNsPfNueaD53c3n/ZwhPOsgqomwABAgQIlEdAgFWeWamUAAECBAjUXCDFnh/MvjOG8MhsIG4vJF182dsfXtnfQlp4U/a4f/+phf03U4hnTuzr/53pc4dmbm/fFwQIECBAgACBNgsIsNoMbHkCBAgQOLCAVwksS2BsrDE8PvPnMYZnLev6zl/0L53fsrM7Trxi69UTowMPmBrtvzCMxWbwIECAAAECBAh0UECA1UFsWxFok4BlCRAgUHWBONL3ggtCiKeFTB89MV6SaWnKIkCAAAECBAhUQkCAdcsYfSBAgAABAgRyFDhp7PL1wzum35pCPKOoLxZndkeM8bNXb+v/VnaFKYgAAQIECBBYRMBTZRUQYJV1cuomQIAAAQIVFzhh7Mqjf9x3xCdDzPc3r4oRpJjCq0MoPgYPAgQI1ERAmwQIEOiCgACrC+i2JECAAAECBA4ssHXH7sfO9R3ytZjlG7bfqfYYru9txi/d6RlfEliWgIsIECBAgACBlQkIsFbm5WoCBAgQIECgjQLHXPDdQ4fGZ/60GZv/L4W0+QBbZfFSaoaPXrn92P/KohhFECBAgAABAgQqLCDAqvBwtUaAAIEDC3iVQD4Cm3Zee6+hHTPP6ptvzsYQ/kdR2cbizPtIaU9Pz7r/GaK/Ppj3oFRHgAABAgQIVEFAgFWFKeqhewJ2JkCAAIE1CwztmH3iIWn/t2Ij/F0K6d5rXrBDC8TYuHjXWUd/t0Pb2YYAAQIECBAgUGuBrgdYtdbXPAECBAgQqKnA1vOvPnZkfPq1w+MzV8SYPhJCOjakEMvFMf/mctWrWgIECBAg0F0BuxNYi4AAay167iVAgAABAgSWJ3DRRT2D41MPHtox+bzhnTPvbzbXTRR51dnFzQ8szpIFV0XFIV48MTpYBG8LXzsJECDQMQEbESBAoLYCAqzajl7jBAgQIECgxQJjqXHS2OXr+982e8jWN1x3xHGvveaY4fGZp43snP2L4e885oeN0PhqjD1/GVJ4eghxfSjxI4W5sRC891Uo5UPRBAgQIECAQBkFBFhlnJqaCRAgQIDAKgVGxqfPHd4x88E1nXe/f+fMx0Z2znxuuG/myz/uO+I/e3+QvtHcd9N35nvmp4oyP5BSen6I4bDi62ocMXzp6Ku+9/lqNKMLAgQIECBAgEA5BARY5ZiTKgkQqJiAdgh0S6AZ4sOLMOlXWnqm8EsphUeFEB8cQ7hfsfZQSOHIENK6ULlH/FFzf/Ppl7394fsr15qGCBAgQIAAAQIZCwiwMh6O0g4o4EUCBAgQINB5gdR8//S5QzOd39iOBAgQIECAAIHaCtzSuADrFgYfCBAgQIAAAQIHE0i7mxvSiw52ldcJECBAgEB+AioiUH4BAVb5Z6gDAgQIECBAoAMCMTT+aPqMoZuDBwEC9RTQNQECBAh0VUCA1VV+mxMgQIAAAQIlEfjgcXu+eVFJas22TIURIECAAAECBFYrIMBarZz7CBAgQIBA5wXs2A2BFK5p7Nn3nEvGHjfXje3tSYAAAQIECBAgEIIAy08BAQI1E9AuAQIEViIQ52LoefauseN+GDwIECBAgAABAgS6JiDA6hp9iTdWOgECBAgQqIlADM3zJ7Yf+4matKtNAgQIECBAgMBdBTL6ToCV0TCUQoAAAQIECOQjkEL614k9A6/IpyKVECBAgEAZBdRMgEBrBARYrXG0CgECBAgQIFAtgev2N3ueHcZiM3gQINBtAfsTIECAAAHvgeVngAABAgQIECBwF4EYphqp8dPfPXvLtXd5vtTfKJ4AAQIECBAgUG4Bv4FV7vmpngABAgQ6JWCfughcFxs9z921fcuuujSsTwIECBAgQIBAGQQEWGWYkhoJVERAGwQIEMhdIMbGMybO9Kbtuc9JfQQIECBAgED9BARY5Zq5agkQIECAAIH2CNwYUviliW1bLmnP8lYlQIAAAQIECKxIwMV3ExBg3Q3EtwQIECBAgEDtBP4rpvi7k9sH/rXoPBWngwABAgQqIaAJAgSqJCDAqtI09UKAAAECBAisVODGFOafMbG9/x9XeqPrCdRCQJMECBAgQCATAQFWJoNQBgECBAgQINAVgclms3F5O3e2NgECBAgQIECAwNoFBFhrN7QCAQIECLRXwOoE2inwwJ5G/PTQebM/385NrE2AAAECBAgQILA2AQHW2vzcTaAkAsokQIAAgQMIPDA20odHxqefGi5KPQe4zksECBAgQIAAAQJdEhBgLRfedQQIECBAgECVBQ5NIX5g5DuzZ1S5Sb0RIECAAAECyxBwSZYCAqwsx6IoAgQSzsDVAAAQAElEQVQIECBAoAsCjRTD+MjO6bd0YW9bEiBAoFICmiFAgECrBQRYrRa1HgECBAgQIFBmgUZK8SXD47PvPuaC7x5a5kbUXnoBDRAgQIAAAQJ3EhBg3QnDlwQIECBAgECVBNbSS3rOhubcux47lnrXsop7CRAgQIAAAQIEWiMgwGqNo1UIECBQTQFdEaizQIrPvGrj7HvqTKB3AgQIECBAgEAuAgKsXCahjsoKaIwAAQIESiyQwrOGd0z/1Uljl68vcRdKJ0CAAAECBAiUXqAMAVbpkTVAgAABAgQIlFggxt+9oe+Ic0457dJ1Je5C6QQIECBAoAwCaiSwpIAAa0kaLxAgQIAAAQIEbhd4xbVb+198+3e+IECAQLYCCiNAgEA1BQRY1ZyrrggQIECAAIHWCsTQSOPD49OnBo/qC+iQAAECBAgQyE5AgJXdSBREgAABAgTKL1DRDjaGEN/c//qZoeBBgAABAgQIECDQUQEBVke5bUaAAIFlC7iQAIE8BY7u3R++eeLY9++dZ3mqIkCAAAECBAhUU0CAVc256uoWAR8IECBAgEBbBDbu69vzJ21Z2aIECBAgQIAAAQKLChw4wFr0Fk8SIECAAAECBGov8NyRnTPPr70CAAIECBCojoBOCGQuIMDKfEDKI0CAAAECBPIUSCmMb33D1UfkWZ2qCBDohoA9CRAgQKB9AgKs9tlamQABAgQIEKi2wKbmvvUfP2ksra92mx3tzmYECBAgQIAAgUUFBFiLsniSAAECBAiUVeDAdTca4Z9DCm9q1RlT+NMQ4ttSCO9KIf6fGNIlIYRvxBB+XHyu/pHCQ3+8YfYZ1W9UhwQIECBAgACB7goIsLrrb3cCBHIUUBOBCgtMnDXwF5PbB17aqnNi+8AfTo72//7U6MDzpkb7nzExOvi4ydGBB05s6z889uw/PqTGqQthWQrh30JI0yHG/RXj7YmN+Jf9r5kZqlhf2iFAgAABAgQIZCUgwMpqHNUpRicECBAgUHOBGNPEmVuvnty+5X0LYdnUnnc8ev0hN58Y168baYbwxyHE60NVHilt7F2Xzq5KO/ogQIAAAQIECKxEoFPXCrA6JW0fAgQIECBQZ4GxseaVp99378TLNu+eHh141WF7rjs6NsIpIcYi+Im7S0+T4nOHds4+vPR9aIAAAQIEuiFgTwIEliEgwFoGkksIECBAgACB1gpcMXbyvomzBr40ua1/x/P2bBkMjcbvhhQ+HWLxsbVbdWq1vpjSn4SLUk+nNrQPAQJ3FvA1AQIECFRdQIBV9QnrjwABAgQIZC4wNhabk2dt+evJ7QO/0BvX3T+E+PUQwnxxlu14xMjVu+9XtqJvr9cXBAgQIECAAIGMBQRYGQ9HaQQIECBQLgHVrl3gqrOO/nZjz96fTmH+qSGk2bWv2NEVelIzffikscvXd3RXmxEgQIAAAQIEaiAgwKrBkLVIoEQCSiVAgEDYNXbcnqnR4Y/u7em9XwrxNSGFH5WGJYaRH/Xd+/GlqVehBAgQIECAAIGSCAiwSjKo5ZfpSgIECBAgUA2Ba8489sap0f5XxBAeG1P6VijJoxF6XhpSKsouScHKJECAAAECBEoqUK+yBVj1mrduCRAgQIBA6QQmtg/8x57e3p8OMf7vchSfnjh8weyjy1GrKgkQIFBzAe0TIFAaAQFWaUalUAIECBAgUF+Bhd/GmtzW/5yU0osLhb3FmfMRYzP8Qc4Fqo1AKwWsRYAAAQIEOiEgwOqEsj0IECBAgACBlghMbR98a2im/x5CzPp9sZohPP6k5b+Ze/AgQIAAAQIECBA4sIAA68A+XiVAgACBUggosk4Ck2cP/nNP78aHFD3/uDizPGIIm2/oO+JFWRanKAIECBAgQIBACQUEWCUcmpIJtEXAogQIECiRwNV/dJ+JZmw+oSj5B8WZ6RG3bx27ui/T4pRFgAABAgQIECiVgACrheOyFAECBAgQINA5geltQ/9e7PbcEEOe74kVw6bm+sbxRY0OAgQIECBAoGIC2um8gACr8+Z2JECAAAECBFokMDk68MFmis8rlmsWZ15HSutCT88T8ypKNQQIEMhGQCEECBBYkYAAa0VcLiZAgAABAgRyE5g+fst7Y4p/l1tdt9ST4ktu+ewDgbYIWJQAAQIECNRHQIBVn1nrlAABAgQIVFPg1Di/6cgtv1c09x/FubKj/Vffd3h898nt38YOBAgQIECAAIFqCwiwqj1f3REgQKDtAjYgkIPAZS+K++djenlRy77izOqIsfm4rApSDAECBAgQIECghAICrBIOTcmVE9AQAQIECLRAYGbb4MUhNt7QgqVaukQzhEe3dEGLESBAgAABAgRqKFCRAKuGk9MyAQIECBAgcA+Bud7mW4oni8yo+JjJ0UjhpzMpRRkECBAgQKACAlqoq4AAq66T1zcBAgQIEKigwOzLB6ZSiK/IqbUU44n3e93sppxqUgsBAjUX0D4BAgRKKCDAKuHQlEyAAAECBAgsLXCvPde9LoS4O+TySKnnpvnwpFzKUUdrBKxCgAABAgQIdFZAgNVZb7sRIECAAAECtwq07eMVYyfvSyFd3LYNVrFw8QcuAdYq3NxCgAABAgQIELhNoPjz1G1f+kyAAAEC5RJQLQECSwk0GuH1xWupOPM4ms2HhWde1JNHMaogQIAAAQIECJRPQIBVvpmpuJUC1iJAgACBSgpMnDXwpRjCV/NpLh5+zM/evy+felRCgAABAgQIECiXwJoDrHK1q1oCBAgQIECgLgIphY9k02sjHLruxiM3ZFOPQggQIECAwCoE3EKgmwICrG7q25sAAQIECBBom0BsxH9v2+IrXTilQ3sP2bB+pbe5ngCBygloiAABAgRWKSDAWiWc2wgQIECAAIG8BeJ8uCKfCuOGmPYfnk89Za5E7QQIECBAgEAdBQRYdZy6ngkQIECg3gI16b73sBuvDjFk80buzdg8oSb02iRAgAABAgQItFxAgNVyUgsSIFAHAT0SIJC/wJWn33dvTOHb2VSaGluzqUUhBAgQIECAAIGSCTRKVq9yqyOgEwIECBAg0H6BGK9s/ybL26GZ0pblXekqAgQIECBAgEClBFrSjACrJYwWIUCAAAECBHIUSM3w/VzqiilsyqUWdRAgQIBA2QTUS4CAAMvPAAECBAgQIFBdgZj25NJczOj9uHIxUQeBjgrYjAABAgRKLSDAKvX4FE+AAAECBAgcUCCFQw74emdfzCZMW23b7iNAgAABAgQIdEtAgNUtefsSIECAQB0F9NxhgdSIR3V4yyW3Sylev+SLXiBAgAABAgQIEDiggADrgDxeJEAgPwEVESBAYPkCjRSOW/7V7b0yNsK17d3B6gQIECBAgACB6goIsKo726U78woBAgQIlEKg/22zh4yMzzx66/j0i4d2TL/lpLHL15ei8EyK3Dp2dV8zhBMyKSfMN5u7c6lFHQQIECBAgEBNBCrUpgCrQsPUCgECBAiUT2AhlBrecc3xQ+fN/vzg+Oyzh3bOvmpox9T/GR6f+XrvdenHKYTPNkP8sxjjC246ZPOR5euwexXPHdI7FEPq7V4Fd915XYxX3fUZ3xEgQIBAGQTUSIBAHgICrDzmoAoCBAgQqLLA2Fhj8MKpjVvHrj5i5LW7tmw9f/bJwztmxovzczf0Hb4nxLnvxEb6VCOkv4kpvSLGxq8VHA8ozjv+/3SMPbGZjimecyxToBHW3T9k8iiCyLm5uMFfIcxkHsrouIANCRAgQIDAmgXu+IPxmpeyAAECBAgQIHCLwFhqHLfz2vsPnzf1wuGds381svGF/9HY17ii2bf+ytTTO9Fspg+HGLYV56NCiDEs55FSTzPMn7ycS11zq0ARBj7s1q+6/7EY8s3753+4f/WVuJMAAQIECBAgUG8BAVa95697AgQI1Eeg1Z0WIVX/a2aGRnZM/+Lw+PSLis+vGxmf+b/F+eXhvt0/nE/7vhEajbeHlH43pfCQYvutxXlUCHFdWOUjpfSsVd5az9ua84/Pp/F442GHHbk3n3pUQoAAAQIECBAol4AAq1zzUi2BrgrYnEBdBbaef/Wxw+O7Tz5u58wvDe2cfsXI+PT/G+6b/V5vb5hMMX48hPjW4vPLUwi/WpwPDSHdK7TjEcNT+183u6kdS1dtzYWZFTP5uXz6at4Ywg8EWPkMRCUECBAgQIBAyQQEWJ0dmN0IECBAoIQCzfn1706h+eX5FD4WU3xVCvEpRRtHFWenj57eZvj1Tm9axv1Sc90fFnX3FGcuxzVXnn5fAVYu01AHAQIECBBov4AdWiwgwGoxqOUIECBAoIICjfCNGEIe/zW7Zjq1gsKtbWns4t6UYl5BXwyfbG2TViNAgEAdBPRIgACBOwQad3zpKwIECBAgQGBxgcanF3++K8/+t6HXTj6oKzuXZNORvvv9bGjE++ZUbnM+fTSnetRSIwGtEiBAgACBiggIsCoySG0QIECAQPsEmuvmPlGsnoozh6M3NhrvDM+8KKe/HpeDyy01nDR2+fpiUO8PKbXM55aF1/IhhT3T+wZzCkHX0o17CRAgQIAAAQJdERBgdYXdpgQIEKiVQOmbnT5j6AchpC9n00gMDz3+lF84KZt6Mirkxg33flpRTlZvdJ9i+HIYi83gQYAAAQIECBAgsGoBAdaq6dxIoJMC9iJAoPsCjYzewyiun0tzf7t57HuHdd8lnwoGzps+KsXGBflU9JNKYrj0J1/5RIAAAQIECBAgsEqB+gRYqwRyGwECBAgQuEWg2fzsLZ9z+RDjgw7p23daLuXkUEdPo/Haoo7jijOvoxk+l1dBqiFAgAABAhUX0F4lBQRYlRyrpggQIECg1QLzPeELrV5zreulEF8zdIE3dF9wHD5v5jEhNJ+38HVuZ2+zd+E91HIrSz0ECBA4oIAXCRAgkJuAACu3iaiHAAECBLIUmNk2OB1T+nxmxW2MzcbfnfK2tC6zujpazvHjs8OhEd4fQszR4eNXn3PMNcGjjgJ6JkCAAAECBFooIMBqIaalCBAgQKDaAjE2dxYdpuLM50jxQf913e7394/NHpJPUa2q5ODrLLzv1VwI/1hceVRx5nXEWPyspLfnVZRqCBAgQIAAAQLlFBBglXNuqiZAgMDyBFzVUoG59Yd/uljwuuLM6kghPaVnY3hVVkV1qJieRnh3COnhHdpuZduktK+Rev59ZTe5mgABAgQIECBAYDEBAdZiKp4jcCcBXxIgQOA2gekf3fuHxddXFGd2R0zpjKHxmfz+C3xtkjpp7PL1Rb//N4T41JDv41u7Tjh2Kt/yVEaAAAECBAgQKI9AJwKs8miolAABAgQIHEhgLDZDnFv4Tad0oMu69FqMIZwxtHP2dVvHru7rUg0d2Xbhrw3esPE+7yn6/dWObLiaTWJIKcU/CqfG+dXc7h4CBAgQIFBSAWUTaJuAAKtttBYmQIAAgSoKTG4b+ZcQ0tcy7a0RU3p52rj+nf1vWDlPewAAEABJREFUq+Z7Yg1eOHVkoxE+VMRDz8x0BreWldJVU9v7P3brNz4SIEBgJQKuJUCAAIHFBARYi6l4jgABAgQIHEAgxvC+A7zc9ZdSCr/Ze136zNbzv3ds14tpYQFDr/3ugxr7G1+OIT6ihcu2aan4/9q0sGWXI+AaAgQIECBAoHICjcp1pCECBAgQINBmgfn96Z3FFjcWZ87Hw5rN/V8ZHt/9nHBR6llpoTldP3jh1Mah8elzGz3NL4UUhnKqbYla9oY098YlXvM0AQIECBAgQIDAKgQEWKtAcwsBAgSWIeCSCgtMnzs0E0N8QwlaPDqE5ruHr5p558DO6cES1HvXEsfGGiM7Zx/Y2Nv4eOH96hTSurtekOl3Mb17cvvIVZlWpywCBAgQIECAQCkFBFilHFtditYnAQIE8hVIqeddRXX7irMER3xOT4pfH9k59QdhLJXi//cPvmxq48iG578jpeZXQgyPKgHy7SXGZnzr7d/4ggABAgQIECBAYBkCB7+kFH+IPXgbriBAgAABAp0VmBw9+uqQ4l91dtc17XZYSo03D/fNfnV4fPpFY5kGWcdc8N1Dh8dndjSOaXwrxcbzQojl+K2rcNsjfWhib/9XbvvOZwIECBAg0DEBGxGouIAAq+ID1h4BAgQItEkgxnTYCVv+sFj9muIs03FyCPGt7+yb/ebgjpkX9L9mZih0/xEHx7/74OHzZl65Yb75vaKc0eIs3195DOHHjcb6F4Sx2AweBAiUUkDRBAgQIJCvgAAr39mojAABAgQyF7ji1LgvxMZfZ17mUuWd2IjhHb29YWJ45+xFJ7x+ZujEN317QwgpLnVDS58fS43+sdlDRnZM/+Lw+MzXG2H+q6ER/lex/yEt3aeDixVyH9511tHf7eCWOW6lJgIECBAgQIBAWwQEWG1htSgBAgQI1EVgbyO+skh8vtW6fju+UgwpPXP//rhr302HfGN4x8z7h3bM/OZDLvjuoe2oZHDH1IlDO6fPGd44+5l1G8PVKcaPF/vcvzjLfcTwX2ld88XlbkL1BAgQIECAAIF8BQRY+c5GZQQIrFbAfQQ6KHDNmcfeGFI8u4NbtmmrW97cfWuI8Wkxhr+9fn7uuuHxmctGxqf+cmh85o9Gdkw9Y/C8qUcc97rZkc1jlx8WiqYXK+SkscvXH3ve7s3Dr9t90vDO6ccP7Zz5vaEds68p1vinkfGZiUZsfDum+JqQwqNSSkcvtkYZn4sp7Jw+Y+gHZaxdzQQIECBAgACBMggIsMowpS7UaEsCBAgQWL7AxOiW/xtS89PLvyP/K1O45c3TfzqFxvNiCBek2PiHRqPxhfm5tGtj3xE/Ht65e28RSn2vCKkmi6Dr6uEd07PF5x/d0HfE3vWN5vfCXPPykOK/FsHOO2NM5xRr/H8phOH8O19Vhd+Oe/b96arudBMBAgQIECBAoMsCZdlegFWWSamTAAECBPIViLHZ3BB+tQhors23yBZXltK6IpTaXIRUC28Cv/CbW1uKHe5VnDU70r5mT/O/7xo7bk/NGtcuAQIECNwh4CsCBDogIMDqALItCBAgQKD6Agt/fSyG9IpQfKh+tzq8XSDFt07/++cvv/17XxAgsEoBtxEgQIAAgQMLCLAO7ONVAgQIECCwbIHJ0cG3xRTeu+wbXFh2gcsmR/v/Z3jfqfNZNKIIAgQIECBAgECFBQRYFR6u1ggQIEBgZQKtuHqumf6gWOem4nRUWWDhN+3S3ItCLCLLKvepNwIECBAgQIBAJgICrEwGoQwCFRHQBoHaC8ycPfj92ExPKCC8J1KBUNUjhvDCye0jl1W1P30RIECAAAECBHITEGDlNpGgIAIECBAou8DE2QNfSM10TtHHXHE6qiYQw3s3HdH/11VrSz8ECBAgQIBApwXstxIBAdZKtFxLgAABAgSWJRDT1NmDF4YY/2ZZl7uoTAL/Mbmt/zcve1HcX6ai1UqAAIHKCmiMAIHaCAiwajNqjRIgQIBApwWa6+ZfHGP8SKf3tV/bBKbj/P6nhuB9r4JHpQQ0Q4AAAQIEyiAgwCrDlNRIgAABAqUUmD5j6Oawft3zQohXBY+yC+yJITxr4pytuxdpxFMECBAgQIAAAQJtFhBgtRnY8gQIECCwHIHqXjPxss27N8Z1PxVCEmKVd8w3NRqNJ0+MDnyuvC2onAABAgQIECBQbgEBVrnnp3oCdwj4igCBbAW+uW3zj1Ns/nwRYl2XbZEKW0ogxdA4dddZWz4ZPAgQIECAAAECBLomIMC6E70vCRAgQIBAuwSmtg3PNhrhF4sQ6/vt2sO6LRdIRXr1/InRLR9q+coWJECAAAECBLoqYPPyCQiwyjczFRMgQIBASQV2nTX45XVp/SNDDFMlbaE2ZccY94ee5nOmtg28qzZNa5QAAQIrE3A1AQIEOiogwOoot80IECBAoO4C39l+9JWN9fseUjhcXZyOLAXS3mYKT5s8c+g9WZanqAoJaIUAAQIECBBYroAAa7lSriNAgAABAi0S2PWy434YN+x/TArh31q0ZH2XaXHnMYQfNxs9T5oa7f9oi5e2HAECBAgQIECAwBoEBFhrwHMrAQIEqiCgh+4ITLxs6+60vvnLxe4XFWeRZRUfHd0VSGEipfi4aW/Y3t052J0AAQIECBAgsIhAY5HnPEWAwMoEXE2AAIFVCUyfMfSDydGBZ8WQ3lAssLc4Hd0RSMUM/u2wveseNLm9/7LulGBXAgQIECBAgACBAwlkEmAdqESvESBAgACBagtM7Bk4swhQnhGCX8TqxqRjDG9Zd8jAf7ti7OgburG/PQkQIECAQL0EdEtgdQICrNW5uYsAAQIECLROYCw2J0YHPxRj46RiUb8BVCB04kghFoFV/J3jbv7Wy648PfoNuE6g24MAgdYIWIUAAQI1FBBg1XDoWiZAgACBPAUmtvV//fg9/Y8MKb4phCRQaeeYYvh8Y3/jIZOj/e+5ZOxxc+3cytp5CqiKAAECBAgQKJeAAKtc81ItAQIECFRc4JKxODe5vf+lqaf34UWrNxZnrkdZ62qmlP7X5LaBR0+84tiry9qEugkQIECAAAECdRMQYNVt4volQCAjAaUQWFpg6sxjvzbfTCMhxh0hhrT0lV5ZgcCXmvPNh02NDrxmBfe4lAABAgQIECBAIAMBAVYGQ1DCGgTcSoAAgQoLzJw9+P3Jbf1nhxR/IYV4SdFqszgdKxeYTSmesfk+/Y+cPmfoqyHGtPIl3EGAAAECBAgQINBNgUY3N7c3AQIECBAgcHCBydH+z0yN9v9iiOl5RfRyzcHvcMVPBG5KKXxgbk+879T2/jdc9qK4/yfP+0SAAAECBGopoGkCZRbwG1hlnp7aCRAgQKBOAmly2+C7Y9++BzRCeknR+J7idCwt8MHU6H1IEfz96uxY/01LX+YVAgQIrEjAxQQIECDQJQEBVpfgbUuAAAECBFYjsOtlx/1w1+jgn6e4/oQQwyuLNfxGVoFw6xHnQoz/0EiNx00e3/9rU2cd853ie39d8FacjD4qhQABAgQIECCwcgEB1srN3EGAAAECBLorUOw+tW3z7OS2gbGb96w7MYX0mpDSVcXTNQ1r0vVF7x9tNPb+zOS2/mfu2r7lknBqnC+ecxAgQIAAAQIECFREQIBVkUFqgwCBlQm4mkBVBK4dO/qGqdHBVxy/d+D+MaUnhJBmq9LbMvpoxpDOa+wZOHZytP8pu8467svLuMclBAgQIECAAAECJRQQYJVwaJmUrAwCBAgQyEjgkrE4N7F98BPH7/n2SHOu+YiU4qtDiBX864VxLoXwTyGEpzf3NDdPjA6es2ss7gkhFk8HDwIECBAgQIAAgdYLZLGiACuLMSiCAAECBAi0RuCSscfNTZ879O9T2/v/1/pDtoyERuPUEOPfhBAX/ophKOnjuhDSJ0IMoynOjUyNDvza5OjAB6fHhn5Q0n6UTYAAAQK1E9AwAQJrFRBgrVXQ/QQIECBAIFOBK0+PeyfP2vK+yW39vz052n9CYz49LKT47hjitUXJe0LM9beW0v4Q4vUxpH8LKZ06uaf/6MnRwcdPbhvYObVtuE5/RTJ4ECBwJwFfEiBAgECtBQRYtR6/5gkQIECgTgK7zhn88uT2/ufOr58fCWnu5NhsPiGk8KbinMjA4ftFWPXeEOLvNJqNh4S0/7iJ0cFHTm4ffF8Yi3PBoyUCFiFAgAABAgQIlFVAgFXWyambAAECBLohUIk9p88Yunly+8hVE9sHPzG5feClk9v7j9vXbBwdU3p80eDpIaQ3xhgX3mfqP4uvf1g816IjLvzXAr9RLPbxIqx6ewzhzEYz/lpxPnDy+P5jirDqNyZH+9+z6+z+bxT1XVdc5yBwF4F9N4eXhTR3ZLfP3rDxp64YO3lf8CBAgAABAgQ6JiDA6hi1jQgQuFXARwIE8hOI6btnb7l2YiHQGh148+To4MsmtvUvvM/UQ4qv77O3p+ewRiM9LPbEX2+E9JIQw1gK4S0ppb8qQqi/TzH+n7gQeKX4vhDT/44h/nkM8+c1YnrZwntwxWZ6dHNP86ginDpicnTggcX5hCKsetHE6MDrirDqn4rzG+HUOJ+fi4pyE5gd679pIdzs9nnV6JELYWxuPOohQIAAAQKVFhBglXG8aiZAgAABAh0UuObMY2/cddbglyfO7P+/u0YH/3xy28Arp0YH/mBq++DvFSHUb05t63/GLYHX9v5TJ7cNPmditP8lE6PD5+zaNvjGybO2vG/i7MHPe8P1Dg7MVgQIECBAgEB1BHRyu4AA63YKXxAgQIAAAQIECBAgQIBA1QT0Q4BANQQEWNWYoy4IECBAgAABAgQItEvAugQIECBAoOsCAqyuj0ABBAgQIECAQPUFdEiAAAECBAgQILAWAQHWWvTcS4AAAQKdE7ATAQIECBAgQIAAAQK1FRBg1Xb0Gq+jgJ4JECBAgAABAgQIECBAgEAZBQRYK5uaqwkQIECAAAECBAgQIECAAIHqC+gwMwEBVmYDUQ4BAgQIECBAgAABAgSqIaALAgQItE5AgNU6SysRIECAAAECBAgQaK2A1QgQIECAAIFbBARYtzD4QIAAAQIECFRVQF8ECBAgQIAAAQLlFxBglX+GOiBAgEC7BaxPgAABAgQIECBAgACBrgoIsLrKb/P6COiUAAECBAgQIECAAAECBAgQWK1AeQKs1XboPgIECBAgQIAAAQIECBAgQKA8AiolsIiAAGsRFE8RIECAAAECBAgQIECgzAJqJ0CAQNUEBFhVm6h+CBAgQIAAAQIEWiFgDQIECBAgQCAjAQFWRsNQCgECBAgQqJaAbggQIECAAAECBAi0RkCA1RpHqxAgQKA9AlYlQIAAAQIECBAgQIAAgSDA8kNQeQENEiBAgAABAgQIECBAgAABAuUWWE6AVe4OVU+AAAECBAgQIECAAAECBAgsR8A1BLIVEGBlOxqFESBAgAABAgQIECBQPgEVEyBAgCJRWjgAABAASURBVEA7BARY7VC1JgECBAgQIECAwOoF3EmAAAECBAgQuJuAAOtuIL4lQIAAAQJVENADAQIECBAgQIAAgSoJCLCqNE29ECDQSgFrESBAgAABAgQIECBAgEAmAgKsTAZRzTJ0RYAAAQIECBAgQIAAAQIECFRfoP0dCrDab2wHAgQIECBAgAABAgQIECBwYAGvEiBwQAEB1gF5vEiAAAECBAgQIECAQFkE1EmAAAEC1RUQYFV3tjojQIAAAQIECKxUwPUECBAgQIAAgSwFBFhZjkVRBAgQIFBeAZUTIECAAAECBAgQINBqAQFWq0WtR4DA2gWsQIAAAQIECBAgQIAAAQIE7iQgwLoTRpW+1AsBAgQIECBAgAABAgQIECBQfYG6dCjAqsuk9UmAAAECBAgQIECAAAECiwl4jgCBEggIsEowJCUSIECAAAECBAgQyFtAdQQIECBAoL0CAqz2+lqdAAECBAgQILA8AVcRIECAAAECBAgsKSDAWpLGCwQIECBQNgH1EiBAgAABAgQIECBQTQEBVjXnqisCqxVwHwECBAgQIECAAAECBAgQyE5AgNXykViQAAECBAgQIECAAAECBAgQqL6ADjspIMDqpLa9CBAgQIAAAQIECBAgQOAOAV8RIEBgmQICrGVCuYwAAQIECBAgQIBAjgJqIkCAAAECdRAQYNVhynokQIAAAQIEDiTgNQIECBAgQIAAgcwFBFiZD0h5BAgQKIeAKgkQIECAAAECBAgQINA+AQFW+2ytTGBlAq4mQIAAAQIECBAgQIAAAQIEFhWoVIC1aIeeJECAAAECBAgQIECAAAECBColoJn6CQiw6jdzHRMgQIAAAQIECBAgQIAAAQIESiUgwCrVuBRLgAABAgQIECCQj4BKCBAgQIAAgU4JCLA6JW0fAgQIECBA4J4CniFAgAABAgQIECCwDAEB1jKQXEKAAIGcBdRGgAABAgQIECBAgACBqgsIsKo+Yf0tR8A1BAgQIECAAAECBAgQIECAQMYCLQqwMu5QaQQIECBAgAABAgQIECBAgECLBCxDoDsCAqzuuNuVAAECBAgQIECAAIG6CuibAAECBFYsIMBaMZkbCBAgQIAAAQIEui1gfwIECBAgQKBeAgKses1btwQIECBA4DYBnwkQIECAAAECBAiURkCAVZpRKZQAgfwEVESAAAECBAgQIECAAAECnRAQYHVC2R5LC3iFAAECBAgQIECAAAECBAgQqL7AGjsUYK0R0O0ECBAgQIAAAQIECBAgQKATAvYgUGcBAVadp693AgQIECBAgAABAvUS0C0BAgQIlFRAgFXSwSmbAAECBAgQINAdAbsSIECAAAECBDovIMDqvLkdCRAgQKDuAvonQIAAAQIECBAgQGBFAgKsFXG5mACBXATUQYAAAQIECBAgQIAAAQL1ERBg1WfWd+/U9wQIECBAgAABAgQIECBAgED1BSrRoQCrEmPUBAECBAgQIECAAAECBAi0T8DKBAh0W0CA1e0J2J8AAQIECBAgQIBAHQT0SIAAAQIE1iAgwFoDnlsJECBAgAABAp0UsBcBAgQIECBAoK4CAqy6Tl7fBAgQqKeArgkQIECAAAECBAgQKKGAAKuEQ1Myge4K2J0AAQIECBAgQIAAAQIECHRWQIDVWe9bd/ORAAECBAgQIECAAAECBAgQqL6ADlsmIMBqGaWFCBAgQIAAAQIECBAgQKDVAtYjQIDAgoAAa0HBSYAAAQIECBAgQKC6AjojQIAAAQKlFxBglX6EGiBAgAABAgTaL2AHAgQIECBAgACBbgoIsLqpb28CBAjUSUCvBAgQIECAAAECBAgQWKWAAGuVcG4j0A0BexIgQIAAAQIECBAgQIAAgToK1C3AquOM9UyAAAECBAgQIECAAAECBOomoN+KCQiwKjZQ7RAgQIAAAQIECBAgQKA1AlYhQIBAPgICrHxmoRICBAgQIECAAIGqCeiHAAECBAgQaImAAKsljBYhQIAAAQIE2iVgXQIECBAgQIAAAQICLD8DBAgQqL6ADgkQIECAAAECBAgQIFBqAQFWqcen+M4J2IkAAQIECBAgQIAAAQIECBDolkDnAqxudWhfAgQIECBAgAABAgQIECBAoHMCdiLQBgEBVhtQLUmAAAECBAgQIECAAIG1CLiXAAECBO4qIMC6q4fvCBAgQIAAAQIEqiGgCwIECBAgQKBCAgKsCg1TKwQIECBAoLUCViNAgAABAgQIECCQh4AAK485qIIAgaoK6IsAAQIECBAgQIAAAQIE1iwgwFozoQXaLWB9AgQIECBAgAABAgQIECBAoPoCB+pQgHUgHa8RIECAAAECBAgQIECAAIHyCKiUQGUFBFiVHa3GCBAgQIAAAQIECBBYuYA7CBAgQCBHAQFWjlNREwECBAgQIECgzAJqJ0CAAAECBAi0WECA1WJQyxEgQIAAgVYIWIMAAQIECBAgQIAAgTsEBFh3WPiKAIFqCeiGAAECBAgQIECAAAECBCoiIMCqyCDb04ZVcxRI+/eF+R//2MmgKz8Dc9f94MT3vPMFvz33yYc8x8nAz4CfAT8DfgZW+zPwomuufeSj/vOmfU4G3fgZeMTXbrpp0/XNyRz/rK8mAt0TyH9nAVb+M1IhgdsF9s/P/XD/dd//+33f+25wMujGz8DcD77/C8UP5F+mlN7tZOBnwM+AnwE/A6v9GXjsDTc8/7kfvm69k0EXfgZ6f+9D1134rud98J+LP9O09rAaAQJtFRBgtZXX4gRaK3DNmcfe2Pzxj/6ttatajQABAgQIECCQh4AqCLRZIBXrbxvoO/SVxWcHAQIlExBglWxgyiVAgAABAgQIHEDASwQIECCwuMBcSOlVu/c1/yRecsnc4pd4lgCBnAUEWDlPR20ECBAg0AUBWxIgQIAAAQIVE5gPKbx+4AuXjj38ssv2V6w37RCojYAAqzaj1iiBDgrYigABAgQIECBAgEAmAs0Qzu3/whfPzqQcZRAgsEoBAdYq4dp9m/UJECBAgAABAgQIECBAYE0C80V4tX1wX/P1MYTiyzWt5WYCbROw8PIEBFjLc3IVAQIECBAgQIAAAQIECOQpsFhVcyGF1w1+/ovnR39tcDEfzxEonYAAq3QjUzABAgQIECBAgACBVgtYj0ClBFJI6bUDX/jiqN+8qtRcNVNzAQFWzX8AtE+AAAECBAi0SMAyBAgQIJCDwMJfFTxr9/702hyKUQMBAq0TEGC1ztJKBAgQILBGAbcTIECAAAECBNYgMJdSOK9/w6Fv9F8bXIOiWwlkKiDAynQwyiKwSgG3ESBAgAABAgQIEKijwHwK4YLBL3zxFfGSS+bqCKBnAlUXEGDdY8KeIECAAAECBAgQIECAAIFyCaTtA4NbX1GumlXbfQEVlElAgFWmaamVAAECBAgQIECAAAECOQl0uZYYwlxK6dz+femN8X3vm+9yObYnQKCNAgKsNuJamgABAgQIECBAgMDBBLxOgMCqBYrwKrx+4AuXnhcvu2z/qldxIwECpRAQYJViTIokQIAAAQIEDiDgJQIECBCooUBK4ZUDX/jiaAwh1bB9LROonYAAq3Yj1zABAgQWE/AcAQIECBAgQKAcAkVgNV9kVmcN7G/uLEfFqiRAoBUCAqxWKFqDwIKAkwABAgQIECBAgACBdgvMNUM4v3/wuAv9tcF2U1ufQF4CWQVYedGohgABAgQIECBAgAABAgSyEUihmVLaOfj5L57tDduzmcqqC3EjgZUKCLBWKuZ6AgQIECBAgAABAgQIdF+gbhWkEMO2gb7DxurWuH4JELhVQIB1q4OPBAgQIECAAAECtRPQMAECJRGYK+oc272v+SfxkksWvi6+dRAgUDcBAVbdJq5fAgQIECDQSgFrESBAgACB9grMF8u/buDzX3zVwy+7bH/xtYMAgZoKCLBqOnhtEyCQj4BKCBAgQIAAAQIEFheIIZz7js9/8ZzFX/UsAQJ1EhBg1Wna1e1VZwQIECBAgAABAgQIVEtgvpmao1v2NV8/FkKzWq3phgCB1Qj8JMBaza3uIUCAAAECBAgQIECAAAECLRdYeJ+rCwaffNkF0V8bbDluCJYkUE4BAVY556ZqAgQIECBAgAABAgS6JWDfdgqk/5+9+4uR7MrvAn7u7J9xNH7gEVe3FW8EEvAAUrAEeUg844ASEPBEHCmARJAQilZE4iFjz4xnp+2xPfb8sccEDJnxSkagJEorb4sSBIJ+YbtFTSOBENJugpCA3bGnJ4otRSTbXX1PbtnrWY+n/1R33XvrnHM/o6rpqrr3nvP7fX790PpOVU8dwmtL6+Nz1Yp3XnUJbW0CuQkIsHKbmHoJECBAgAABAgQIHCzgKIEsBapPPip49oPt+pUsG1A0AQKdCgiwOuW1OAECBAgQIJCngKoJECBAoGeB6ccGXx2dPHXT/zbYs7ztCGQiIMDKZFDKJECAQHYCCiZAgAABAgQIzCaw25x2fbQ+/lq1tjYNspqnbgQIEHhYQID1sIdnBJISUAwBAgQIECBAgACB4gViPD9afurF4vvUIAECcwmUHmDNheNiAgQIECBAgAABAgQIEOhGoAphEmO8MNqJb1Wrq9N3YXWzkVWHIqDPwgUEWIUPWHsECBAgQIAAAQIECBCYTaDXsyYxhOtLG3euVJubO73ubDMCBLIUEGBlOTZFEyBAgAABAgQIJCmgKAIEZhKIVXhpaX18rgqhybFmusRJBAgMXECANfBvAO0TIECAAIHUBNRDgAABAgULxFg33f3S0vfqN5qvbgQIEJhZQIA1M5UTCRAgkI2AQgkQIECAAAECKQpMPzb4+rdPnrrpY4MpjkdNBNIWEGClPR/VLUzAxgQIECBAgAABAgQItCYQQ13F+Mbyxp0LZ9bWJq2tayECBAYj0F2ANRhCjRIgQIAAAQIECBAgQIDAgQJVfOFbjz2+cuA5DuYroHICPQgIsHpAtgUBAgQIECBAgAABAgQOEij42PTdVpdG2/Gmd14VPGWtEehBQIDVA7ItCBAgQIAAAQIEOhewAQECiQlUIUxCDDeW1scv+51XiQ1HOQQyFBBgZTg0JRMgQIAAgW4ErEqAAAECBFoV+NpoY3yu1RUtRoDAYAUEWIMdvcYJEOhEwKIECBAgQIAAAQK7daxfeGK7vl6FEHEQIECgDQEBVhuK1mhVwGIECBAgQIAAAQIECGQrMGkSq6vrT/7IdR8bzHaGCifQm8BRNhJgHUXLuQQIECBAgAABAgQIECCwn0CTXYXXltfH559bXd3d7ySvtypgMQKDERBgDWbUGiVAgAABAgQIECBA4FEBr7QkMA2vzo5Onrrc0nqWIUCAwEMCAqyHODwhQIAAAQIECBA4soALCBAYusCkAbjchFc3q7W16ePmqRsBAgTaFRBgtetpNQIECBAgcCwBFxEgQIAAgUwFdmMI15bWx5eEV5lOUNkEMhEQYGUyKGUSIHCogBMIECDUu3yVAAAQAElEQVRAgAABAgR6FqhjfeGby09d7Hlb2xEgMEABAdYAh75/y44QIECAAAECBAgQIEDgcIEqhElzP7+8E970C9sP93IGgfQE8qtIgJXfzFRMgAABAgQIECBAgACBRQpMYgw3nlgfv15tbu4sspCF7m1zAgR6FRBg9cptMwIECBAgQIAAAQIEPhXwNVuBy0sb4xeqEGK2HSicAIHsBARY2Y1MwQQIECBAgACBBwIeECBAoD+BGOomszo72q6v9LepnQgQIPCJgADrEwd/EyBAgMBgBTROgAABAgQIzCAwqUK88u2Tj7/lY4MzaDmFAIHWBQRYrZNakMAABbRMgAABAgQIECBQrkCMdYzx6mjjzotn1tYm5TaqMwIEUhYQYCUyHWUQIECAAAECBAgQIEAgSYGqev53Hnv8UpK1KYpAhgJKPp6AAOt4bq4iQIAAAQIECBAgQIBA6QKTWIWLo+367cTeeVW6u/4IENhDQIC1B4qXCBAgQIAAAQIECJQtoDsCBwtUIUw/Knh9+ZvjV/zOq4OtHCVAoB8BAVY/znYhQIAAAQIEShPQDwECBAoWqGO8NFofny+4Ra0RIJCZgAArs4EplwABAiUJ6IUAAQIECBBITmA3xPj80k68VoUQk6tOQQQIDFZAgDXY0Wu8EAFtECBAgAABAgQIEGhLYPqxwWujJ79yw8cG2yK1DgECbQkIsEJblNYhQIAAAQIECBAgQIBAngJVCHVzv7K0Pj5Xra7u5tmFqgkcJuB4zgICrJynp3YCBAgQIECAAAECBAjMLxBjCM8/cfLUy4cu5QQCBAgsSECAtSB42xIgQIAAAQIECAxTQNcEEhOY1CFcvrtdv12trU0/QphYecohQIDAJwICrE8c/E2AAAECBAjkI6BSAgQIEGhHYPpRwetPro8vPb25udPOklYhQIBANwICrG5crUqAAIHEBZRHgAABAgQIDF2gjvWF0U+NLwzdQf8ECOQhIMDKY06qTFFATQQIECBAgAABAgTyFNitQji3vBPerFZCnWcLqiZAYGgCCw2whoatXwIECBAgQIAAAQIECCxYYPp7rq7dWh9frXxscMGjGNb2uiUwr4AAa15B1xMgQIAAAQIECBAgQKB7gTZ2iM0il5fWx+dWgndeNRZuBAhkJCDAymhYSiVAgAABAgQIEJhHwLUEBiwQPw6szt7drq8MWEHrBAhkLCDAynh4SidAgAABAr0L2JAAAQIEchSYxBCvjE6euul/G8xxfGomQGAqIMCaKrgTIECgRwFbESBAgAABAgT6EqhC2I0hXFveuPNitbY2/f1XfW1tHwIECLQqIMBqldNiPQnYhgABAgQIECBAgACBGQRiiOeWlp+6OMOpTiFAgECKAg9qEmA9oPCAAAECBAgQIECAAAECxQhMYgwXR9vxZrW6ultMVxo5hoBLCJQhIMAqY466IECAAAECBAgQIECgK4H81p2EGG4sb4xfqTY3d/IrX8UECBB4VECA9aiJVwgQIECAAAECBFoWsBwBAv0JVDFeGm2Mz/W3o50IECDQvYAAq3tjOxAgQIAAgTYErEGAAAECBA4T2A0hnn1iJ16rmgeHnew4AQIEchIQYOU0LbUSIDCngMsJECBAgAABAsUKTGIIV0fLX3nTxwaLnbHGCAxaQIA16PEfo3mXECBAgAABAgQIECCQmkAdY3h9eX183i9sT2006iGQsUBipQuwEhuIcggQIECAAAECBAgQIHAEgdic+/zSY6dear66JSagHAIE2hMQYLVnaSUCBAgQIECAAAECBNoVsNrBApMQ48t3t+u3q7W1ycGnOkqAAIG8BQRYec9P9QQIECBAgACBQwQcJkCgUIHdEMONpY07K09vbu4U2qO2CBAg8EBAgPWAwgMCBAgQILCPgJcJECBAgEBiAnUIL442xucTK0s5BAgQ6ExAgNUZrYUJEPisgMcECBAgQIAAAQKtCOw24dW55e36RhVC87CVNS1CgACB5AUEWMmP6EGBHhAgQIAAAQIECBAgMGyBSYjh+vL6+GrlY4PD/k7QfekC+ttDQIC1B4qXCBAgQIAAAQIECBAgkJhADDG+urQxfsE7r2aZjHMIEChNQIBV2kT1Q4AAAQIECBAgQKANAWukJDD9qODZuzvx1ZSKUgsBAgT6FBBg9altLwIECBAgQGBQApolQIBACwKTGMNro5OnbvrfBlvQtAQBAtkKCLCyHZ3CCRAgMAgBTRIgQIAAgSEL7MYQri1vjC9Wa2uTIUPonQABAgIs3wMEihfQIAECBAgQIECAQJ4C8dzS8lMX86xd1QQIEGhXQIA1i6dzCBAgQIAAAQIECBAg0J/ApIrxwmg73qxWV3f729ZOBAgEBMkKCLCSHY3CCBAgQIAAAQIECBAYoMAkxHDjiY07V6rNzZ0c+1czAQIEuhAQYHWhak0CBAgQIECAAAECxxdw5YAFYgwvLW2MX6hCE2MN2EHrBAgQ+LyAAOvzIp4TIECAAAECBQhogQABAnkJNIHVbpNZnV3aqd/Iq3LVEiBAoB8BAVY/znYhQIBAfgIqJkCAAAECBPoSmNQhXB0tf+VNHxvsi9w+BAjkJiDAym1i6s1KQLEECBAgQIAAAQIEDhSIoY4xvrG8Pj7vF7YfKOUgAQIDF0g9wBr4eLRPgAABAgQIECBAgEDBAjFU4fmlxx5fKbhHrRGYVcB5BA4UEGAdyOMgAQIECBAgQIAAAQIEOhGYNKuu3N2u367W1qaPm6fz3lxPgACBcgUEWOXOVmcECBAgQIAAAQJHFXA+gX4Edpttri+tj19+enNzp3nsRoAAAQKHCAiwDgFymAABAgQIEDiagLMJECBA4GCBKoQXb6+PLxx8lqMECBAg8FkBAdZnNTwmQIBAGgKqIECAAAECBMoU2K1j/cIT2/WNlRDqMlvUFQECBLoREGB142rVhQsogAABAgQIECBAgEBSAtPfc3Vt+ac3r1U+NpjUYBRDgEAeAvsHWHnUr0oCBAgQIECAAAECBAikLhDrEF5bWh+fq1a88yr1YQ2yPk0TyEBAgJXBkJRI4GGBqvn55+FXPCNAgAABAgQIEFiswH67V598VPDsB9v1K/ud43UCBAgQOFxAgHW4kTMIJCUQQ/ijpApSDAECBAgQaEfAKgRKFJh+bPDV0clTN/1vgyWOV08ECPQpIMDqU9teBNoQiCf+sI1lrEGAQIkCeiJAgACBhAR2m1quj9bHX6vW1qZBVvPUjQABAgSOKyDAOq6c6wgsSOBEjP9/QVsPY1tdEiBAgAABAgTaEIjx/Gj5qRfbWMoaBAgQIBCCAMt3QesCFuxWYPeL8W63O1idAAECBAgQIEDguAJVCJMY44XRTnyrWl2dvgvruEu5jgABAskL9FmgAKtPbXsRaEMgfuE7bSxjDQIECBAgQIAAgdYFJjGE60sbd65Um5s7ra9uwRIF9ESAwIwCAqwZoZxGIBWB+7/y4++H4H8iDP4QIECAAAECBD4WSOevWIWXltbH56oQmhwrnbpUQoAAgRIEBFglTFEPwxKoqtjkV/eG1bRuCRAgQKBTAYsTIDCfQIx1s8AvLX2vfqP56kaAAAECHQgIsDpAtSSBzgXqyu/B6hzZBgSOJuBsAgQIEBiswPRjg69/++Spmz42ONjvAY0TINCDgACrB2RbEGhdoKq+2/qai19QBQQIECBAgACBvARiqKsY31jeuHPhzNraJK/iVUuAAIG8BARYec3rkGodHoxAFf73YHrVKAECBAgQIEAgVYEqvvCtxx5fSbU8dREgULLA8HoTYA1v5jouQqD6VhFtaIIAAQIECBAgkKfA9N1Wl0bb8aZ3XuU5wI+r9hcBAlkJCLCyGpdiCXwiUNfxf37yyN8ECBAgQIAAgcUJDHHnKoRJiOHG0vr4Zb/zaojfAXomQGBRAgKsRcnbl8AcAvWJU5tzXO5SAgQIEEhHQCUECOQn8LXRxvhcfmWrmAABAnkLCLDynp/qByrw+7ee/ihU4c5A29c2gc8JeEqAAAECBHoR2K1j/cIT2/X1KoTYy442IUCAAIEHAgKsBxQeEMhLoKrjN1qr2EIECBAgQIAAAQIHCUyaxOrq+pM/ct3HBg9icowAAQLdCQiwWrK1DIG+BaoTX/ztEKo6+EOAAAECBAgQINClQJNdhdeW18fnn1td3e1yI2sTIJCHgCoXIyDAWoy7XQnMLbAb4v8JIe7MvZAFCBAgQIAAAQIE9hOYhldnRydPXd7vBK8fS8BFBAgQOLKAAOvIZC4gkIbA/dGPf1CF+LtpVKMKAgQIECBAoF8Bu/UgMGn2uNyEVzertbXp4+apGwECBAgsSkCAtSh5+xKYV2ClqmNVvzTvMq4nQIDAYAU0ToAAgf0FdmMI15bWx5eEV/sjOUKAAIE+BQRYfWrbi0DLAlujZ3+zWfJ+c3cjsBABmxIgQIAAgRIF6lhf+ObyUxdL7E1PBAgQyFVAgJXr5NRdisB8faxMf4l7NZ5vEVcTIECAAAECBAhMBaoQJs39/PJOeNMvbJ+KuBMgQCAdgQICrHQwVUJgEQInYvzXi9jXngQIECBAgACBwgQmMYYbT6yPX682N/1HOYUNVzulCOhjyAICrCFPX+9FCHxw+5lfbxr5oLm7ESBAgAABAgQIHF/g8tLG+IUqhHj8JTK4UokECBDIVECAlenglE3ggUBVNT9kxbcePPeAAAECBAgQ6FTA4oUJxFA3mdXZ0XZ9pbDOtEOAAIGiBARYRY1TM4MVqMP0l7k3QdZgBTROgEBeAqolQIBAKgKTKsQr3z75+Fs+NpjKSNRBgACBvQUEWHu7eJVAVgJbXz/zuzHEX82qaMXOKeByAgQIECBAYC6BGOsY49XRxp0Xz6ytTeZay8UECBAg0LmAAKtzYhskK1BYYV+cfOGfNC191NzdCBAgQIAAAQIEDhOoqud/57HHLx12muMECBAgkIbAXAFWGi2oggCBqcD7P/wffy9U8benj90JECBAgAABAgT2FZjEKlwcbddve+fVvkYOEHhEwAsEFi0gwFr0BOxPoC2BlZU6ho/fhfVhW0tahwABAgQIECBQkkAVwvSjgteXvzl+ZQG/86okSr0QIECgdwEBVu/kNiTQncD9Wz9xt4rhl7vbwcoECBAgQGCRAvYmMJ9AHeOl0fr4/HyruJoAAQIEFiEgwFqEuj0JdCjwxRPxnzbLbzV3NwIECDwq4BUCBAgMU2A3xPj80k68VoUQh0mgawIECOQtIMDKe36qJ/CIwHdvnbkfYv33mwPTt8g3X9zaFrAeAQIECBAgkJXA9Geia6Mnv3LDxwazmptiCRAg8JCAAOshDk96ErBNxwJbH93/d80/Lt7peBvLEyBAgAABAgSSFqhCqJv7laX18blqdXU36WIVR4AAgTIFWutKgNUapYUIJCSw+tzuzk74a01F/6+5uxEgQIAAAQIEhigQYwjPP3Hy1MtDbF7PJQnohQCBf16eJAAAEABJREFUqYAAa6rgTqBAgQ/fO/NhrOvnm9aan92av90IECBAgAABAsMRmNQhXL67Xb9dra1NwnD61ikBAgSKFRBgFTtajREI4f7Xn/3VxuFfNHc3AgQIECAwl4CLCWQkMP2o4PUn18eXnt7c3MmobqUSIECAwAECAqwDcBwiUITAl+L0XVh3i+hFEwTyFlA9AQIECPQgUMf6wuinxhd62MoWBAgQINCjgACrR2xbEViEwNY7Z/4g7MQfbfb+TnPP/KZ8AgQIECBAgMC+ArtVCOeWd8Kb1Uqo9z3LAQIECBDIUkCAleXY5ijapYMU2HrvzPtVDD8fQvxokACaJkCAAAECBEoXmDQNXru1Pr5a+dhgQ+FGgACBEEJhCAKswgaqHQL7Cdx79/S/j7H6heZ4bO5uBAgQIECAAIFSBKY/21xeWh+fWwneeVXKUFPpQx0ECKQjIMBKZxYqIdC5wP2P7v1GiPEfhipM/5Wy8/1sQIAAAQIECAxeoFuA+HFgdfbudn2l242sToAAAQKLFhBgLXoC9ifQp8Dqc7tbH229F2O43GwrxGoQ3AgQIJC+gAoJENhHYBJDvDI6eeqm/21wHyEvEyBAoCABAVZBw9QKgZkEmhDr/u3TL8dQX/ZOrJnEnFSCgB4IECBAoCiBKoTdGMK15Y07L1Zra/5RrqjpaoYAAQJ7Cwiw9nbxKoHiBe5/eP/VEKt/1DTa/PzX/H3IzWECBAgQIECAQCoCMcRzS8tPXUylHnUQIECAQPcCAqzujT/dwVcCaQmsPre79eEH/yrG8Heawj5s7m4ECBAgQIAAgdQFJs3PLhdH2/Fmtbq6m3qx6iNAYLACGu9AQIDVAaolCWQj0IRY9989/WsnQvyZpubvNnc3AgQIECBAgECSAlUIkxDDjeWN8SvV5uZOkkUqqkUBSxEgQOBhAQHWwx6eERikwAe3z/yHKk5+tGn+O83djQABAgQIEChBoLAe6hhXRhvjc4W1pR0CBAgQmFFAgDUjlNMIlC5w792/8kH4UvwzIVT/LITm3zebv9wIECAwdAH9EyCQhMBu86PJ2aWdeLVqHiRRkSIIECBAoHcBAVbv5DYkkK7A1jtn/mDr9jP/OIb4czGG/5tupSrLSECpBAgQIEBgHoFJDOHqaPkrb/rY4DyMriVAgED+AgKs/Geog+IF+m/w/u0zvz6ZxD/f/CPnf252nzR3NwIECBAgQIBA3wJ18w9qry+vj8/7he1909uPAAEC6QkMI8BKz11FBJIX+PC9Mx9ufbj1TFPo32ruW83djQABAgQIECDQl0BsNnp+6bFTLzVf3QgQIDC7gDOLFRBgFTtajRFoQWD1ud2t26d/68tf/qE/W1XV9AfID1tY1RIECBAgQIAAgYMEJiHGl+9u129Xa2veCX6QVEfHLEuAAIEUBQRYKU5FTQQSE/jOP/9Lv3fv1jMrsfqjP1eF8GshxI8SK1E5BAgQIEAgJQG1HF9gN8RwY2njzsrTm5s7x1/GlQQIECBQmoAAq7SJ6odAhwL3b/303XtLa3/3S1X4UzHGf9NsNX17f/PFjQABAm0LWI8AgSEK1CG8ONoYnx9i73omQIAAgYMFBFgH+zhKgMDnBVZW6u/eOnP//rtn/l5V7f7pKoazoQrvf/40zxMQUAIBAgQIEMhHYLcJr84tb9c3qhCah/kUrlICBAgQ6EdAgNWPs10yFVD2wQL3bv3k/7r37ulrW7eeGYVQ/WwI4beau1/43iC4ESBAgAABAjMLTEIM15fXx1crHxucGc2JBAgQGJpA1wHW0Dz1S2CgAlXcuv3Mb2zdPv3Xt5ae+ZNVqP92VYX/EUL8XgiVf0UN/hAgQIAAAQL7CMQQ46tLG+MXvPNqHyEvE8hHQKUEOhUQYHXKa3ECAxRYqep7t5/9zXujtb9QxR/64S/Ukx9rfiC91Nw3BqihZQIECBAgQGB/gek/cp29uxNf3f+UoR3RLwECBAjsJyDA2k/G6wQIzCewslLfe/cvf/D+13/yv9y7ffrl5v5jk2rnT8QqPNuEWV9tFv/lEOK/bb7+1+Z+NwTv1Ar+ECBAgMD8AlbIQ+BEmMQYXhudPHXT/zaYx8hUSYAAgUULCLAWPQH7ExiQwO/f+qsf3b91+j81YdY7W7dP/+LW7TN/Y+v26b/Y3Edbt37ii+FL8YkY66djiH8zfPw7teLPVyH+wjTwcg9fTcXgRDjxi7GuvuperoHZmq3vAd8DXX8PnFiOP7u8Mb5Yra1Ngj8ECBAgQGAGAQHWDEhOIUCgB4GqilvvnHn//rvPbt6/feYbWx//Tq0z7927feZf3rt9+p3M7kXX+3P/4NavfPnZ//6OOwPfA74HfA/4Hjju98Cpn/lv3+jhpwtbECBAgEBBAgKsgoZZViu6IUCAAAECBAgQIECAAAECBMoXmK1DAdZsTs4iQIAAAQIECBAgQIAAAQJpCqiKwAAEBFgDGLIWCRAgQIAAAQIECBA4WMBRAgQIEEhbQICV9nxUR4AAAQIECBDIRUCdBAgQIECAAIHOBARYndFamAABAgQIHFXA+QQIECBAgAABAgQI7CUgwNpLxWsECOQroHICBAgQIECAAAECBAgQKE5AgFXcSOdvyAoECBAgQIAAAQIECBAgQIBA+QI5dSjAymlaaiVAgAABAgQIECBAgACBlATUQoBATwICrJ6gbUOAAAECBAgQIECAwF4CXiNAgAABAocLCLAON3IGAQIECBAgQCBtAdURIECAAAECBAoXEGAVPmDtESBAgMBsAs4iQIAAAQIECBAgQCBdAQFWurNRGYHcBNRLgAABAgQIECBAgAABAgQ6ERBgdcJ63EVdR4AAAQIECBAgQIAAAQIECJQvoMOjCgiwjirmfAIECBAgQIAAAQIECBBYvIAKCBAYlIAAa1Dj1iwBAgQIECBAgACBHwh4RIAAAQIEchEQYOUyKXUSIECAAAECKQqoiQABAgQIECBAoAcBAVYPyLYgQIAAgYMEHCNAgAABAgQIECBAgMDBAgKsg30cJZCHgCoJECBAgAABAgQIECBAgEDBAgKs7w/XFwIECBAgQIAAAQIECBAgQKB8AR3mKSDAynNuqiZAgAABAgQIECBAgMCiBOxLgACB3gUEWL2T25AAAQIECBAgQIAAAQIECBAgQOAoAgKso2g5lwABAgQIEEhHQCUECBAgQIAAAQKDERBgDWbUGiVAgMCjAl4hQIAAAQIECBAgQIBADgICrBympMaUBdRGgAABAgQIECBAgAABAgQIdCyQQIDVcYeWJ0CAAAECBAgQIECAAAECBBIQUAKB4wsIsI5v50oCBAgQIECAAAECBAj0K2A3AgQIDFRAgDXQwWubAAECBAgQIDBUAX0TIECAAAEC+QkIsPKbmYoJECBAgMCiBexPgAABAgQIECBAoFcBAVav3DYjQIDApwK+EiBAgAABAgQIECBAgMCsAgKsWaWcl56AiggQIECAAAECBAgQIECAAIHyBZoOBVgNghsBAgQIECBAgAABAgQIEChZQG8EchcQYOU+QfUTIECAAAECBAgQINCHgD0IECBAYIECAqwF4tuaAAECBAgQIDAsAd0SIECAAAECBI4nIMA6npurCBAgQIDAYgTsSoAAAQIECBAgQGCAAgKsAQ5dywSGLqB/AgQIECBAgAABAgQIEMhLQICV17xSqVYdBAgQIECAAAECBAgQIECAQPkCyXQowEpmFAohQIAAAQIECBAgQIAAgfIEdESAQBsCAqw2FK1BgAABAgQIECBAgEB3AlYmQIAAgcELCLAG/y0AgAABAgQIEBiCgB4JECBAgAABAjkLCLBynp7aCRAgQKBPAXsRIECAAAECBAgQILAgAQHWguBtS2CYAromQIAAAQIECBAgQIAAAQJHFxBgHd1ssVfYnQABAgQIECBAgAABAgQIEChfQIcPCQiwHuLwhAABAgQIECBAgAABAgRKEdAHAQLlCAiwypmlTggQIECAAAECBAi0LWA9AgQIECCQhIAAK4kxKIIAAQIECBAoV0BnBAgQIECAAAEC8woIsOYVdD0BAgQIdC9gBwIECBAgQIAAAQIEBi0gwBr0+DU/JAG9EiBAgAABAgQIECBAgACBXAUEWLNPzpkECBAgQIAAAQIECBAgQIBA+QI6TFBAgJXgUJREgAABAgQIECBAgACBvAVUT4AAgXYFBFjtelqNAAECBAgQIECAQDsCViFAgAABAgQeCAiwHlB4QIAAAQIECJQmoB8CBAgQIECAAIEyBARYZcxRFwQIEOhKwLoECBAgQIAAAQIECBBYuIAAa+EjUED5AjokQIAAAQIECBAgQIAAAQIE5hHII8Cap0PXEiBAgAABAgQIECBAgAABAnkIqJLAPgICrH1gvEyAAAECBAgQIECAAIEcBdRMgACBEgUEWCVOVU8ECBAgQIAAAQLzCLiWAAECBAgQSExAgJXYQJRDgAABAgTKENAFAQIECBAgQIAAgfYEBFjtWVqJAAEC7QpYjQABAgQIECBAgAABAgQ+FhBgfczgr1IF9EWAAAECBAgQIECAAAECBAjkL3BYgJV/hzogQIAAAQIECBAgQIAAAQIEDhNwnEDSAgKspMejOAIECBAgQIAAAQIE8hFQKQECBAh0JSDA6krWugQIECBAgAABAkcXcAUBAgQIECBAYA8BAdYeKF4iQIAAAQI5C6idAAECBAgQIECAQGkCAqzSJqofAgTaELAGAQIECBAgQIAAAQIECCQkIMBKaBhllaIbAgQIECBAgAABAgQIECBAoHyBfjoUYPXjbBcCBAgQIECAAAECBAgQILC3gFcJEDhUQIB1KJETCBAgQIAAAQIECBBIXUB9BAgQIFC2gACr7PnqjgABAgQIECAwq4DzCBAgQIAAAQLJCgiwkh2NwggQIEAgPwEVEyBAgAABAgQIECDQhYAAqwtVaxIgcHwBVxIgQIAAAQIECBAgQIAAgc8JCLA+B1LCUz0QIECAAAECBAgQIECAAAEC5QsMqUMB1pCmrVcCBAgQIECAAAECBAgQ+KyAxwQIZCIgwMpkUMokQIAAAQIECBAgkKaAqggQIECAQPcCAqzuje1AgAABAgQIEDhYwFECBAgQIECAAIEDBQRYB/I4SIAAAQK5CKiTAAECBAgQIECAAIFyBQRY5c5WZwSOKuB8AgQIECBAgAABAgQIECCQpIAAq9WxWIwAAQIECBAgQIAAAQIECBAoX0CHfQsIsPoWtx8BAgQIECBAgAABAgQIhMCAAAECRxAQYB0By6kECBAgQIAAAQIEUhJQCwECBAgQGIqAAGsok9YnAQIECBAgsJeA1wgQIECAAAECBDIQEGBlMCQlEiBAIG0B1REgQIAAAQIECBAgQKBbAQFWt75WJzCbgLMIECBAgAABAgQIECBAgACBfQWKCbD27dABAgQIECBAgAABAgQIECBAoBgBjQxTQIA1zLnrmgABAgQIEJZweuwAABAASURBVCBAgACB4QronAABAtkJCLCyG5mCCRAgQIAAAQIEFi+gAgIECBAgQKBPAQFWn9r2IkCAAAECBH4g4BEBAgQIECBAgACBGQUEWDNCOY0AAQIpCqiJAAECBAgQIECAAAECQxAQYA1hyno8SMAxAgQIECBAgAABAgQIECBAIHGBFgKsxDtUHgECBAgQIECAAAECBAgQINCCgCUILE5AgLU4ezsTIECAAAECBAgQIDA0Af0SIECAwLEEBFjHYnMRAQIECBAgQIDAogTsS4AAAQIECAxPQIA1vJnrmAABAgQIECBAgAABAgQIECCQlYAAK6txKZYAgXQEVEKAAAECBAgQIECAAAECfQkIsPqSts+jAl4hQIAAAQIECBAgQIAAAQIEyhdooUMBVguIliBAgAABAgQIECBAgAABAl0KWJvA0AUEWEP/DtA/AQIECBAgQIAAgWEI6JIAAQIEMhYQYGU8PKUTIECAAAECBPoVsBsBAgQIECBAYDECAqzFuNuVAAECBIYqoG8CBAgQIECAAAECBI4sIMA6MpkLCBBYtID9CRAgQIAAAQIECBAgQGBYAgKsYc370259JUCAAAECBAgQIECAAAECBMoXKKZDAVYxo9QIAQIECBAgQIAAAQIECLQvYEUCBFIQEGClMAU1ECBAgAABAgQIEChZQG8ECBAgQGBOAQHWnIAuJ0CAAAECBAj0IWAPAgQIECBAgMCQBQRYQ56+3gkQIDAsAd0SIECAAAECBAgQIJCpgAAr08Epm8BiBOxKgAABAgQIECBAgAABAgT6FxBg9W1uPwIECBAgQIAAAQIECBAgQKB8AR22KiDAapXTYgQIECBAgAABAgQIECDQloB1CBAg8KmAAOtTCV8JECBAgAABAgQIlCegIwIECBAgUISAAKuIMWqCAAECBAgQ6E7AygQIECBAgAABAosWEGAtegL2J0CAwBAE9EiAAAECBAgQIECAAIE5BARYc+C5lECfAvYiQIAAAQIECBAgQIAAAQJDFRhSgDXUGeubAAECBAgQIECAAAECBAgMSUCvBQoIsAocqpYIECBAgAABAgQIECAwn4CrCRAgkJaAACuteaiGAAECBAgQIECgFAF9ECBAgAABAq0JCLBao7QQAQIECBAg0LaA9QgQIECAAAECBAhMBQRYUwV3AgQIlCugMwIECBAgQIAAAQIECGQvIMDKfoQa6F7ADgQIECBAgAABAgQIECBAgMAiBfoJsBbZob0JECBAgAABAgQIECBAgACBfgTsQqAjAQFWR7CWJUCAAAECBAgQIECAwHEEXEOAAAECjwoIsB418QoBAgQIECBAgEDeAqonQIAAAQIEChMQYBU2UO0QIECAAIF2BKxCgAABAgQIECBAIB0BAVY6s1AJAQKlCeiHAAECBAgQIECAAAECBFoREGC1wmiRrgSsS4AAAQIECBAgQIAAAQIECJQvcFiHAqzDhBwnQIAAAQIECBAgQIAAAQLpC6iQQNECAqyix6s5AgQIECBAgAABAgRmF3AmAQIECKQqIMBKdTLqIkCAAAECBAjkKKBmAgQIECBAgEAHAgKsDlAtSYAAAQIE5hFwLQECBAgQIECAAAECDwsIsB728IwAgTIEdEGAAAECBAgQIECAAAECBQkIsAoaZrutWI0AAQIECBAgQIAAAQIECBAoXyCPDgVYecxJlQQIECBAgAABAgQIECCQqoC6CBDoXECA1TmxDQgQIECAAAECBAgQOEzAcQIECBAgcJCAAOsgHccIECBAgAABAvkIqJQAAQIECBAgUKyAAKvY0WqMAAECBI4u4AoCBAgQIECAAAECBFIUEGClOBU1EchZQO0ECBAgQIAAAQIECBAgQKBlAQFWy6BtLGcNAgQIECBAgAABAgQIECBAoHwBHc4uIMCa3cqZBAgQIECAAAECBAgQIJCWgGoIEBiIgABrIIPWJgECBAgQIECAAIG9BbxKgAABAgTSFxBgpT8jFRIgQIAAAQKpC6iPAAECBAgQIECgUwEBVqe8FidAgACBWQWcR4AAAQIECBAgQIAAgf0EBFj7yXidQH4CKiZAgAABAgQIECBAgAABAkUKCLAeGqsnBAgQIECAAAECBAgQIECAQPkCOsxNQICV28TUS4AAAQIECBAgQIAAgRQE1ECAAIEeBQRYPWLbigABAgQIECBAgMBnBTwmQIAAAQIEZhMQYM3m5CwCBAgQIEAgTQFVESBAgAABAgQIDEBAgDWAIWuRAAECBws4SoAAAQIECBAgQIAAgbQFBFhpz0d1uQiokwABAgQIECBAgAABAgQIEOhMIJkAq7MOLUyAAAECBAgQIECAAAECBAgkI6AQAscREGAdR801BAgQIECAAAECBAgQWJyAnQkQIDA4AQHW4EauYQIECBAgQIAAgRAYECBAgAABAjkJCLBympZaCRAgQIBASgJqIUCAAAECBAgQINCTgACrJ2jbECBAYC8BrxEgQIAAAQIECBAgQIDA4QICrMONnJG2gOoIECBAgAABAgQIECBAgACBwgVOhFB4h9ojQIAAAQIECBAgQIAAAQIEQggQCOQr4B1Y+c5O5QQIECBAgAABAgQI9C1gPwIECBBYiIAAayHsNiVAgAABAgQIDFdA5wQIECBAgACBowoIsI4q5nwCBAgQILB4ARUQIECAAAECBAgQGJSAAGtQ49YsAQI/EPCIAAECBAgQIECAAAECBHIREGDlMqkU61QTAQIECBAgQIAAAQIECBAgUL5AAh0KsBIYghIIECBAgAABAgQIECBAoGwB3REgMJ+AAGs+P1cTIECAAAECBAgQINCPgF0IECBAYMACAqwBD1/rBAgQIECAwNAE9EuAAAECBAgQyFNAgJXn3FRNgAABAosSsC8BAgQIECBAgAABAr0LCLB6J7chAQIECBAgQIAAAQIECBAgQIDAUQQEWEfRSudclRAgQIAAAQIECBAgQIAAAQLlC+jw+wICrO9D+EKAAAECBAgQIECAAAECJQroiQCBEgQEWCVMUQ8ECBAgQIAAAQIEuhSwNgECBAgQWLCAAGvBA7A9AQIECBAgMAwBXRIgQIAAAQIECBxfQIB1fDtXEiBAgEC/AnYjQIAAAQIECBAgQGCgAgKsgQ5e20MV0DcBAgQIECBAgAABAgQIEMhPQIB11Jk5nwABAgQIECBAgAABAgQIEChfQIdJCQiwkhqHYggQIECAAAECBAgQIFCOgE4IECDQloAAqy1J6xAgQIAAAQIECBBoX8CKBAgQIECAQCMgwGoQ3AgQIECAAIGSBfRGgAABAgQIECCQu4AAK/cJqp8AAQJ9CNiDAAECBAgQIECAAAECCxQQYC0Q39bDEtAtAQIECBAgQIAAAQIECBAgcDyBnAKs43XoKgIECBAgQIAAAQIECBAgQCAnAbUSeERAgPUIiRcIECBAgAABAgQIECCQu4D6CRAgUJaAAKuseeqGAAECBAgQIECgLQHrECBAgAABAskICLCSGYVCCBAgQIBAeQI6IkCAAAECBAgQINCGgACrDUVrECBAoDsBKxMgQIAAAQIECBAgQGDwAgKswX8LDAFAjwQIECBAgAABAgQIECBAgEDOArMFWDl3qHYCBAgQIECAAAECBAgQIEBgNgFnEUhUQICV6GCURYAAAQIECBAgQIBAngKqJkCAAIH2BQRY7ZtakQABAgQIECBAYD4BVxMgQIAAAQIEHhIQYD3E4QkBAgQIEChFQB8ECBAgQIAAAQIEyhEQYJUzS50QINC2gPUIECBAgAABAgQIECBAIAkBAVYSYyi3CJ0RIECAAAECBAgQIECAAAEC5Qt03aEAq2th6xMgQIAAAQIECBAgQIAAgcMFnEGAwAECAqwDcBwiQIAAAQIECBAgQCAnAbUSIECAQKkCAqxSJ6svAgQIECBAgMBxBFxDgAABAgQIEEhQQICV4FCURIAAAQJ5C6ieAAECBAgQIECAAIF2BQRY7XpajQCBdgSsQoAAAQIECBAgQIAAAQIEHggIsB5QlPZAPwQIECBAgAABAgQIECBAgED5AsPoUIA1jDnrkgABAgQIECBAgAABAgT2E/A6AQLJCwiwkh+RAgkQIECAAAECBAikL6BCAgQIECDQpYAAq0tdaxMgQIAAAQIEZhdwJgECBAgQIECAwD4CAqx9YLxMgAABAjkKqJkAAQIECBAgQIAAgRIFBFglTlVPBOYRcC0BAgQIECBAgAABAgQIEEhMQIDVwUAsSYAAAQIECBAgQIAAAQIECJQvoMP+BARY/VnbiQABAgQIECBAgAABAgQeFvCMAAECMwkIsGZichIBAgQIECBAgACBVAXURYAAAQIEyhcQYJU/Yx0SIECAAAEChwk4ToAAAQIECBAgkLSAACvp8SiOAAEC+QiolAABAgQIECBAgAABAl0JCLC6krUugaMLuIIAAQIECBAgQIAAAQIECBDYQ6CwAGuPDr1EgAABAgQIECBAgAABAgQIFCagnaEJCLCGNnH9EiBAgAABAgQIECBAYCrgToAAgYwEBFgZDUupBAgQIECAAAECaQmohgABAgQIEOhHQIDVj7NdCBAgQIAAgb0FvEqAAAECBAgQIEDgUAEB1qFETiBAgEDqAuojQIAAAQIECBAgQIBA2QICrLLnq7tZBZxHgAABAgQIECBAgAABAgQIJCvQWoCVbIcKI0CAAAECBAgQIECAAAECBFoTsBCBRQgIsBahbk8CBAgQIECAAAECBIYsoHcCBAgQOKKAAOuIYE4nQIAAAQIECBBIQUANBAgQIECAwJAEBFhDmrZeCRAgQIDAZwU8JkCAAAECBAgQIJCJgAArk0EpkwCBNAVURYAAAQIECBAgQIAAAQLdCwiwuje2w8ECjhIgQIAAAQIECBAgQIAAAQLlC8zVoQBrLj4XEyBAgAABAgQIECBAgACBvgTsQ2C4AgKs4c5e5wQIECBAgAABAgSGJ6BjAgQIEMhSQICV5dgUTYAAAQIECBBYnICdCRAgQIAAAQJ9Cwiw+ha3HwECBAgQCIEBAQIECBAgQIAAAQJHEBBgHQHLqQQIpCSgFgIECBAgQIAAAQIECBAYioAAayiT3qtPrxEgQIAAAQIECBAgQIAAAQLlCxTQoQCrgCFqgQABAgQIECBAgAABAgS6FbA6AQKLFRBgLdbf7gQIECBAgAABAgSGIqBPAgQIECBwbAEB1rHpXEiAAAECBAgQ6FvAfgQIECBAgACBYQoIsIY5d10TIEBguAI6J0CAAAECBAgQIEAgOwEBVnYjUzCBxQuogAABAgQIECBAgAABAgQI9CkgwOpT+wd7eUSAAAECBAgQIECAAAECBAiUL6DDlgQEWC1BWoYAAQIECBAgQIAAAQIEuhCwJgECBEIQYPkuIECAAAECBAgQIFC6gP4IECBAgEDmAgKszAeofAIECBAgQKAfAbsQIECAAAECBAgsTkCAtTh7OxMgQGBoAvp1SW97AAAAhElEQVQlQIAAAQIECBAgQIDAsQQEWMdicxGBRQnYlwABAgQIECBAgAABAgQIDE9geAHW8GasYwIECBAgQIAAAQIECBAgMDwBHRclIMAqapyaIUCAAAECBAgQIECAQHsCViJAgEAqAgKsVCahDgIECBAgQIAAgRIF9ESAAAECBAi0IPDHAAAA//98YkPEAAAABklEQVQDAPHDrAOA6pDqAAAAAElFTkSuQmCC;" vertex="1" parent="1">
          <mxGeometry x="570" y="470" width="85" height="85" as="geometry" />
        </mxCell>
        <mxCell id="8CXxMaMyH3LYBatncUky-18" value="" style="shape=image;verticalLabelPosition=bottom;labelBackgroundColor=default;verticalAlign=top;aspect=fixed;imageAspect=0;image=data:image/png,iVBORw0KGgoAAAANSUhEUgAAAgAAAAGACAYAAADbINq/AAAABGdBTUEAALGPC/xhBQAAACBjSFJNAAB6JgAAgIQAAPoAAACA6AAAdTAAAOpgAAA6mAAAF3CculE8AAAABmJLR0QA/wD/AP+gvaeTAAAAB3RJTUUH6AcDBg8fmEstOQAAGcZJREFUeNrt3XuQpWV9J/Df857Tw3IRUC5iuMwFVoMuWiCTWgFlhmGCuJvEpBRXQ4VUbSWkNKsVaze1CsamxN1Es8ba2tpsdFNZkVhZBhR1w21mGIThEi6KJKJYMIMWxAgMEFCQ7nPOs38MjQN0zzndfS7v5fOpskqGmWHm6Tn9fN/vt6c7RUXcdtyRR3W7K16fovfGnOL4iHxURDoyIl4TEa/ayw99MiIejkj/GNF7OFJ8N0VxT7Q6f3/K9x96OABorHxtHN2dap2Qczoh53R8inxkRPxCRBwZEQft5YfuihQ/ihwPp8gP5Uj3RsTft3ud76Rfjn+swu89lfUXduvKlcfnIs7IKU6LFG+LHL8w9Dd8xD+liBtypG9ETttO27nzPi8HgPp6bvOK41PK61PEuoh8ekQcPoL/zEM5pRsj4qZeLq7/F2c+930BYO+Xcbrt2GNO6UZ6Z8rxzog4bgK/jO9Fjst7UVz+1p07v+2lAlB9M1unTko5vysi3hUR/3ICN+33IsdXc05Xrtg4e5sA8Lzd1X77vEjx2xO69Bc6mHtzyv9rn9y+5OQdO/7ZSwigOvK2OHi2O3VeSvn3IscvluiXdl+k+Kv2bOeS9Pb4USMDwPY1R5+cUusPI+ffiIhWaf8QRfw0pfhSiu6nTnngofu9rADK62db9nltOzp/mCO9NyL2K/EvtZNz2hQRn16xcfZbjQgAt6xadXou8h9FxBkV+3PVSTn/dRS9iwUBgPJd/EXuXZhSfl+ZHyoXsCVyXDS1sbO9lgHgljVHnZCj9ccR8Y6K/znrpMj/O2Z6F5zy0EOPe9kBTE7eFod2u61P5kj/voIX/0t+M/G1Xio+ss+ZM/fWIgBsW7Xq4Kmi98cp0u9ERFGfP3WxKxXpgrc88ODnU0TPyxBgjO+CL4vW7CunfjelfHHs/a+CV0035fznrdnuBekd8VRlA8D2Y1e9J3L+bIo4osZ/DG/PufVb/gohwHg8t3nF8UXqXRIRJ9f4t/lwSvk/tDd0v1KpAHDnmjUHPRfdP4+I9zbkz+OzEfmiU3b88NPaAIARPW7lSLNbp34nRf5MROzfkN/25e19Or+b3hpPlD4AbF999FtTKi6NiGMa+IfzmlS0zzv1gQce8VIFGOL712vj8E6r/YWIeHvTfu8p8s5eLt437M8hMNRNfvuaVX+QUrGtiZd/RERK8fbInbtvOm7VOi9XgOGY3dxe12m1727i5R8RkSOtTinfNLNl6v2lawC2rYv21A9XfjZFfMAf1YiI6Eakix/e8eAnzonoOg6AJVx8uyv/D6bIn46IKScSkSJ/rnVw9/fTyTE78QBw23HHHdjrzn41p/DU+/Lj3Rypda5JAGCRl//uyv/SiNjoNF5mS7vV+fW0Pn4ysQBw0zHHvLKYSldFjn/t7bGgR3LO556284ebHQVAf7PXtU+PIr4UMfwvAlcjd7Sjc3Y6M3Yt9SdY8scA3LZ69auLdrrR5d/X4Smlq285duXHcp0+DwLAsJ/6p6OY3dL+WBSx1eXf19pOtLfkbXHoWBuAO9esOei53N0WKU70NliUbd1u/ObbfvCDHzkKgD0u/6visM6K9iXR0A/0W4Zvt1uddWl9PDnyAHDLUUftm1e0r43Ib3XuS2ISANiDyn/Zbmi3Omen9fGzxfygRVXSOaLIK1pfcvkvi0kAIFT+Q7Su0526JOfFPdQv6jvfsmbVRTnyHznroTEJAM28/FX+w5fiwqkNnU8OPQDcfNyqX4te/nJ4ah02kwDQKCr/kemlyL/WPrP7/4YWAG5evXplpN63I+Ig5zsS3ZTiorc88INP+loCQG2f+qej6JzWviAiPh5V/9K95fVEu9V5Y1ofDy07AOSI4pY1K7dExHrnOnImAaCel7/Kf3xSbG2f0dmYUuS9fbe+df6tq1d+2OU/NutbrbjL1xIA6mR2c3tdZ0X72y7/caWt2DC7deqDy2oAtq9Zc0yK7ncjYj8nOla+lgBQ/XvI5/KfpGc7rc7r910fDy6pASii9z9c/hPRisgfP3LNys03rlz5GscBVO7yvyoO62xtX5Uif9blPxH7trvtP11SA3DLqlVn5SJf4wwnzt8SACrFR/mXR0r5He0N3asHbgAui2jlVv4zR1cKh6eUrr55zarpy3zULFDmp/4caWbL1IeiiM0u/5K8TSJ9Kk/Pf9fP2wDcvPqYcyOlLzq60vG3BIByXjQ+yr/MLcA57Q3dTX0bgMsiWpHShY6slNa3WnH39tXH+PrYQGnMXtc+vbOifbfLv6ThLKfp+VqAl33DkceuendEvM6RldbuSeDYlRf6WgLARC+W6ShmN7cv9Ln8S+/13VNb73xZM/DSb9i+ZuX2FHGq86oEkwAwmctf5V8110+d2dmwYAC4afXqNxWpd7dzqhR/SwAYKx/lX029bnHCPmfN/MPcP7+oQi4iv98RVY5JABjPU7/Kv9JaRff8eRuAO9/85qnnnnjsnyLiVY6pqtLmSK1zT33ggUecBTDUy//LcXjnwPalEeGDkKvrkXarc2RaH50XNQA/e+KxjS7/yr9EN77yoBX/58cbTvYCBYbm0Y1rT3/y67/4ly7/yju8022vm/uH4udVQH63s6m+VioOTJGu/vGZvzSd3/1unzgIWPojRUR6ZMPaD+VebM7Ptl/pRKovpXzOiwLA7u04/VtHU6MckPPHH3185+ZHz3qzryUALNqPzj7xsEc3rL0qIj4bPpd/fUJdTr+S8+75v4iIuGXVqjdGxKGOpnZZb33uFHebBIDFeHTj2tNbMz6xT00dMbN1xfEvBIAo8hnOpLYONwkAAz0d7lH5h4/yr++jYdp95xcRESnSOkdSayYBYK9U/g0KAJHXvxAAepHXOpJGvNlNAsDLqPybJee0NiKiuPG44w5LEUc4ksYwCQC7LwKVf1MbgKPzljikmOrNvMlxNI5JABpO5d9sndw+ocgRb3AUjc2BJgFoIJU/OdIJRY50jKNoNJMANOadvsqf5x//Uj66SCkd5SgazyQANafy50VhMKejil7ORzoKns+EJgGoIZU/8zQARxYp4tWOgj2YBKAuT3kqfxZ2RBER+zsHXsIkABWn8qeP/YuI2Nc5MD+TAFSRyp8B7CsA0I9JACpC5c8i7FdExArnQB8mASg5lT+LtE8RsfvrAkN/JgEoI5U/S3mHXjgDFskkACWh8mc5BACWwiQAE6byRwBggkwCMAkqfwQAysAkAGOi8kcAoGxMAjBiKn8EAErMJACjoPJHAKAKTAIwJCp/BACqxiQAy6TyRwCgwkwCsBQqfwQA6sAkAANS+SMAUDcmAehD5Y8AQI2ZBGA+Kn8EAJrAJADPU/kjANA0JgEaT+WPAECDmQRoJpU/AgCYBGgQlT8CALyYSYDaU/kjAMCCTALUk8ofAQD6MwlQGyp/BABYHJMAlafyRwCAJTMJUE0qfwQAWD6TAJWh8kcAgOEyCVB6Kn8EABgZkwDlpPJHAIDRMwlQGip/BAAYL5MAE6fyRwCAiTEJMBkqfwQAmDyTAGOj8kcAgHIxCTByKn8EACgtkwCjofJHAIDyMwkwNCp/BACoFpMAy6byRwCAyjIJsDQqfwQAqD6TAANT+SMAQL2YBOhL5Y8AALVlEmB+Kn8EAKg/kwAvUPkjAECzmARQ+SMAOAKayyTQVCp/EADAJNAgKn8QAGBPJoEGUPmDAAALMAnUlcofBADoxyRQIyp/EABgMUwCNaDyh/4BIDsGmI9JoKpU/tBXLv5mw2e+lVPxqLOAeZkEqvQeTeUPg7xOHv/E0yfdWXxn1Vkn/dk513R+tuLAexwLzMskUAEqf+jvmWh/55zHz/zpVc8dvbaIiHjigCNf81/Pven1/7DqrG9ERM8RwXxMAmWl8of+D/7fmjn0xrN2nf3ah3r7Hx2xxwcB9lK7/X83fOb0v9nwmbtNArAgk0CZ3qOp/GGQ18njn3j6pDvf/9Spb+vk4oV27GV/C8AkAH2ZBEpA5Q/97Vn5v/TfzfvXAE0CMAiTwKSo/KH/g/9LK/+BAkCESQAGZBIY53s0lT8M8jqZt/IfOADMMQlAXyaBMVD5Q397q/wXHQAiTAIwGJPAqKj8of+Df7/Kf0kBIMIkAAMyCQzzPZrKHwZ5nQxU+S85AMwxCUBfJoEhUPlDf4up/JcdACJMAjAYk8BSqfyh/4P/Yiv/oQSACJMADMgksJj3aCp/GOR1sqTKf2gBYI5JAPoyCQxA5Q/9LafyH3oAiDAJwGBMAgtR+UP/B//lVv4jCQARJgEYkElgz/doKn8Y5HUylMp/ZAFgjkkA+jIJhMofBjHMyn/kASDCJACDae4koPKH/g/+w678xxIAIkwCMKBGTQIqfxjodTKSyn9sAWCOSQD6asQkoPKH/kZZ+Y89AESYBGAw9Z0EVP7Q/8F/1JX/RAJAhEkABlSrSUDlDwO9TsZS+U8sAMwxCUBftZgEVP7Q3zgr/4kHgAiTAAymupOAyh/6P/iPu/IvRQCIMAnAgCo1Caj8YaDXyUQq/9IEgDkmAeirEpOAyh/6m2TlX7oAEGESgMGUdxJQ+UP/B/9JV/6lDAARJgEYUKkmAZU/DPQ6KUXlX9oAMMckAH2VYhJQ+UN/Zar8Sx8AIkwCMJjJTQIqf+j/4F+2yr8SASDCJAADGuskoPKHgV4npaz8KxMA5pgEoK+xTAIqf+ivzJV/5QJAhEkABjO6SUDlD/0f/Mte+VcyAESYBGBAQ50EVP4w0OukEpV/ZQPAHJMA9DWUSUDlD/1VqfKvfACIMAnAYJY+Caj8of+Df9Uq/1oEgAiTAAxoUZOAyh8GuPkrWvnXJgDMMQlAXwNNAip/6K/KlX/tAkCESQAGs/AkoPKH/g/+Va/8axkAIkwCMKAXTQIqfxjg5q9J5V/bADDHJAB9PT8JPHj1oxvWXhsqf1hQnSr/2geACJMADGjj8/8D5nnwr1vl34gAEGESAGCJN39NK//GBIA5JgEABlXnyr9xASDCJABA/wf/ulf+jQwAESYBABa4+RtS+Tc2AMwxCQAwp0mVf+MDQIRJAIDmVf4CwPNMAgANvfkbWvkLAC9hEgBojiZX/gLAPEwCAPV/8G965S8ALMAkAFDTm1/lLwAMwiQAUB8qfwFgUUwCANV/8Ff5CwBLYhIAqOjNr/IXAIbBJABQHSp/AWCoTAIA5X/wV/kLACNhEgAo6c2v8hcAxsEkAFAeKn8BYKxMAgCTf/BX+QsAE2ESAJjQza/yFwDKwCQAMD4qfwGgVEwCAKN/8Ff5CwClZBIAGNHNr/IXAKrAJAAwPCp/AaBSTAIAy3/wV/kLAJVkEgBY4s2v8hcA6sAkADA4lb8AUCsmAYD+D/4qfwGglkwCAAvc/Cp/AaAJTAIAP6fyFwAaxSQAoPIXABrKJAA09uZX+QsAmASAZlH5CwDswSQANOHBX+UvADAPkwBQ25tf5S8A0J9JAKgTlb8AwCKYBIA6PPir/AUAlsAkAFT25lf5CwAsn0kAqBKVvwDAEJkEgCo8+Kv8BQBGwCQAlPbmV/kLAIyeSQAoE5W/AMAYmQSAMjz4q/wFACbAJABM7OZX+QsATJ5JABgnlb8AQInsOQnklBwIMIqn/lD5CwCU0NwkcPO/+u2bIuIxJwIM0WOXH33oTSp/AYAS++vX/t69rW5xYkTa7jSAITz5395rpV/6/EmvutdpCACU3CE3/N1Dh3X3W59Tuij8LQFgyXd//PfDn+yddsR1t+90HPXTdgT1lG64oRMR0z8+c+32lOPSiHi1UwEGtCuldN5hW27/W0ehAaCiXr3lji2tbnGySQAY8LH/9l4rrXX5CwDUgEkAGOzuV/k3iQmgIUwCwF6o/DUA1J1JAHjJY7/KXwCgKUwCQKj8G88E0FAmAWg0lT8agKYzCUDjHvtV/ggA7GYSgKbc/Sp/fs4EQESYBKDmVP5oANg7kwDU7rFf5Y8AwGBMAlCXu1/lz8JMAMzLJACVpvJHA8DymASgco/9Kn8EAIbDJABVuftV/gzOBMBATAJQaip/NACMlkkASvfYr/JHAGA8TAJQlrtf5c/SmQBYEpMATJTKHw0Ak2USgLE/9qv8EQAoB5MAjOvuV/kzPCYAhsIkACOl8kcDQLmZBGDoj/0qfwQAqsEkAMO6+1X+jI4JgJEwCcCyqPzRAFBtJgFY9GO/yh8BgHowCcCgd7/Kn/ExATAWJgHYK5U/GgDqzSQAL3vsV/kjANAMJgGYu/tV/kyOCYCJMAnQcCp/NAA0m0mABj72q/wRACDCJECT7n6VP+VhAqAUTALUnMofDQDsjUmAGj72q/wRAGAQJgHqc/er/CkvEwClZBKg4lT+aABgOUwCVPCxX+WPAADDYBKgOne/yp/qMAFQCSYBSk7ljwYARskkQAkf+1X+CAAwDiYBynP3q/ypLhMAlWQSYMJU/mgAYJJMAkzgsV/ljwAAZWASYHx3v8qf+jABUAsmAUZM5Y8GAMrMJMAIHvtV/ggAUAUmAYZ396v8qS8TALVkEmCZVP5oAKDKTAIs4bFf5Y8AAHVgEmDwu1/lT3OYAGgEkwB9qPzRAECdmQSY57Ff5Y8AAE1gEuDnd7/Kn+YyAdBIJoHGU/mjAXAENJlJoJGP/Sp/EADAJNCsu1/lD3NMABAmgQZQ+YMGABZmEqjlY7/KHwQA6M8kUKe7X+UPCzEBwDxMApWn8gcNACydSaCSj/0qfxAAYPlMAlW6+1X+MCgTAAzAJFB6Kn/QAMDomARK+div8gcBAEbPJFCmu1/lD0tlAoAlMAlMnMofNAAwOSaBiTz2q/xBAIDJMwmM8+5X+cOwmABgCEwCI6fyBw0AlJdJYCSP/Sp/EACg/EwCw7z7Vf4wKiYAGAGTwLKp/EEDANVlEljSY7/KHwQAqD6TwGLufpU/jIsJAMbAJNCXyh80AFBfJoF5H/tV/iAAQP2ZBPa8+1X+MCkmAJgAk4DKHzQA0GBNnARU/iAAANGoSUDlDyViAoASaMAkoPIHDQCwkDpOAip/EACAAdRoElD5Q4mZAKCEajAJqPxBAwAsVRUnAZU/CADAEFRoElD5Q4WYAKACKjAJqPxBAwCMShknAZU/CADAGJRoElD5Q4WZAKCCSjAJqPxBAwBMyiQmAZU/CABACYxxElD5Q42YAKAGxjAJqPxBAwCU1SgmAZU/CABABQxxElD5Q42ZAKCGhjAJqPxBAwBU1VImAZU/CABADSxiElD5Q4OYAKABBpgEVP6gAQDqar5JQOUPAgDQAHOTQKT4k0jxJ4d39z9V5Q/NYwKABnp+EvjPTgI0AACAAAAACAAAgAAAAAgAAIAAAAAIAACAAAAACAAAgAAAAAgAAIAAAAAIAACAAAAACAAAgAAAAAgAACAAAAACAAAgAAAAAgAAIAAAAAIAACAAAAACAAAgAAAAAgAAIAAAAAIAACAAAAACAAAgAAAAAgAAIAAAgAAAAAgAAIAAAAAIAACAAAAACAAAgAAAAAgAAIAAAAAIAACAAAAACAAAgAAAAAgAAIAAAAAIAACAAAAACAAAIAAAAAIAACAAAAACAAAgAAAAlQoAs44BABplpoiInzgHAGiQHE8XEfG0kwCABt3/aXcAeMpRAEBzpIiniojY6SgAoFF2FJHjPucAAA1qAFLcV0RKAgAANElO9xUR8U0nAQANUqRvFW+b3e/uiHjCaQBAE57+Y9cd977hnmJ6OvUi8jecCAA04ul/W0xP93Z/KuAU1zkRAKi/lPPmiOe/FkCKfFlEzDgWAKi1mbSid8ULAWDrRw/cFZGvcS4AUF85pb+9/Te+suuFALD7G+MLjgYAah0BLpn7fy8EgEOPO+CrEfF9hwMAtXT/mlR8/WUBYNM5qZtS+pTzAYAaPvunuHjTOZu6LwsAERGvmtnvixHxQ8cEALWyI5485Et7fsOLAsCm6TQTOf9H5wQAdXr8z39w1/mfm10wAEREXH/hKzZFjqucFgDUQErX3PneL3/tpd9czPd9e63uhyLiGacGAJX2k9TJH5jvX8wbAG74yEH3R4rfd24AUOnH/w/c8ZtX7Bg4AEREXP/RA/4qZ58bAAAq6i/v/HeXX7LQvyz29iOn9tn/AxFxlzMEgArJ+fa8/8wH9/Zd9hoArvtP6ae92d7bI+I+pwkAlXB/K3d+9a5f+fozSw4AERE3TB/4WLvXOjsiHnamAFDiB/+Ih9u5u/Hv3ve1H/f7vsUgP+F1H9t3Z69onaYJAIDS2pGLYt1t773ywUG+czHoz3rDR/Z9cGq2e0pEvtUZA0Cp3Dkz03vLN8/ZdP+gP6BYzM9+7fRBjz+77wEbUuTPOWsAKIUvzszst+6e3/rKI4v5Qe3F/ldu/XB6NiLOX//Jn9ycIv5nROzv7AFg7J5NKT50x3uu+PxSfnCx1P/qtgsOuCR6nTf5tMEAMHZboyhOXOrlv6QGYE/Xf+zgByLi35xx8TO/nlPvv6WI1d4mADAyO3OKD9/1niuuXO5PVAzjV3P9hft95alD939djjgvIr7n7QMAQ7UjRZyf//mQ1w3j8l92A7Cnu85PsxFxyfR0vvSmFc/8as698yLSOyJihbcbACzaTERclVN84a7vnvC1mJ7uDfMnbw/7Vzs9nXoRcWVEXLnhvzx1SETrXTnHL0fk0yPiEG9PAFhAjl2R4oaItHmqSJtuPWfT47v/xRVD/0+1R/n72PrRA3dFxF9ExF9MT+di+z7PvKnbixMj59ellF8bkdbkiFekiIMj4hWj/vUAwIR1UsTTOeLJiHg6InakFPfliO+nVHzzjnvfcM+wn/QX8v8BaPbgBu/sZIYAAAAldEVYdGRhdGU6Y3JlYXRlADIwMjQtMDctMDNUMDY6MTU6MzErMDA6MDCccQ1FAAAAJXRFWHRkYXRlOm1vZGlmeQAyMDI0LTA3LTAzVDA2OjE1OjMxKzAwOjAw7Sy1+QAAAABJRU5ErkJggg==;imageBorder=none;imageBackground=none;" vertex="1" parent="1">
          <mxGeometry x="59" y="386.1" width="62" height="46.5" as="geometry" />
        </mxCell>
        <mxCell id="8CXxMaMyH3LYBatncUky-19" value="" style="shape=image;verticalLabelPosition=bottom;labelBackgroundColor=default;verticalAlign=top;aspect=fixed;imageAspect=0;image=data:image/png,iVBORw0KGgoAAAANSUhEUgAAACAAAAAsCAMAAAAzZkq9AAAABGdBTUEAALGPC/xhBQAAACBjSFJNAAB6JgAAgIQAAPoAAACA6AAAdTAAAOpgAAA6mAAAF3CculE8AAACUlBMVEUAAACAv6pXuIhVuIlSt4dNsoJKsYBQtIdCsnsqqGxyxp5juI6BzKdDs3mM0a85rnGO07GP0rE1rW+Kzax+yKZuw5syq20wl2gfkVogk1wgkl0vqmohlF8dlmAelWIrpmoenF8boV4bpGAnpGgXn1sjo2UfoWITnlgOnFUXnF0Mm1crqoAVnlsQnFcAv0AhnGMWmVsRl1cSklsAgEAkkm0AgFUnp2gmpmglpmckpWYjpWYipWUhpGQgpGQfpGMvqW4op2qP0bGO0bEuqW6N0LAeo2J6x6OM0LAdo2IwqG59yKQfnmAxmGc1mWs0mGozmGoymGkxmmkcomEbnmAgkVwfkFsekFodj1kcj1kbomEcn2AeklsekVsdkVockVobkFkaomAbn2AdlFsck1sbklsakloanl4cllwblFsalFoZoV8an14bl1walVwZlVsYoV8ZoF8ZmVwZl1sYn14ZmlwYmVsXoF4Xnl0Xm1x6xqGe07md0rmd0ric0rh4xZ8XoF0Xn1y43Mvy8vK328oWoF1/x6RivJBhvJDs8O5hu5Bgu49+x6NHsn7q7+1FsXxzwptStoZStoVRtYVQtYRxwprx8fEVn1xnvpRDsXtCsXvr7+1CsHpBsHpmvZO228pFsX1EsXwUn1u33MqJy6tvwZluwZjt8O9twJhtwJeIy6pOtYMjpGYipGVMtIITn1tCsHu228mg07uMzK3u8O+Ly6yf0rq128kSnlpWt4hvwZhuwZdUtoYRnlkQnVkVnFsVnFoUnFoTm1kSm1gRmlgRmln///+aAa6xAAAANnRSTlMADC82NTU0M1n9sxKcOYw/iok+i5qyPUBBQD88Pj08PDs5ODs4Ojk3NiwpBu/vBB/Y1RwEBwYmGNKAAAAAAWJLR0TFYwsrdwAAAAd0SU1FB+kFAhASC2x2rToAAAKaSURBVDjLbZT7Q0thGIA/IncRchcL5X6J1tZ21NrRcakI1VBGIUMjzKUyO4tWHFTOqDEtVhG5hFyaW/4w73c52znj+fV5zvu+3y8HITRmbELCOGA8ITExcQLSMHFSll6fnW0wGI05OSaT2cxtm6z2U3Kz/gnypqqCaVn/CfKmx4Ik0OC1gcUyIxbo9XEDuHwIYkUS/hx8fGCZqQQqrwmsrEg2EIyxAXy+hQSsSGaaeBrkUm+1ziKB0Ui14jme386CgtnRQPF4AC/s2Em8taBgDkIpOZSY5wVh1+7CwqKi4uI9e+eywKTxJSX79h8oLS0rKy+fh1JMFLOZHSDgwHbw0OGKisrKI/NZwHTU2+xHj1VVVVcfX4AWmhkcm0+8zW4/cbKmpubUIhZwnMrjAXaH4/SZs7W1EHAMXuMhcJ47X1e3mAU802rvdF64eGkJSuUZUU09BC7X5StLWSAIV68R6uvrGxoaGhuvY+9y31iGUgWKR9TgJd7dpKMBjPaIN281Nzf7fC0tra23SeAmQVoJxSPeweslCe+/K3qpVwJQHvHe/ba2Np+vvb2j44Hspd4PgY2iuUGWvcQrAbzL7hEfPurs7OzqCgQCj5/IQer9y1GaneIRn8JyhyTh87shID5EA2x6xGfPw+Fwb29fX1//CzlIPQQrHJQeZTslCBo8DpwUr/jSMDAwIEmvgNdykPpBVSB3w3KXJOHr3shvqYdgpYvild+9B4aGPgAfISB+MF0VaPhE/TAEbsrnL0AY8xXo/0b0sCrA7yZPo9cxP5KOdE0q1Jp4deD3x2vwIxlI51cRitMjkQy0Su2YVnwkElmN1qwNxYha+nkksm49Qhs2fv8B/GT8wvwGRkdH/2zaTH4ymVsYW+PIBPkXKZINyVMNy6UAAAAldEVYdGRhdGU6Y3JlYXRlADIwMjUtMDUtMDJUMTY6MTg6MTErMDA6MDB7UZNeAAAAJXRFWHRkYXRlOm1vZGlmeQAyMDI1LTA1LTAyVDE2OjE4OjExKzAwOjAwCgwr4gAAAABJRU5ErkJggg==;" vertex="1" parent="1">
          <mxGeometry x="660" y="248" width="32" height="44" as="geometry" />
        </mxCell>
        <mxCell id="8CXxMaMyH3LYBatncUky-22" value="" style="shape=image;verticalLabelPosition=bottom;labelBackgroundColor=default;verticalAlign=top;aspect=fixed;imageAspect=0;image=data:image/png,iVBORw0KGgoAAAANSUhEUgAAACAAAAAsCAMAAAAzZkq9AAAABGdBTUEAALGPC/xhBQAAACBjSFJNAAB6JgAAgIQAAPoAAACA6AAAdTAAAOpgAAA6mAAAF3CculE8AAACUlBMVEUAAACAv6pXuIhVuIlSt4dNsoJKsYBQtIdCsnsqqGxyxp5juI6BzKdDs3mM0a85rnGO07GP0rE1rW+Kzax+yKZuw5syq20wl2gfkVogk1wgkl0vqmohlF8dlmAelWIrpmoenF8boV4bpGAnpGgXn1sjo2UfoWITnlgOnFUXnF0Mm1crqoAVnlsQnFcAv0AhnGMWmVsRl1cSklsAgEAkkm0AgFUnp2gmpmglpmckpWYjpWYipWUhpGQgpGQfpGMvqW4op2qP0bGO0bEuqW6N0LAeo2J6x6OM0LAdo2IwqG59yKQfnmAxmGc1mWs0mGozmGoymGkxmmkcomEbnmAgkVwfkFsekFodj1kcj1kbomEcn2AeklsekVsdkVockVobkFkaomAbn2AdlFsck1sbklsakloanl4cllwblFsalFoZoV8an14bl1walVwZlVsYoV8ZoF8ZmVwZl1sYn14ZmlwYmVsXoF4Xnl0Xm1x6xqGe07md0rmd0ric0rh4xZ8XoF0Xn1y43Mvy8vK328oWoF1/x6RivJBhvJDs8O5hu5Bgu49+x6NHsn7q7+1FsXxzwptStoZStoVRtYVQtYRxwprx8fEVn1xnvpRDsXtCsXvr7+1CsHpBsHpmvZO228pFsX1EsXwUn1u33MqJy6tvwZluwZjt8O9twJhtwJeIy6pOtYMjpGYipGVMtIITn1tCsHu228mg07uMzK3u8O+Ly6yf0rq128kSnlpWt4hvwZhuwZdUtoYRnlkQnVkVnFsVnFoUnFoTm1kSm1gRmlgRmln///+aAa6xAAAANnRSTlMADC82NTU0M1n9sxKcOYw/iok+i5qyPUBBQD88Pj08PDs5ODs4Ojk3NiwpBu/vBB/Y1RwEBwYmGNKAAAAAAWJLR0TFYwsrdwAAAAd0SU1FB+kFAhASC2x2rToAAAKaSURBVDjLbZT7Q0thGIA/IncRchcL5X6J1tZ21NrRcakI1VBGIUMjzKUyO4tWHFTOqDEtVhG5hFyaW/4w73c52znj+fV5zvu+3y8HITRmbELCOGA8ITExcQLSMHFSll6fnW0wGI05OSaT2cxtm6z2U3Kz/gnypqqCaVn/CfKmx4Ik0OC1gcUyIxbo9XEDuHwIYkUS/hx8fGCZqQQqrwmsrEg2EIyxAXy+hQSsSGaaeBrkUm+1ziKB0Ui14jme386CgtnRQPF4AC/s2Em8taBgDkIpOZSY5wVh1+7CwqKi4uI9e+eywKTxJSX79h8oLS0rKy+fh1JMFLOZHSDgwHbw0OGKisrKI/NZwHTU2+xHj1VVVVcfX4AWmhkcm0+8zW4/cbKmpubUIhZwnMrjAXaH4/SZs7W1EHAMXuMhcJ47X1e3mAU802rvdF64eGkJSuUZUU09BC7X5StLWSAIV68R6uvrGxoaGhuvY+9y31iGUgWKR9TgJd7dpKMBjPaIN281Nzf7fC0tra23SeAmQVoJxSPeweslCe+/K3qpVwJQHvHe/ba2Np+vvb2j44Hspd4PgY2iuUGWvcQrAbzL7hEfPurs7OzqCgQCj5/IQer9y1GaneIRn8JyhyTh87shID5EA2x6xGfPw+Fwb29fX1//CzlIPQQrHJQeZTslCBo8DpwUr/jSMDAwIEmvgNdykPpBVSB3w3KXJOHr3shvqYdgpYvild+9B4aGPgAfISB+MF0VaPhE/TAEbsrnL0AY8xXo/0b0sCrA7yZPo9cxP5KOdE0q1Jp4deD3x2vwIxlI51cRitMjkQy0Su2YVnwkElmN1qwNxYha+nkksm49Qhs2fv8B/GT8wvwGRkdH/2zaTH4ymVsYW+PIBPkXKZINyVMNy6UAAAAldEVYdGRhdGU6Y3JlYXRlADIwMjUtMDUtMDJUMTY6MTg6MTErMDA6MDB7UZNeAAAAJXRFWHRkYXRlOm1vZGlmeQAyMDI1LTA1LTAyVDE2OjE4OjExKzAwOjAwCgwr4gAAAABJRU5ErkJggg==;" vertex="1" parent="1">
          <mxGeometry x="300.1" y="247.2" width="32" height="44" as="geometry" />
        </mxCell>
        <mxCell id="8CXxMaMyH3LYBatncUky-24" value="" style="verticalLabelPosition=bottom;aspect=fixed;html=1;shape=mxgraph.salesforce.employees2;fillColorStyles=fillColor2,fillColor3;fillColor2=#d83a00;fillColor3=#ffffff;fillColor=none;strokeColor=none;" vertex="1" parent="1">
          <mxGeometry x="720" y="440" width="60" height="60" as="geometry" />
        </mxCell>
        <mxCell id="8CXxMaMyH3LYBatncUky-25" value="" style="image;html=1;image=img/lib/clip_art/people/Suit_Man_128x128.png" vertex="1" parent="1">
          <mxGeometry x="720" y="610" width="60" height="60" as="geometry" />
        </mxCell>
        <mxCell id="8CXxMaMyH3LYBatncUky-27" value="" style="verticalLabelPosition=bottom;aspect=fixed;html=1;shape=mxgraph.salesforce.analytics2;fillColorStyles=fillColor2,fillColor3;fillColor2=#032d60;fillColor3=#ffffff;fillColor=none;strokeColor=none;" vertex="1" parent="1">
          <mxGeometry x="410" y="247.2" width="30" height="30" as="geometry" />
        </mxCell>
        <mxCell id="8CXxMaMyH3LYBatncUky-31" value="" style="edgeStyle=orthogonalEdgeStyle;rounded=0;orthogonalLoop=1;jettySize=auto;html=1;startArrow=classic;startFill=1;flowAnimation=1;" edge="1" parent="1" source="8CXxMaMyH3LYBatncUky-34" target="8CXxMaMyH3LYBatncUky-3">
          <mxGeometry relative="1" as="geometry" />
        </mxCell>
        <mxCell id="8CXxMaMyH3LYBatncUky-30" value="" style="verticalLabelPosition=bottom;aspect=fixed;html=1;shape=mxgraph.salesforce.loyalty2;fillColorStyles=fillColor2,fillColor3;fillColor2=#032d60;fillColor3=#ffffff;fillColor=none;strokeColor=none;" vertex="1" parent="1">
          <mxGeometry x="500" y="247.2" width="30" height="30" as="geometry" />
        </mxCell>
        <mxCell id="8CXxMaMyH3LYBatncUky-35" value="" style="edgeStyle=orthogonalEdgeStyle;rounded=0;orthogonalLoop=1;jettySize=auto;html=1;startArrow=classic;startFill=1;flowAnimation=1;" edge="1" parent="1" source="8CXxMaMyH3LYBatncUky-30" target="8CXxMaMyH3LYBatncUky-34">
          <mxGeometry relative="1" as="geometry">
            <mxPoint x="515" y="277" as="sourcePoint" />
            <mxPoint x="475" y="388" as="targetPoint" />
          </mxGeometry>
        </mxCell>
        <mxCell id="8CXxMaMyH3LYBatncUky-34" value="" style="sketch=0;html=1;aspect=fixed;strokeColor=none;shadow=0;align=center;fillColor=#2D9C5E;verticalAlign=top;labelPosition=center;verticalLabelPosition=bottom;shape=mxgraph.gcp2.check" vertex="1" parent="1">
          <mxGeometry x="465" y="340" width="20" height="16" as="geometry" />
        </mxCell>
        <mxCell id="8CXxMaMyH3LYBatncUky-36" value="Score &amp;gt; 6.5" style="text;html=1;whiteSpace=wrap;strokeColor=none;fillColor=none;align=center;verticalAlign=middle;rounded=0;" vertex="1" parent="1">
          <mxGeometry x="480" y="338" width="70" height="20" as="geometry" />
        </mxCell>
        <mxCell id="8CXxMaMyH3LYBatncUky-37" value="&lt;font style=&quot;font-size: 10px;&quot;&gt;Gmail-Monitor&lt;/font&gt;" style="text;html=1;whiteSpace=wrap;strokeColor=none;fillColor=none;align=center;verticalAlign=middle;rounded=0;" vertex="1" parent="1">
          <mxGeometry x="59" y="440" width="60" height="30" as="geometry" />
        </mxCell>
        <mxCell id="8CXxMaMyH3LYBatncUky-38" value="&lt;font style=&quot;font-size: 10px;&quot;&gt;Resumes&lt;/font&gt;" style="text;html=1;whiteSpace=wrap;strokeColor=none;fillColor=none;align=center;verticalAlign=middle;rounded=0;" vertex="1" parent="1">
          <mxGeometry x="130" y="495" width="30" height="20" as="geometry" />
        </mxCell>
        <mxCell id="8CXxMaMyH3LYBatncUky-39" value="&lt;font style=&quot;font-size: 10px;&quot;&gt;.pdf extractor&lt;/font&gt;" style="text;html=1;whiteSpace=wrap;strokeColor=none;fillColor=none;align=center;verticalAlign=middle;rounded=0;" vertex="1" parent="1">
          <mxGeometry x="190" y="476.3" width="60" height="30" as="geometry" />
        </mxCell>
        <mxCell id="8CXxMaMyH3LYBatncUky-41" value="&lt;div style=&quot;line-height: 80%;&quot;&gt;&lt;font style=&quot;line-height: 80%; font-size: 10px;&quot;&gt;G Sheet 1&lt;/font&gt;&lt;div&gt;&lt;font style=&quot;line-height: 80%; font-size: 10px;&quot;&gt;(All Candidates)&lt;/font&gt;&lt;/div&gt;&lt;/div&gt;" style="text;html=1;whiteSpace=wrap;strokeColor=none;fillColor=none;align=center;verticalAlign=middle;rounded=0;" vertex="1" parent="1">
          <mxGeometry x="286.1" y="218" width="73.9" height="30" as="geometry" />
        </mxCell>
        <mxCell id="8CXxMaMyH3LYBatncUky-43" value="&lt;font style=&quot;line-height: 90%; font-size: 10px;&quot;&gt;json&lt;/font&gt;&lt;div&gt;&lt;font style=&quot;line-height: 90%; font-size: 10px;&quot;&gt;(All Candidates)&lt;/font&gt;&lt;/div&gt;" style="text;html=1;whiteSpace=wrap;strokeColor=none;fillColor=none;align=center;verticalAlign=middle;rounded=0;" vertex="1" parent="1">
          <mxGeometry x="350" y="569" width="79" height="30" as="geometry" />
        </mxCell>
        <mxCell id="8CXxMaMyH3LYBatncUky-44" value="" style="edgeStyle=orthogonalEdgeStyle;rounded=0;orthogonalLoop=1;jettySize=auto;html=1;flowAnimation=1;" edge="1" parent="1" source="86MRq97xUpjLnIEMSiG0-10" target="8CXxMaMyH3LYBatncUky-40">
          <mxGeometry relative="1" as="geometry">
            <mxPoint x="250" y="451" as="sourcePoint" />
            <mxPoint x="314" y="425" as="targetPoint" />
          </mxGeometry>
        </mxCell>
        <mxCell id="8CXxMaMyH3LYBatncUky-40" value="&lt;font style=&quot;line-height: 90%; font-size: 10px;&quot;&gt;LinkedIn +LLm Enricher&lt;/font&gt;" style="text;html=1;whiteSpace=wrap;strokeColor=none;fillColor=none;align=center;verticalAlign=middle;rounded=0;" vertex="1" parent="1">
          <mxGeometry x="279.15000000000003" y="436.4" width="73.9" height="30" as="geometry" />
        </mxCell>
        <mxCell id="8CXxMaMyH3LYBatncUky-47" value="" style="edgeStyle=orthogonalEdgeStyle;rounded=0;orthogonalLoop=1;jettySize=auto;html=1;entryX=0.5;entryY=1;entryDx=0;entryDy=0;entryPerimeter=0;flowAnimation=1;" edge="1" parent="1" source="86MRq97xUpjLnIEMSiG0-6" target="8CXxMaMyH3LYBatncUky-46">
          <mxGeometry relative="1" as="geometry">
            <mxPoint x="413" y="546" as="sourcePoint" />
            <mxPoint x="475" y="433" as="targetPoint" />
          </mxGeometry>
        </mxCell>
        <mxCell id="8CXxMaMyH3LYBatncUky-46" value="&lt;font style=&quot;line-height: 0%; font-size: 10px;&quot;&gt;Recruitment Agent&lt;/font&gt;" style="text;html=1;whiteSpace=wrap;strokeColor=none;fillColor=none;align=center;verticalAlign=middle;rounded=0;" vertex="1" parent="1">
          <mxGeometry x="445" y="432.6" width="60" height="24.9" as="geometry" />
        </mxCell>
        <mxCell id="8CXxMaMyH3LYBatncUky-48" value="&lt;div style=&quot;line-height: 90%;&quot;&gt;&lt;font style=&quot;font-size: 10px;&quot;&gt;Profile Scorer&lt;/font&gt;&lt;/div&gt;" style="text;html=1;whiteSpace=wrap;strokeColor=none;fillColor=none;align=center;verticalAlign=middle;rounded=0;" vertex="1" parent="1">
          <mxGeometry x="390" y="220" width="65" height="30" as="geometry" />
        </mxCell>
        <mxCell id="8CXxMaMyH3LYBatncUky-49" value="&lt;font style=&quot;font-size: 10px;&quot;&gt;Scheduler&lt;/font&gt;" style="text;html=1;whiteSpace=wrap;strokeColor=none;fillColor=none;align=center;verticalAlign=middle;rounded=0;" vertex="1" parent="1">
          <mxGeometry x="490" y="220" width="60" height="30" as="geometry" />
        </mxCell>
        <mxCell id="8CXxMaMyH3LYBatncUky-50" value="&lt;div style=&quot;line-height: 80%;&quot;&gt;&lt;font style=&quot;line-height: 80%; font-size: 10px;&quot;&gt;G Sheet 2&lt;/font&gt;&lt;div&gt;&lt;font style=&quot;line-height: 80%; font-size: 10px;&quot;&gt;(Selected Candidate with Schedule)&lt;/font&gt;&lt;/div&gt;&lt;/div&gt;" style="text;html=1;whiteSpace=wrap;strokeColor=none;fillColor=none;align=center;verticalAlign=middle;rounded=0;" vertex="1" parent="1">
          <mxGeometry x="626" y="217.2" width="104" height="30" as="geometry" />
        </mxCell>
        <mxCell id="8CXxMaMyH3LYBatncUky-53" value="Candidates" style="text;html=1;whiteSpace=wrap;strokeColor=none;fillColor=none;align=center;verticalAlign=middle;rounded=0;" vertex="1" parent="1">
          <mxGeometry x="61" y="217.2" width="60" height="30" as="geometry" />
        </mxCell>
        <mxCell id="8CXxMaMyH3LYBatncUky-56" value="Candidates" style="text;html=1;whiteSpace=wrap;strokeColor=none;fillColor=none;align=center;verticalAlign=middle;rounded=0;" vertex="1" parent="1">
          <mxGeometry x="720" y="495" width="60" height="30" as="geometry" />
        </mxCell>
        <mxCell id="8CXxMaMyH3LYBatncUky-57" value="Recruiter" style="text;html=1;whiteSpace=wrap;strokeColor=none;fillColor=none;align=center;verticalAlign=middle;rounded=0;" vertex="1" parent="1">
          <mxGeometry x="59" y="515" width="60" height="30" as="geometry" />
        </mxCell>
        <mxCell id="8CXxMaMyH3LYBatncUky-58" value="Recruiter" style="text;html=1;whiteSpace=wrap;strokeColor=none;fillColor=none;align=center;verticalAlign=middle;rounded=0;" vertex="1" parent="1">
          <mxGeometry x="730" y="670" width="60" height="30" as="geometry" />
        </mxCell>
        <mxCell id="8CXxMaMyH3LYBatncUky-61" value="" style="shape=image;verticalLabelPosition=bottom;labelBackgroundColor=default;verticalAlign=top;aspect=fixed;imageAspect=0;image=data:image/webp,UklGRtwSAABXRUJQVlA4INASAACQXwCdASpAAUABPAJLS4SAAACWk3AP4B+ADiAfwC5AfwB126D8A+wH6ASH1qbRcPlJOfj+i4hl6nxZ73f+QdFy+vf3DrN/sP4X/tN2i/cj1I/bP++8x/ozzR/jv1W+Xfkd/Q/+v/bflLvv9Qv5O/AF+JfxT+ZfiL/Wv93/i+YBz/6QPgC9FPi/86/pH6q/37/df4b/8/f52d/Gb3V+WD8mfoA/Vv+3/kt8Uf9HwdvuPqAfyT+Zf4j+8/s9/n/ph/l/8r/f/8d/vf7b/8/gx87/6n/N/tf/fv//+Av8Z/lX9W/tv9+/wX9g/+P7/+Zb0Ov1gmleX6iDWd5kmI6n/GyZAXl5J2EGYUhDDMKQhhmFIQwzCkIYZhSEMMwpCGMoYgmv38if38if38r+5LU25LU25LU25LkGNDabqxADLmqovTk/a7NDabq3gOTxobTOXQ0pacQKtORh/F/HCH1r64CPeeR5H6Z3GhtM418eieOAYSsKQ+++YCocLHHYajISAecYnYkv8Lo95A6nilIULo9gMUNNbbKhgzmWfazaxMLI2daDfP8cQYLtpnLfuXTPoPivMU36yOAvuPAqkIvFP9UDDIn2zkngW4mW7fK1TydNhaCCLf9iwfHeZureA5PE9NCgJxnJZRC5GQf8tj9BuOt4VPQVM1+NQAYLBr8cOOfFQWKdu2mmh0KXK4LETtDlBL7DcWuwI5jtGRERHyMf36Jn68Xxay07c4xbZtLzYo2HaeVtTcP57rCfuSEz/SggdX/8XfWRtD1Pkm3FEjKnTX0dfSezzBnv/WtP7tSRXGLbub+wvhVyxtEH2QY+c9AAZ6WTLdFxtNgGDarlQJxcR7mLeA5PGhh5KixxQyw3YYIfwCuSuu+Ai0RFdj1QtxBMoWhwcTYdPGm0/v5E/sOxVmpoGU24n83+b+tELz5185LU4KP7+RP7XU4DRY/HktRO+QvIn9/K/uS1NuS1NuS1NuS5BjQ2m6tyWptyWpt4Dk8aG03VuS1NuS1Wfx+3kT+/kT+/kT+wAAD+/92jV69hOvYTr2E69hOvYTr2E69hOvYTr2E69hOvYTr2E69hOvYTr2E69hOvYTr2E69Z//ffUy7CoK8YRiqlBhRIUkN6H86Nj9fIqYp6JxfVp4pJEr90hGefXdw83o2dJgZvklwAsG9qgYkbPhduPqGcl4/9nH/dI5Z22k7ijadLBksKbLvP/3lDyc2DpwXv5OU+87ZnWuTAxO4/4jVHWHMizWUbJL5+eZMLk6Ixig8jrjCSsnc7CoUvJdKuBuTMEAKZL7SQ02m2b/aaVZbvukWmKBj9IWBLwC5BVGDeex2KS3ePt2DYGqWJ3Duc4PUAWjqyCgL5kaorpFUg164mK28wAXb7gbPPXSMhAVpfzuFfwMeID82nyXgdhNknWiidw9R6rCeI7zBCEpF3nd9pYFhN7zbwJvBSjdryZrS6M5HW0M2DLCWP9vmvDX/n5s+ut/3X3Oe99+b6xTwW54nPlBUKdEUkvYQ9zndnP+Uqrtmt84+viBD0ujrwGglF3IvYL5uqc6eAoxDis8bTPzYbtsbd2sDwToQO/lVRjEjGAtNAAB+4vHKSfzXQNvtazS1+6Cnh4JAtHd6x1309355WhXIcwwqXZqsSaI9ar9SrukGK3VVR9hpq04aWxK9x8EebLMOBvKZSy3cHzG6kN0UKKcNQWxxtd8B+q8Jl0z98rcrT9D5VYyYmQE1Bj6r37E4n80Ruf6aFshfgd79Sq/jYLbOJlU4XxLJIOY5iVyA2KDH2pmxZKTB4vLKmH43mlB3Mf5dUtMlky4meWciRa3sgp1gjnKOMWIe1dPrIFaYgt5Dxq76CWNXqcsWyMXXGigedPWj7hBzN/4S87RqXp9B7/Hi64y2HjtTaA/dwybcKadDdK98OCcjn13p9WHXbZTKdK+hujm4GaEYqvAqk55odm5rNoV44mjR+BfsWpB+JOF+Lto4ofvzWljKUzJ2P22vsu92c3T0H6DJ9BGEl0MMK+LazAr7rz7U3aHg2hhNdgMfTXC07EX4qSPFjQNIxUz751Nen4w3fGWv6Yy3AmrCOyRT+DlfgK6ODK2Lt6GUsOjbMPSSnvUPc3VtgI1bYQrnYFqH0b7Xk/9hUhcBVBuxR8NgtxGGdp72vIINMQKdnQs6Haup6VEigWnmzQcDufkcxANx3C2OySOi7vGSXdLacHtwHU6pXOdfUFOU5jE8u8gdkGCRA8P4YxXcA77zr5H7w7gfuu10Ea17Se51G+ohirEBLUtjytkuUvRo4iBjlcXm4C6p34MrnorgJQ8A41/2i7bmfvL6ZM+zotA6pz/uGvohun67BXHuWFpyxjflJ+bZ5R0JJUDDt2hFjHzkdPDd4pWRKj5JdNK1vTobGnEC65NFS8dr4xKJXkoMbMzB804WT61YcFiYG8X0FaBo/jcTeLwwl/oZq18yRr0NGrFw7VBdgWy+V3NXaj7H3keq0mQaHtyKQUje6D16xF06qzVYX5YkrmqXNrIPrsYiyp5j3/dpUMzBgMuqoZVbz3qAHIk2sDDK3K3ZfJx3O82hxb6Q0uN43RpHQQjU/H2FGqr/Hhf+hfYBsQbVU8nPjKbO9EhVy/R7xXdqMtS8BnyTh2sKBUpSo2xJGRK5O6EZIqXEnEyE1+/rS/c0hmtpnlB+4Gl/zPyPenF3ze9aJM0jFYx/PYCtSV2jB/gB3LUf1dQ/Bclu0+/phjWLLmGATskJ8R32djlW2scms0nnLEYeTqh1nctZHlIu+TcM5jYk4hHehrEO9Xdd/USHX2Eod0O9oN/14s+kK6UsLQSLSDHIFWonNdc1aKWuVHKg7hgTwHZtTdLCrvahXOO652s1EfOSaUxAxrko8kCEE1mJgMuTiLw2mXU6wrWOMPrypvNRTLmTLptq+hnFYARXr8Bv26EEFDjBWmKEcRIj8ngSG7gRKrfCa+gYYY6Tm016icmUwR2TLqIL3w6VR5hrTC6E6wTbxAtUO+L8nLYKCTXH56KMfDJhQ67tksOwNKCeghFKrpOEOmowwzOxRYM1WWtmFCkCCYhhYJdtO22ombO13Ft3ohsr57XH/a+mSVC4s6Mklhp2eAdiUbzj/aY7qBj7ZHbzHuPactuwnyt3sSoSwztF0nYCFyk3Ma51tXOJMhwH+55uqFw7qupvGDgR7gIl95KMTXzI/uaMKacqBckDZ6dwZjS24KvctHguCLTVK2G1MKRba9jAIrQQEcNN19rLIKp5KNkwvgkRCpIva/uYBmm5XDDtVE6u5ILZXi4/umx8AXRfqDw676i6WQ+44LU2q9JqMwE/rsgEnflxcR4L3LHPhok0eXviPyjO0LRXFDc3F/e5yQnJYTU3l+P3NhsHa1J6oGk2KUMC0wRSzFLDh6FHJv1S1ollC2WwfsG77YCwcxUGE89/dbacZUMeQliNHB5LGgIVTMF6jlwB1EV4EKOkrp12nOSSoqb7mYRZNsGpPR3eBwGjPDe3JWhHRF4BjnwF/Vn74EFO/pHFCxQmPdcpE9tE5fgTLp4EJcaRdJWvrY25ftz91fqNPDFtH9mUNM4re23ghJhYFF7VvC6gIodp9UF80hH1rSz53XDj+LPQwG/Yi7v//G+Byal+48ekRkWUXf6HVRMIpOyRg9OTAOpW1h8upCIuQoNb3s3//+9hR//e7v/3r5//+OoqOBrnfHgaM+aiHwj0/UQ+EdzPSPWormoChEsNL6YpbmJjJQAeMu1kSvMHCJVOzy7JnCa9CoHtcHR3s3//+9hR//e7v/3r5spXpZVLlK9LKpcpXpZVLlK9LKeED5sGbaTfQsr7ppWGhAlU8dd4TJAf9K6FjiQL+q+erXPf0f2yPcmzSRBReHRrWUCToUnS4LGEmWmiCfi+y46xTslSfqanQX/9nBUNxqX+Tp/jzucIc1dP0XTDyv/Vs9H/Z7dJzDMyZXl6JB0gyqGVpX3M2JD5shsJL8kGFjPMPSHqjP9qav6q4kb5Gfr5s50Sc/RfcvGU7S6BeM741/snmnvnSKgmTVk5t4G6pMBof9Hwwc9F8bvCdnT1OCyjAWimk8/5KSyAejOSBPi578gxtuP/9O1wNsOMyMtFo2uIQ749ttvdzg6j3ZaThSetMa0Qt3JrNiOPAA1glmS1BTKD/93XE02In+pudN1Cda+74llGELIRMQf7m9bXJAFpEb5Zg+HE9nQ+CxIsFxQqrChis/V4xCUH8dJCyzZH+W6cPgx5waPUHuYiwtt/80PKGbCWLQsA/NBLyMl5J7cc58Ca+nUvs2MujCKzZP1cwS59DeBdNtJUt+yW0iUkKiFZklzDp6rxvg5Gl1oaFndb/wz3smpO9sfX6d+gYKStr+jRo+oAMfr6KVinZY9rE6YGi3mk56tF7lkxTrrhUbUsz3zhfAqTqkhpY9O6Hspj1+WUVVClAUF+6JfqN+Ld5ZN8VpPkYuiGTRUqXDv6PRCk84jNbsKLQX+KnOZ2XuBZZz+znz0fRnYb/bALtD0NVQk/xyPAczarq2rtOt9WeyD8hN0ZMuaWZJJOEiL1QTJRxYhHubib1Isg4dMHvuKkLtJ9Bf85J2CUfQr85hJMnzAdKmoDOulqNDsObUhRL0P8PTfKgdJWzRbCFoDG2ZzezpPFKEuFodsiQpL2B3gIp6gT9mwF96PhtBvPvvIvQFJ4eYuZMgzSv3SLgwHgvlM0/wQXg8gIU4KiuP0Ub8RBk52UFG1I6i1PqWKsENvw63c9V++0GxEUloGCoFwvf0JFBCN/X+LtcGEYj7RMdzTVTU3p/uuStpVQiMN/JzQ+kF82QLOkmQIuapxSbrQd2CSpvCFyDmQgihkb91hrEoGK10VBjneC3lrK69AjoTiEmRCcu/XB4arsa+izROF/81iM2j7Si1UlGa24XBKJz6Xsml3Pfckj9iYU9fPowQoVRa4CSClStV7RHaoGHYoUOuCPp3MfBEdCqZQfXApInuO9kGZE1AlewtW0lBEBPFhoC9PDB4kH32OXUhlNQpfKdyUN2J76pQjrVzbUcgV24joWUaRrtCm62iCjhaAWBjAsGkkE93eqIFNXVn2Fhfm293MOkMDyJjTGyD6WOS4AWbDT/RAZii3zUwZmiMOu4lVehulEo8Oh7n4/TQinq5s3y9Hcd7JPCfOAxcqTZQN3hzSxV2RMLm+Au+dAvATans8BVTgoq2peWhhcYopTwaugx+7aHTyV69/gEIwExxZ8TOH/rtp/vFs1YBcDNPc9mTK79P+KOMZHuqWl/GJrKtPvc2G8q9Xx22zywbncWU0DVMWZfE3vJJKsrTZo8aQ//871ctsHZZMfQqLrM6WiJux2OGY10sI7XHmxDdT4AMbDyCMk2hxdMUNIbDYZOTGCUlaHvA7tonHLvtxep4fO8U6AX2dNjBjv763yB+R5J+93f8QprX/Wg/u8BkVAWBSQYAUnKv5vhZuU7GvWZBGUKHp5fc7Yg2LVm2zy2S96sux4u8uD3ydRKkoWzdiQ/Q9mszGQWY5q3iD/01n+9sgvJnUimCUbOofAXvHRPDIymnqTzEv1H4CGWdjbGeuZmNjJ9XHP5SEEixvhEgNwhUox8prPQ7WU1q80HIWMx4yGqPv+jRN0EAvBmPRPYsiAWX5MDz1JS9MQP2s6wdBBfiKq/Fra5hMadkg2ctnADH4aQ2BQQ9dbF8AQaRhAKy+LR++F2VReVSDjYD5c+fc9S9+4jhjoHyAydCS1EXc2mIRgkej/rNVTT5EZEYy67ZTfz1ldcp51jZswnuWia8zCWquSO2zl4t0SyjU+fT7Hawz3oM1u57uZkYz9o8B+fnUWECnBxEKbROLlTNlt1pDjbRznmThYnGG8zVbJkaPPkk8berAroMWN/rdhRkyJREnhsePRtgoUtJzWHk0zNDq/i43TAXr0wi7B1k2Jk0RHKQZT2kDQuQIAhox0vlqQYrXPLjFAe6KZhpihLwZ9HJpoYiNTT2R+VHDXBwB9dR4tT0Ef8oLpDGFd8vBncbO4pZe4QWFl910QzI0DLv57tAA4dXtKufUklzTFjWtmK+VUq/9NbycQyd0LXYyIOZ2oNjftYRXdyPsb13+w3KWvV0kWz6jonbw9B/YoQRzYVtXDBA89kUgXzBquv3ctSYGM3NeUCfgOc2ZqODZ8ODp7wxuyPW/8Ayom1GiTMXRR1N3eW8oDbuDBgsm2Cr/qt8mpsan1nf7KMrxZoXubfkQjo7zgvnFk20APzq00jQNEraZ/uxxGXwJv2Y3dtJtHo5BApLXZSTTj8z+cfmOeg3INOTxwEonp/HYxTvT3LipsVG0dj6xzPMCqj4ETNrrU/7yrvsuRcxtlhBR8WEMwEPEGiTlo0KbheC9zXNJe/ABaWCfyFFvDhzbCy1iWeL4lEnsNVsUZaSYPWg3O4WjptcDT3Ht4uEu29IgAA;" vertex="1" parent="1">
          <mxGeometry x="366.02" y="130" width="60" height="60" as="geometry" />
        </mxCell>
        <mxCell id="8CXxMaMyH3LYBatncUky-62" value="COMPOSIO" style="text;html=1;whiteSpace=wrap;strokeColor=none;fillColor=none;align=center;verticalAlign=middle;rounded=0;" vertex="1" parent="1">
          <mxGeometry x="418.97" y="145" width="60" height="30" as="geometry" />
        </mxCell>
        <mxCell id="8CXxMaMyH3LYBatncUky-65" value="~By IGNIITTE" style="text;html=1;whiteSpace=wrap;strokeColor=none;fillColor=none;align=center;verticalAlign=middle;rounded=0;" vertex="1" parent="1">
          <mxGeometry x="720" y="145" width="60" height="30" as="geometry" />
        </mxCell>
        <mxCell id="8CXxMaMyH3LYBatncUky-68" value="G Calender Interview Scheduled" style="text;html=1;whiteSpace=wrap;strokeColor=none;fillColor=none;align=center;verticalAlign=middle;rounded=0;" vertex="1" parent="1">
          <mxGeometry x="542.5" y="539" width="140" height="30" as="geometry" />
        </mxCell>
      </root>
    </mxGraphModel>
  </diagram>
</mxfile>
